# This file uses centimeters as units for non-parametric coordinates.

g default
v -2.139758 0.415818 0.403010
v -1.429564 0.415818 0.403010
v -2.139758 0.702346 0.403010
v -1.429564 0.702346 0.403010
v -2.139758 0.702346 -0.307246
v -1.429564 0.702346 -0.307246
v -2.139758 0.415818 -0.307246
v -1.429564 0.415818 -0.307246
v -2.139758 0.415818 1.079884
v -1.429564 0.415818 1.079884
v -1.429564 0.702346 1.079884
v -2.139758 0.702346 1.079884
v -2.139758 0.702346 -0.984120
v -1.429564 0.702346 -0.984120
v -1.429564 0.415818 -0.984120
v -2.139758 0.415818 -0.984120
v -0.752638 0.415818 -0.307246
v -0.752638 0.415818 0.403010
v -0.752638 0.702346 -0.307246
v -0.752638 0.702346 0.403010
v -2.816684 0.415818 -0.307246
v -2.816684 0.415818 0.403010
v -2.816684 0.702346 0.403010
v -2.816684 0.702346 -0.307246
vt 0.515408 0.781827
vt 0.503512 0.781676
vt 0.503662 0.769780
vt 0.515559 0.769930
vt 0.850405 0.416734
vt 0.829942 0.416135
vt 0.830541 0.395672
vt 0.851004 0.396271
vt 0.434522 0.768906
vt 0.446418 0.769056
vt 0.446268 0.780952
vt 0.434372 0.780802
vt 0.480838 0.781389
vt 0.468942 0.781239
vt 0.469092 0.769343
vt 0.480988 0.769493
vt 0.411698 0.780514
vt 0.399802 0.780364
vt 0.399952 0.768468
vt 0.411848 0.768618
vt 0.492175 0.781533
vt 0.492325 0.769636
vt 0.849834 0.436236
vt 0.829371 0.435637
vt 0.526896 0.770074
vt 0.526745 0.781970
vt 0.831112 0.376170
vt 0.851575 0.376769
vt 0.457755 0.769199
vt 0.457605 0.781095
vt 0.423035 0.780658
vt 0.423185 0.768762
vt 0.810440 0.415564
vt 0.811039 0.395101
vt 0.388465 0.780221
vt 0.388615 0.768325
vt 0.870506 0.396842
vt 0.869907 0.417305
vn 0.000000 0.000000 1.000000
vn 0.000000 0.000000 1.000000
vn 0.000000 0.000000 1.000000
vn 0.000000 0.000000 1.000000
vn 0.000000 1.000000 0.000000
vn 0.000000 1.000000 0.000000
vn 0.000000 1.000000 0.000000
vn 0.000000 1.000000 0.000000
vn 0.000000 0.000000 -1.000000
vn 0.000000 0.000000 -1.000000
vn 0.000000 0.000000 -1.000000
vn 0.000000 0.000000 -1.000000
vn 1.000000 0.000000 0.000000
vn 1.000000 0.000000 0.000000
vn 1.000000 0.000000 0.000000
vn 1.000000 0.000000 0.000000
vn -1.000000 0.000000 0.000000
vn -1.000000 0.000000 0.000000
vn -1.000000 0.000000 0.000000
vn -1.000000 0.000000 0.000000
vn 1.000000 0.000000 0.000000
vn 1.000000 0.000000 0.000000
vn 1.000000 0.000000 0.000000
vn 1.000000 0.000000 0.000000
vn 0.000000 1.000000 0.000000
vn 0.000000 1.000000 0.000000
vn -1.000000 0.000000 0.000000
vn -1.000000 0.000000 0.000000
vn -1.000000 0.000000 0.000000
vn -1.000000 0.000000 0.000000
vn 0.000000 1.000000 0.000000
vn 0.000000 1.000000 0.000000
vn 1.000000 0.000000 0.000000
vn 1.000000 0.000000 0.000000
vn 1.000000 0.000000 0.000000
vn 1.000000 0.000000 0.000000
vn -1.000000 0.000000 0.000000
vn -1.000000 0.000000 0.000000
vn -1.000000 0.000000 0.000000
vn -1.000000 0.000000 0.000000
vn 0.000000 0.000000 -1.000000
vn 0.000000 0.000000 -1.000000
vn 0.000000 0.000000 -1.000000
vn 0.000000 0.000000 -1.000000
vn 0.000000 1.000000 0.000000
vn 0.000000 1.000000 0.000000
vn 0.000000 0.000000 1.000000
vn 0.000000 0.000000 1.000000
vn 0.000000 0.000000 1.000000
vn 0.000000 0.000000 1.000000
vn 0.000000 0.000000 1.000000
vn 0.000000 0.000000 1.000000
vn 0.000000 0.000000 1.000000
vn 0.000000 0.000000 1.000000
vn 0.000000 1.000000 0.000000
vn 0.000000 1.000000 0.000000
vn 0.000000 0.000000 -1.000000
vn 0.000000 0.000000 -1.000000
vn 0.000000 0.000000 -1.000000
vn 0.000000 0.000000 -1.000000
s off
g textureEditorIsolateSelectSet polySurface15 dendy_controller
f 9/1/1 10/2/2 11/3/3 12/4/4
s 1
g polySurface15 dendy_controller
f 3/5/5 4/6/6 6/7/7 5/8/8
s off
g textureEditorIsolateSelectSet polySurface15 dendy_controller
f 13/9/9 14/10/10 15/11/11 16/12/12
f 18/13/13 17/14/14 19/15/15 20/16/16
f 21/17/17 22/18/18 23/19/19 24/20/20
f 2/21/21 4/22/22 11/3/23 10/2/24
s 1
f 4/6/6 3/5/5 12/23/25 11/24/26
s off
f 3/25/27 1/26/28 9/1/29 12/4/30
s 1
f 5/8/8 6/7/7 14/27/31 13/28/32
s off
f 6/29/33 8/30/34 15/11/35 14/10/36
f 7/31/37 5/32/38 13/9/39 16/12/40
f 8/30/41 6/29/42 19/15/43 17/14/44
s 1
f 6/7/7 4/6/6 20/33/45 19/34/46
s off
f 4/22/47 2/21/48 18/13/49 20/16/50
f 1/35/51 3/36/52 23/19/53 22/18/54
s 1
f 3/5/5 5/8/8 24/37/55 23/38/56
s off
f 5/32/57 7/31/58 21/17/59 24/20/60
