# This file uses centimeters as units for non-parametric coordinates.

g default
v -3.548466 0.549501 -1.640101
v -3.548466 0.307112 -1.882489
v -3.790828 0.307112 -1.640101
v 3.790882 0.307112 -1.640101
v 3.548467 0.307112 -1.882489
v 3.548467 0.549501 -1.640101
v -3.790828 -0.566187 -1.640101
v -3.548466 -0.566187 -1.882489
v -3.548466 -0.808575 -1.640101
v 3.548467 -0.808575 -1.640101
v 3.548467 -0.566187 -1.882489
v 3.790882 -0.566187 -1.640101
v -3.790828 -0.566187 1.640101
v -3.548466 -0.808575 1.640101
v -3.548466 -0.566187 1.882489
v 3.548467 -0.566187 1.882489
v 3.548467 -0.808575 1.640101
v 3.790882 -0.566187 1.640101
v -3.790828 0.307112 1.640101
v -3.548466 0.307112 1.882489
v -3.548466 0.549501 1.640101
v 3.548467 0.549501 1.640101
v 3.548467 0.307112 1.882489
v 3.790882 0.307112 1.640101
vt 0.658574 0.740072
vt 0.659929 0.751614
vt 0.546180 0.751540
vt 0.547475 0.740200
vt 0.670021 0.741380
vt 0.658465 0.499788
vt 0.670027 0.498524
vt 0.909356 0.759922
vt 0.909355 0.748561
vt 0.938298 0.748559
vt 0.938299 0.759920
vt 0.659760 0.488447
vt 0.547367 0.499916
vt 0.546011 0.488374
vt 0.909339 0.513346
vt 0.909338 0.501985
vt 0.938281 0.501983
vt 0.938282 0.513344
vt 0.396074 0.751822
vt 0.398826 0.742531
vt 0.508165 0.741654
vt 0.511242 0.751314
vt 0.388155 0.744581
vt 0.385953 0.501792
vt 0.396565 0.503548
vt 0.393492 0.493888
vt 0.508659 0.493386
vt 0.505904 0.502676
vt 0.938256 0.135329
vt 0.938257 0.146690
vt 0.909313 0.146692
vt 0.909313 0.135331
vt 0.518779 0.743407
vt 0.516576 0.500629
vt 0.938273 0.381905
vt 0.938274 0.393266
vt 0.909330 0.393268
vt 0.909329 0.381907
vt 0.535914 0.741464
vt 0.535919 0.498608
vt 0.909305 0.026615
vt 0.938249 0.026613
vn -0.707145 0.707069 0.000000
vn -0.707145 0.707069 0.000000
vn -0.707145 0.707069 0.000000
vn -0.707145 0.707069 0.000000
vn 0.000000 0.707107 -0.707107
vn 0.000000 0.707107 -0.707107
vn 0.000000 0.707107 -0.707107
vn 0.000000 0.707107 -0.707107
vn -0.707145 0.000000 -0.707069
vn -0.707145 0.000000 -0.707069
vn -0.707145 0.000000 -0.707069
vn -0.707145 0.000000 -0.707069
vn 0.707069 0.707145 0.000000
vn 0.707069 0.707145 0.000000
vn 0.707069 0.707145 0.000000
vn 0.707069 0.707145 0.000000
vn 0.707069 0.000000 -0.707145
vn 0.707069 0.000000 -0.707145
vn 0.707069 0.000000 -0.707145
vn 0.707069 0.000000 -0.707145
vn -0.707145 -0.707069 0.000000
vn -0.707145 -0.707069 0.000000
vn -0.707145 -0.707069 0.000000
vn -0.707145 -0.707069 0.000000
vn 0.000000 -0.707107 -0.707107
vn 0.000000 -0.707107 -0.707107
vn 0.000000 -0.707107 -0.707107
vn 0.000000 -0.707107 -0.707107
vn 0.707069 -0.707145 0.000000
vn 0.707069 -0.707145 0.000000
vn 0.707069 -0.707145 0.000000
vn 0.707069 -0.707145 0.000000
vn -0.707145 0.000000 0.707069
vn -0.707145 0.000000 0.707069
vn -0.707145 0.000000 0.707069
vn -0.707145 0.000000 0.707069
vn 0.000000 -0.707107 0.707107
vn 0.000000 -0.707107 0.707107
vn 0.000000 -0.707107 0.707107
vn 0.000000 -0.707107 0.707107
vn 0.707069 0.000000 0.707145
vn 0.707069 0.000000 0.707145
vn 0.707069 0.000000 0.707145
vn 0.707069 0.000000 0.707145
vn 0.000000 0.707107 0.707107
vn 0.000000 0.707107 0.707107
vn 0.000000 0.707107 0.707107
vn 0.000000 0.707107 0.707107
vn 0.000000 0.000000 -1.000000
vn 0.000000 0.000000 -1.000000
vn 0.000000 0.000000 -1.000000
vn 0.000000 0.000000 -1.000000
vn 0.000000 -1.000000 0.000000
vn 0.000000 -1.000000 0.000000
vn 0.000000 -1.000000 0.000000
vn 0.000000 -1.000000 0.000000
vn 0.000000 0.000000 1.000000
vn 0.000000 0.000000 1.000000
vn 0.000000 0.000000 1.000000
vn 0.000000 0.000000 1.000000
vn 0.000000 1.000000 0.000000
vn 0.000000 1.000000 0.000000
vn 0.000000 1.000000 0.000000
vn 0.000000 1.000000 0.000000
vn 1.000000 0.000000 0.000000
vn 1.000000 0.000000 0.000000
vn 1.000000 0.000000 0.000000
vn 1.000000 0.000000 0.000000
vn -1.000000 0.000000 0.000000
vn -1.000000 0.000000 0.000000
vn -1.000000 0.000000 0.000000
vn -1.000000 0.000000 0.000000
vn -0.577391 0.577330 -0.577329
vn -0.577391 0.577330 -0.577329
vn -0.577391 0.577330 -0.577329
vn 0.577309 0.577371 -0.577371
vn 0.577309 0.577371 -0.577371
vn 0.577309 0.577371 -0.577371
vn -0.577391 -0.577330 -0.577329
vn -0.577391 -0.577330 -0.577329
vn -0.577391 -0.577330 -0.577329
vn 0.577309 -0.577371 -0.577371
vn 0.577309 -0.577371 -0.577371
vn 0.577309 -0.577371 -0.577371
vn -0.577391 -0.577330 0.577329
vn -0.577391 -0.577330 0.577329
vn -0.577391 -0.577330 0.577329
vn 0.577309 -0.577371 0.577371
vn 0.577309 -0.577371 0.577371
vn 0.577309 -0.577371 0.577371
vn -0.577391 0.577330 0.577329
vn -0.577391 0.577330 0.577329
vn -0.577391 0.577330 0.577329
vn 0.577309 0.577371 0.577371
vn 0.577309 0.577371 0.577371
vn 0.577309 0.577371 0.577371
s off
g polySurface16 dendy_controller
f 1/1/1 3/2/2 19/3/3 21/4/4
f 2/5/5 1/1/6 6/6/7 5/7/8
f 3/8/9 2/9/10 8/10/11 7/11/12
f 4/12/13 6/6/14 22/13/15 24/14/16
f 5/15/17 4/16/18 12/17/19 11/18/20
f 7/19/21 9/20/22 14/21/23 13/22/24
f 9/20/25 8/23/26 11/24/27 10/25/28
f 10/25/29 12/26/30 18/27/31 17/28/32
f 13/29/33 15/30/34 20/31/35 19/32/36
f 15/33/37 14/21/38 17/28/39 16/34/40
f 16/35/41 18/36/42 24/37/43 23/38/44
f 21/4/45 20/39/46 23/40/47 22/13/48
f 2/9/49 5/15/50 11/18/51 8/10/52
f 9/20/53 10/25/54 17/28/55 14/21/56
f 15/30/57 16/35/58 23/38/59 20/31/60
f 21/4/61 22/13/62 6/6/63 1/1/64
f 4/16/65 24/37/66 18/36/67 12/17/68
f 19/32/69 3/41/70 7/42/71 13/29/72
f 1/1/73 2/5/74 3/2/75
f 4/12/76 5/7/77 6/6/78
f 7/19/79 8/23/80 9/20/81
f 10/25/82 11/24/83 12/26/84
f 13/22/85 14/21/86 15/33/87
f 16/34/88 17/28/89 18/27/90
f 19/3/91 20/39/92 21/4/93
f 22/13/94 23/40/95 24/14/96
