# This file uses centimeters as units for non-parametric coordinates.

g default
v -0.930556 -3.100315 0.911785
v 0.346894 -3.100315 0.911785
v 0.346894 -3.100315 -0.911785
v -0.930556 -3.100315 -0.911785
v -0.930556 -1.893124 0.911785
v -0.930556 -1.893124 -0.911785
v 0.346894 -1.893124 -0.911785
v 0.346894 -1.893124 0.911785
v 0.346894 -3.100315 0.000855
v -0.930556 -3.100315 0.000855
v -0.930556 -1.893124 0.000855
v 0.366515 -1.892924 0.746637
v 0.366631 -2.640716 -0.000000
v 0.366631 -2.422034 -0.527946
v 0.366631 -1.894088 -0.746629
v 0.366631 -1.366142 -0.527946
v 0.366631 -1.147460 -0.000000
v 0.366631 -1.366142 0.527946
v 0.346894 -1.003087 0.911785
v -0.930556 -1.003087 0.911785
v -0.930556 -1.003087 0.000855
v -0.930556 -1.003087 -0.911785
v 0.346894 -1.003087 -0.911785
v 0.351598 -0.952817 0.000034
v 0.366509 -2.431760 0.505712
v -0.930556 0.892159 0.911784
v 0.346894 0.892159 0.911784
v 0.346894 0.892159 -0.911785
v -0.930556 0.892159 -0.911785
v -0.930556 -0.113051 0.911785
v -0.930556 -0.113051 -0.911785
v 0.346894 -0.113051 -0.911785
v 0.346894 -0.113051 0.911785
v 0.346894 0.892158 0.000393
v -0.930556 0.892159 -0.000000
v -0.930556 -0.113051 0.000855
v 0.356248 -0.112643 0.790463
v 0.356303 0.678371 -0.000000
v 0.356303 0.446851 -0.558939
v 0.356303 -0.112088 -0.790459
v 0.356303 -0.671027 -0.558939
v 0.356303 -0.671027 0.558939
v 0.356245 0.456635 0.535911
v -0.930556 3.100315 -0.911785
v 0.346894 3.100315 -0.911785
v 0.346894 3.100315 0.911785
v -0.930556 3.100315 0.911784
v -0.930556 1.893124 -0.911785
v -0.930556 1.893124 0.911784
v 0.346894 1.893124 0.911785
v 0.346894 1.893124 -0.911785
v 0.346894 3.100315 -0.000855
v -0.930556 3.100315 -0.000855
v -0.930556 1.893124 -0.000855
v 0.361879 1.893198 -0.766427
v 0.361967 2.660507 -0.000000
v 0.361967 2.436028 0.541940
v 0.361967 1.894088 0.766419
v 0.361967 1.352147 0.541940
v 0.361967 1.127668 -0.000000
v 0.361967 1.352147 -0.541941
v 0.361875 2.445781 -0.519349
v 0.406698 -1.890540 0.575119
v 0.406698 -2.310182 0.387468
v 0.406698 -2.470677 -0.000000
v 0.406698 -2.301797 -0.407710
v 0.406698 -1.894087 -0.576590
v 0.406698 -1.486378 -0.407710
v 0.406698 -1.317499 -0.000000
v 0.406698 -1.486378 0.407710
v 0.406698 0.304007 0.387468
v 0.406698 0.464501 -0.000000
v 0.406698 0.295622 -0.407710
v 0.406698 -0.112088 -0.576590
v 0.406698 -0.519798 -0.407710
v 0.406698 -0.688677 -0.000000
v 0.406698 -0.519798 0.407710
v 0.406698 -0.115636 0.575119
v 0.406697 1.890540 -0.575120
v 0.406697 2.310182 -0.387469
v 0.406697 2.470677 -0.000000
v 0.406697 2.301798 0.407710
v 0.406697 1.894087 0.576589
v 0.406698 1.486378 0.407710
v 0.406698 1.317499 -0.000000
v 0.406698 1.486378 -0.407710
v 0.435169 -1.894039 -0.002448
v 0.435169 -0.112136 -0.002448
v 0.435169 1.894039 0.002448
v 0.914794 -1.906919 -0.836178
v 0.915447 -1.346205 -0.590180
v 0.914288 -1.094894 -0.000000
v 0.915450 -1.346220 0.590167
v 0.914683 -1.905784 0.836161
v 0.906086 0.470254 0.593515
v 0.905884 0.717158 -0.000007
v 0.906194 0.459354 -0.617122
v 0.905337 -0.125908 -0.873730
v 0.905313 -0.124289 0.872600
v 0.910510 1.881932 -0.851830
v 0.911481 2.460294 -0.578674
v 0.911361 2.700734 0.000045
v 0.911619 2.449646 0.601686
v 0.910597 1.880999 0.852562
v 0.930556 -1.954598 -0.724497
v 0.929401 -1.432549 -0.504481
v 0.925262 -1.216853 -0.000001
v 0.929395 -1.432599 0.504500
v 0.930435 -1.953553 0.724517
v 0.917890 0.382429 0.509007
v 0.914318 0.594998 0.000054
v 0.918114 0.372706 -0.531423
v 0.919678 -0.173636 -0.761878
v 0.919463 -0.174992 0.762041
v 0.925214 1.831119 -0.741393
v 0.923747 2.372426 -0.494275
v 0.920142 2.578598 -0.000027
v 0.923998 2.362965 0.516085
v 0.925463 1.833160 0.740826
vt 0.918409 0.015476
vt 0.993867 0.015222
vt 0.598843 0.105012
vt 0.523356 0.105157
vt 0.599112 0.218946
vt 0.609393 0.222902
vt 0.684849 0.222626
vt 0.523754 0.219176
vt 0.609184 0.165863
vt 0.684636 0.165581
vt 0.598981 0.161963
vt 0.740261 0.165380
vt 0.740474 0.222416
vt 0.468144 0.219362
vt 0.467704 0.105339
vt 0.862775 0.015673
vt 0.278219 0.359487
vt 0.253772 0.335190
vt 0.556695 0.195090
vt 0.464774 0.162369
vt 0.795681 0.108243
vt 0.412058 0.105581
vt 0.348855 0.105927
vt 0.744328 0.016071
vt 0.349549 0.219954
vt 0.412486 0.219610
vt 0.404961 0.095409
vt 0.858914 0.221988
vt 0.795887 0.165174
vt 0.858710 0.165003
vt 0.349228 0.162879
vt 0.447287 0.197382
vt 0.232324 0.323984
vt 0.257956 0.294017
vt 0.279575 0.095879
vt 0.204122 0.096161
vt 0.211479 0.220617
vt 0.286913 0.220283
vt 0.210939 0.106703
vt 0.996499 0.107504
vt 0.921061 0.107792
vt 0.286326 0.106309
vt 0.996715 0.164541
vt 0.921269 0.164825
vt 0.211209 0.163702
vt 0.148424 0.225911
vt 0.148552 0.262870
vt 0.320639 0.196959
vt 0.249489 0.345255
vt 0.220778 0.344581
vt 0.268201 0.391300
vt 0.268097 0.363720
vt 0.248766 0.410866
vt 0.221202 0.410967
vt 0.201635 0.391546
vt 0.201525 0.363979
vt 0.224169 0.241828
vt 0.197985 0.241928
vt 0.178572 0.261484
vt 0.178667 0.289035
vt 0.198219 0.308455
vt 0.225782 0.308357
vt 0.245201 0.288793
vt 0.245091 0.261481
vt 0.070667 0.257079
vt 0.090477 0.277867
vt 0.089998 0.211316
vt 0.070580 0.230880
vt 0.117569 0.211215
vt 0.137152 0.230635
vt 0.137252 0.258218
vt 0.117797 0.277780
vt 0.234917 0.377776
vt 0.211740 0.275200
vt 0.103989 0.244398
vt 0.396506 0.640528
vt 0.319625 0.342262
vt 0.367304 0.667996
vt 0.340130 0.697471
vt 0.316564 0.727537
vt 0.365845 0.659085
vt 0.393507 0.629948
vt 0.278662 0.329846
vt 0.335492 0.687818
vt 0.505775 0.183294
vt 0.009706 0.048844
vt 0.188903 0.442879
vt 0.008967 0.128719
vt 0.008235 0.087984
vt 0.012422 0.167410
vt 0.343896 0.369102
vt 0.315132 0.348456
vt 0.350240 0.402798
vt 0.330323 0.430717
vt 0.295611 0.437370
vt 0.291132 0.421218
vt 0.310863 0.392991
vt 0.304386 0.357555
vt 0.274195 0.336064
vt 0.253741 0.429417
vt 0.158336 0.420396
vt 0.192123 0.435935
vt 0.158802 0.357238
vt 0.145401 0.389526
vt 0.191811 0.342958
vt 0.191532 0.395769
vt 0.362609 0.162819
vt 0.447025 0.127491
vt 0.192985 0.321206
vt 0.278336 0.395463
vt 0.557095 0.130510
vt 0.570242 0.162091
vt 0.320257 0.129221
vt 0.122505 0.289063
vt 0.334476 0.162992
vt 0.140206 0.094097
vt 0.083273 0.094304
vt 0.744588 0.095907
vt 0.682033 0.096106
vt 0.341836 0.015804
vt 0.279280 0.016041
vt 0.606595 0.096341
vt 0.807414 0.095704
vt 0.460288 0.015360
vt 0.404661 0.015571
vt 0.515913 0.015152
vt 0.087101 0.186429
vt 0.144032 0.186229
vt 0.591366 0.014870
vt 0.152812 0.425689
vt 0.137748 0.389536
vt 0.153330 0.351891
vt 0.188750 0.335941
vt 0.013937 0.009091
vt 0.318339 0.394620
vt 0.310864 0.353476
vt 0.255420 0.436889
vt 0.295407 0.427561
vt 0.304675 0.713228
vt 0.334499 0.437128
vt 0.297089 0.444881
vt 0.357715 0.404445
vt 0.350379 0.365036
vt 0.426388 0.616622
vt 0.858508 0.108018
vt 0.681776 0.016274
vt 0.342135 0.095645
vt 0.921476 0.221761
vt 0.996927 0.221480
vt 0.139905 0.014258
vt 0.196948 0.014043
vt 0.740055 0.108444
vt 0.807151 0.015864
vt 0.460590 0.095202
vt 0.796094 0.222214
vt 0.516213 0.094991
vt 0.684424 0.108644
vt 0.086815 0.106588
vt 0.608966 0.108923
vt 0.143753 0.106388
vt 0.200787 0.106187
vt 0.591660 0.094709
vt 0.201073 0.186026
vt 0.994137 0.095068
vt 0.197248 0.093879
vt 0.606339 0.016518
vt 0.082977 0.014461
vt 0.203822 0.016322
vt 0.216648 0.334332
vt 0.252995 0.420976
vt 0.217039 0.421106
vt 0.191391 0.359823
vt 0.257810 0.255947
vt 0.165823 0.256255
vt 0.412387 0.211995
vt 0.229202 0.229062
vt 0.085634 0.289200
vt 0.059261 0.226238
vt 0.043328 0.124972
vt 0.122199 0.199904
vt 0.252266 0.195900
vt 0.505679 0.142246
vt 0.411655 0.105495
vt 0.523369 0.115554
vt 0.345613 0.746561
vt 0.523782 0.208790
vt 0.445701 0.645479
vt 0.490758 0.195275
vt 0.417778 0.667745
vt 0.476978 0.162324
vt 0.391738 0.692188
vt 0.367556 0.718468
vt 0.490502 0.129273
vt 0.540360 0.180413
vt 0.412059 0.113189
vt 0.411688 0.113097
vt 0.341525 0.634717
vt 0.192663 0.229216
vt 0.314043 0.660710
vt 0.377303 0.197708
vt 0.165953 0.294351
vt 0.284848 0.684723
vt 0.366460 0.608418
vt 0.540232 0.141440
vt 0.376227 0.129232
vt 0.048032 0.015606
vt 0.286866 0.211146
vt 0.238698 0.163516
vt 0.042662 0.088316
vt 0.085276 0.200037
vt 0.252542 0.129601
vt 0.046627 0.161483
vt 0.286316 0.115438
vt 0.059359 0.261628
vt 0.043988 0.053220
vt 0.863049 0.095527
vt 0.918680 0.095325
vn 0.000000 0.000000 1.000000
vn 0.000000 0.000000 1.000000
vn 0.000000 0.000000 1.000000
vn 0.000000 0.000000 1.000000
vn 0.000000 0.000000 -1.000000
vn 0.000000 0.000000 -1.000000
vn 0.000000 0.000000 -1.000000
vn 0.000000 0.000000 -1.000000
vn -1.000000 0.000000 0.000000
vn -1.000000 0.000000 0.000000
vn -1.000000 0.000000 0.000000
vn -1.000000 0.000000 0.000000
vn 0.000000 -1.000000 0.000000
vn 0.000000 -1.000000 0.000000
vn 0.000000 -1.000000 0.000000
vn 0.000000 -1.000000 0.000000
vn -1.000000 0.000000 0.000000
vn -1.000000 0.000000 0.000000
vn 0.000000 0.000000 -1.000000
vn 0.000000 0.000000 -1.000000
vn 0.000000 0.000000 1.000000
vn 0.000000 0.000000 1.000000
vn 0.000000 -1.000000 0.000000
vn 0.000000 -1.000000 0.000000
vn -1.000000 0.000000 0.000000
vn -1.000000 0.000000 0.000000
vn -1.000000 0.000000 0.000000
vn 0.999454 -0.033029 -0.000074
vn 0.998585 -0.053169 -0.000293
vn 0.998114 -0.039398 0.047070
vn 0.999462 -0.026387 0.019493
vn 0.998082 -0.039329 -0.047800
vn 0.999462 -0.027008 -0.018602
vn 0.998039 -0.007827 -0.062105
vn 0.998039 -0.007827 -0.062105
vn 0.997829 0.010038 -0.065091
vn 0.997829 0.010038 -0.065091
vn 0.997829 0.010038 -0.065091
vn 0.997829 0.010038 -0.065091
vn 0.998498 0.053171 -0.013195
vn 0.998498 0.053171 -0.013195
vn 0.998498 0.053171 -0.013195
vn 0.998498 0.053171 -0.013195
vn 0.997838 0.009946 0.064964
vn 0.997838 0.009946 0.064964
vn 0.997838 0.009946 0.064964
vn 0.997838 0.009946 0.064964
vn 0.998223 -0.008148 0.059028
vn 0.998223 -0.008148 0.059028
vn 0.998498 0.053169 0.013195
vn 0.998498 0.053169 0.013195
vn 0.998498 0.053169 0.013195
vn 0.998498 0.053169 0.013195
vn 0.000000 0.000001 1.000000
vn 0.000000 0.000001 1.000000
vn 0.000000 0.000001 1.000000
vn 0.000000 0.000001 1.000000
vn 0.000000 0.000000 -1.000000
vn 0.000000 0.000000 -1.000000
vn 0.000000 0.000000 -1.000000
vn 0.000000 0.000000 -1.000000
vn -1.000000 0.000000 0.000000
vn -1.000000 0.000000 0.000000
vn -1.000000 0.000000 0.000000
vn -1.000000 0.000000 0.000000
vn -1.000000 0.000000 0.000000
vn -1.000000 0.000000 0.000000
vn 0.000000 0.000000 -1.000000
vn 0.000000 0.000000 -1.000000
vn 0.000000 0.000000 1.000000
vn 0.000000 0.000000 1.000000
vn -1.000000 0.000000 0.000000
vn -1.000000 0.000000 0.000000
vn -1.000000 0.000000 0.000000
vn 0.999640 0.026505 0.004101
vn 0.999640 0.026505 0.004101
vn 0.999640 0.026505 0.004101
vn 0.999640 0.026505 0.004101
vn 0.999380 0.005155 -0.034830
vn 0.999380 0.005155 -0.034830
vn 0.999380 0.005155 -0.034830
vn 0.999380 0.005155 -0.034830
vn 0.996345 -0.057952 -0.062763
vn 0.999646 -0.012946 -0.023239
vn 0.999348 -0.005698 -0.035659
vn 0.999348 -0.005698 -0.035659
vn 0.989210 -0.146506 0.000006
vn 0.999351 -0.005650 0.035584
vn 0.999648 -0.012918 0.023190
vn 0.996352 -0.057930 0.062667
vn 0.999351 -0.005650 0.035584
vn 0.999443 0.005327 0.032938
vn 0.999443 0.005327 0.032938
vn 0.999443 0.005327 0.032938
vn 0.999443 0.005327 0.032938
vn 0.999645 0.026326 -0.004143
vn 0.999645 0.026326 -0.004143
vn 0.999645 0.026326 -0.004143
vn 0.999645 0.026326 -0.004143
vn 0.000000 0.000000 -1.000000
vn 0.000000 0.000000 -1.000000
vn 0.000000 0.000000 -1.000000
vn 0.000000 0.000000 -1.000000
vn -0.000001 0.000000 1.000000
vn -0.000001 0.000000 1.000000
vn -0.000001 -0.000000 1.000000
vn -0.000001 -0.000000 1.000000
vn -1.000000 0.000000 0.000000
vn -1.000000 0.000000 0.000000
vn -1.000000 -0.000000 0.000000
vn -1.000000 -0.000000 0.000000
vn 0.000000 1.000000 0.000000
vn 0.000000 1.000000 0.000000
vn 0.000000 1.000000 0.000000
vn 0.000000 1.000000 0.000000
vn -1.000000 -0.000000 0.000000
vn -1.000000 -0.000000 0.000000
vn -0.000001 -0.000001 1.000000
vn -0.000001 -0.000001 1.000000
vn 0.000000 0.000000 -1.000000
vn 0.000000 0.000000 -1.000000
vn 0.000000 1.000000 0.000000
vn 0.000000 1.000000 0.000000
vn -1.000000 0.000000 0.000000
vn -1.000000 -0.000000 0.000000
vn -1.000000 -0.000000 0.000000
vn 0.999653 0.026027 -0.003972
vn 0.999653 0.026027 -0.003972
vn 0.999653 0.026027 -0.003972
vn 0.999653 0.026027 -0.003972
vn 0.998721 0.006437 0.050153
vn 0.998721 0.006437 0.050153
vn 0.998721 0.006437 0.050153
vn 0.998721 0.006437 0.050153
vn 0.997346 -0.050030 0.052889
vn 0.998634 -0.007522 0.051705
vn 0.998634 -0.007522 0.051705
vn 0.999340 -0.027557 0.023663
vn 0.999199 -0.040025 0.000007
vn 0.997375 -0.072416 -0.000004
vn 0.998640 -0.007455 -0.051607
vn 0.998640 -0.007455 -0.051607
vn 0.997352 -0.050010 -0.052793
vn 0.999342 -0.027545 -0.023613
vn 0.998847 0.006676 -0.047532
vn 0.998847 0.006676 -0.047532
vn 0.998847 0.006676 -0.047532
vn 0.998847 0.006676 -0.047532
vn 0.999655 0.025957 0.004006
vn 0.999655 0.025957 0.004006
vn 0.999655 0.025957 0.004006
vn 0.999655 0.025957 0.004006
vn 0.968981 -0.100884 0.225606
vn 0.989177 -0.103534 0.103968
vn 0.989191 -0.003245 0.146594
vn 0.989220 -0.103562 -0.103527
vn 0.989230 -0.146363 -0.001361
vn 0.968981 -0.094575 -0.228323
vn 0.989207 -0.000001 -0.146522
vn 0.968981 0.094575 -0.228323
vn 0.968981 0.094575 -0.228323
vn 0.989219 0.103567 -0.103533
vn 0.968981 0.228322 -0.094574
vn 0.968981 0.228322 -0.094574
vn 0.989249 0.146240 0.000034
vn 0.968981 0.228323 0.094574
vn 0.968981 0.228323 0.094574
vn 0.989261 0.103422 0.103275
vn 0.968981 0.094574 0.228323
vn 0.968981 0.094574 0.228323
vn 0.968981 0.228324 0.094575
vn 0.968981 0.228324 0.094575
vn 0.987392 0.111739 0.112124
vn 0.987448 0.157940 -0.001475
vn 0.968981 0.094575 -0.228324
vn 0.968981 0.094575 -0.228324
vn 0.987438 0.111741 -0.111711
vn 0.987425 0.000001 -0.158086
vn 0.968981 -0.094575 -0.228324
vn 0.987604 -0.111017 -0.110969
vn 0.988210 -0.153107 0.000023
vn 0.968981 -0.094575 0.228323
vn 0.987645 -0.110898 0.110722
vn 0.987436 0.003438 0.157984
vn 0.968981 0.100884 0.225607
vn 0.968981 0.100884 0.225607
vn 0.968981 0.228324 -0.094575
vn 0.968981 0.228324 -0.094575
vn 0.968981 0.100884 -0.225606
vn 0.968981 0.100884 -0.225606
vn 0.988335 0.107481 -0.107895
vn 0.988362 0.003341 -0.152083
vn 0.968981 0.228323 0.094574
vn 0.968981 0.228323 0.094574
vn 0.988379 0.107502 0.107469
vn 0.988389 0.151938 0.001417
vn 0.968981 0.094574 0.228322
vn 0.968981 0.094574 0.228323
vn 0.988366 0.000001 0.152093
vn 0.968981 -0.094575 0.228323
vn 0.988378 -0.107507 0.107475
vn 0.988408 -0.151820 -0.000032
vn 0.988421 -0.107374 -0.107216
vn 0.968981 -0.094574 -0.228323
vn 0.968981 0.228322 -0.094574
vn 0.968981 0.228322 -0.094574
vn 1.000000 0.000098 0.000068
vn 1.000000 -0.000098 0.000068
vn 1.000000 -0.000098 -0.000068
vn -0.128717 0.389371 -0.912043
vn -0.128717 0.389371 -0.912043
vn -0.128717 0.389371 -0.912043
vn -0.128717 0.389371 -0.912043
vn -0.082669 0.918684 -0.386245
vn -0.082669 0.918684 -0.386245
vn -0.082669 0.918684 -0.386245
vn -0.082669 0.918684 -0.386245
vn -0.082652 0.918679 0.386261
vn -0.082652 0.918679 0.386261
vn -0.082652 0.918679 0.386261
vn -0.082652 0.918679 0.386261
vn -0.128631 0.390103 0.911742
vn -0.128631 0.390103 0.911742
vn -0.128631 0.390103 0.911742
vn -0.128631 0.390103 0.911742
vn -0.063975 0.921749 0.382473
vn -0.063975 0.921749 0.382473
vn -0.063975 0.921749 0.382473
vn -0.063975 0.921749 0.382473
vn -0.117111 0.389769 -0.913436
vn -0.117111 0.389769 -0.913436
vn -0.117111 0.389769 -0.913436
vn -0.117111 0.389769 -0.913436
vn -0.115557 0.414066 0.902882
vn -0.115557 0.414066 0.902882
vn -0.115557 0.414066 0.902882
vn -0.115557 0.414066 0.902882
vn -0.063276 0.921415 -0.383393
vn -0.063276 0.921415 -0.383393
vn -0.063276 0.921415 -0.383393
vn -0.063276 0.921415 -0.383393
vn -0.120079 0.414966 -0.901878
vn -0.120079 0.414966 -0.901878
vn -0.120079 0.414966 -0.901878
vn -0.120079 0.414966 -0.901878
vn -0.065982 0.921325 0.383154
vn -0.065982 0.921325 0.383154
vn -0.065982 0.921325 0.383154
vn -0.065982 0.921325 0.383154
vn -0.121397 0.390676 0.912488
vn -0.121397 0.390676 0.912488
vn -0.121397 0.390676 0.912488
vn -0.121397 0.390676 0.912488
vn -0.066520 0.921734 -0.382075
vn -0.066520 0.921734 -0.382075
vn -0.066520 0.921734 -0.382075
vn -0.066520 0.921734 -0.382075
vn 0.992063 0.050100 -0.115334
vn 0.994048 0.076109 -0.077945
vn 0.994046 0.076052 -0.078028
vn 0.992063 0.050100 -0.115334
vn 0.994690 0.102918 -0.000004
vn 0.994690 0.102918 -0.000004
vn 0.994056 0.076052 0.077899
vn 0.994054 0.075994 0.077983
vn 0.992070 0.049988 0.115323
vn 0.992070 0.049988 0.115323
vn 0.996483 0.083796 -0.000732
vn 0.995688 0.064024 0.067128
vn 0.995688 0.064029 0.067118
vn 0.996483 0.083796 -0.000735
vn 0.993804 0.044466 -0.101865
vn 0.995671 0.063986 -0.067412
vn 0.995672 0.063995 -0.067396
vn 0.993804 0.044466 -0.101865
vn 0.993978 0.046520 0.099213
vn 0.993978 0.046520 0.099213
vn 0.993495 0.048350 -0.103107
vn 0.995338 0.066547 -0.069808
vn 0.995339 0.066565 -0.069775
vn 0.993495 0.048350 -0.103107
vn 0.996199 0.087109 0.000736
vn 0.995332 0.066484 0.069962
vn 0.995333 0.066507 0.069921
vn 0.996199 0.087109 0.000737
vn 0.993329 0.046158 0.105679
vn 0.993329 0.046158 0.105679
s 1
g Street_lights
f 5/1/1 1/2/2 2/164/3 8/217/4
s 2
f 3/129/5 4/162/6 6/156/7 7/126/8
s 3
f 4/6/9 10/9/10 11/10/11 6/7/12
s 4
f 9/128/13 10/160/14 4/161/15 3/163/16
s 3
f 6/7/12 11/10/11 21/12/17 22/13/18
s 2
f 7/126/8 6/156/7 22/154/19 23/124/20
s 1
f 5/1/1 8/217/4 19/216/21 20/16/22
s 4
f 1/158/23 10/160/14 9/128/13 2/127/24
s 3
f 10/9/10 1/159/25 5/157/26 11/10/11
f 11/10/11 5/157/26 20/152/27 21/12/17
s 5
f 9/11/28 13/112/29 25/111/30 2/3/31
f 14/19/32 3/5/33 7/8/34 15/186/35
s off
f 16/188/36 15/186/37 7/8/38 23/14/39
f 23/14/40 24/20/41 17/190/42 16/188/43
f 8/4/44 12/184/45 18/193/46 19/15/47
s 5
f 8/4/48 2/3/31 25/111/30 12/184/49
f 3/5/33 14/19/32 13/112/29 9/11/28
s off
f 24/20/50 19/15/51 18/193/52 17/190/53
s 6
f 30/153/54 33/123/55 27/118/56 26/24/57
s 7
f 28/120/58 32/125/59 31/27/60 29/147/61
s 8
f 29/28/62 31/155/63 36/29/64 35/30/65
f 31/155/63 22/13/66 21/12/67 36/29/64
s 7
f 32/125/59 23/124/68 22/154/69 31/27/60
s 6
f 30/153/54 20/16/70 19/216/71 33/123/55
s 8
f 35/30/65 36/29/64 30/21/72 26/145/73
f 36/29/64 21/12/67 20/152/74 30/21/72
s off
f 34/31/75 27/23/76 43/205/77 38/107/78
f 39/200/79 40/175/80 32/26/81 28/25/82
s 9
f 41/32/83 23/14/84 32/26/85 40/175/86
f 23/14/84 41/32/83 24/20/87
f 33/22/88 19/15/89 42/108/90 37/195/91
s off
f 33/183/92 37/196/93 43/205/94 27/23/95
f 28/25/96 34/31/97 38/107/98 39/200/99
s 9
f 24/20/87 42/108/90 19/15/89
s 11
f 48/35/100 44/36/101 45/168/102 51/121/103
s 12
f 46/122/104 47/166/105 49/146/106 50/119/107
s 13
f 47/40/108 53/43/109 54/44/110 49/41/111
s 14
f 52/116/112 53/150/113 47/151/114 46/165/115
s 13
f 49/41/111 54/44/110 35/30/116 26/145/117
s 12
f 50/119/107 49/146/106 26/24/118 27/118/119
s 11
f 48/35/100 51/121/103 28/120/120 29/147/121
s 14
f 44/167/122 53/150/113 52/116/112 45/117/123
s 13
f 53/43/109 44/149/124 48/148/125 54/44/110
f 54/44/110 48/148/125 29/28/126 35/30/116
s off
f 52/45/127 56/208/128 62/181/129 45/37/130
f 57/211/131 46/39/132 50/42/133 58/213/134
s 15
f 59/113/135 58/213/136 50/42/137 27/23/138
f 27/23/138 34/31/139 60/115/140 59/113/135
f 51/38/141 55/207/142 61/48/143 28/25/144
s off
f 51/38/145 45/37/146 62/181/147 55/207/148
f 46/39/149 57/211/150 56/208/151 52/45/152
s 15
f 34/31/139 28/25/144 61/48/143 60/115/140
s 5
f 12/169/153 25/18/30 64/49/154 63/50/155
f 13/17/29 14/110/32 66/51/156 65/52/157
f 14/110/32 15/170/158 67/53/159 66/51/156
f 15/170/160 16/171/161 68/54/162 67/53/159
f 16/171/163 17/106/164 69/55/165 68/54/162
f 17/106/166 18/172/167 70/56/168 69/55/165
f 18/172/169 12/169/170 63/50/155 70/56/168
f 25/18/30 13/17/29 65/52/157 64/49/154
s 9
f 38/198/171 43/176/172 71/57/173 72/58/174
f 40/201/175 39/174/176 73/59/177 74/60/178
f 41/109/83 40/201/179 74/60/178 75/61/180
f 24/33/87 41/109/83 75/61/180 76/62/181
f 37/173/182 42/34/90 77/63/183 78/64/184
f 43/176/185 37/173/186 78/64/184 71/57/173
f 39/174/187 38/198/188 72/58/174 73/59/177
f 42/34/90 24/33/87 76/62/181 77/63/183
s 15
f 55/177/189 62/214/190 80/65/191 79/66/192
f 56/178/193 57/210/194 82/67/195 81/68/196
f 57/210/197 58/180/198 83/69/199 82/67/195
f 58/180/200 59/46/135 84/70/201 83/69/199
f 59/46/135 60/47/140 85/71/202 84/70/201
f 60/47/140 61/114/143 86/72/203 85/71/202
f 61/114/143 55/177/204 79/66/192 86/72/203
f 62/214/205 56/178/206 81/68/196 80/65/191
s 5
f 63/50/155 64/49/154 87/73/207
f 65/52/157 66/51/156 87/73/207
f 66/51/156 67/53/159 87/73/207
f 67/53/159 68/54/162 87/73/207
f 68/54/162 69/55/165 87/73/207
f 69/55/165 70/56/168 87/73/207
f 70/56/168 63/50/155 87/73/207
f 64/49/154 65/52/157 87/73/207
s 9
f 72/58/174 71/57/173 88/74/208
f 74/60/178 73/59/177 88/74/208
f 75/61/180 74/60/178 88/74/208
f 76/62/181 75/61/180 88/74/208
f 78/64/184 77/63/183 88/74/208
f 71/57/173 78/64/184 88/74/208
f 73/59/177 72/58/174 88/74/208
f 77/63/183 76/62/181 88/74/208
s 15
f 79/66/192 80/65/191 89/75/209
f 81/68/196 82/67/195 89/75/209
f 82/67/195 83/69/199 89/75/209
f 83/69/199 84/70/201 89/75/209
f 84/70/201 85/71/202 89/75/209
f 85/71/202 86/72/203 89/75/209
f 86/72/203 79/66/192 89/75/209
f 80/65/191 81/68/196 89/75/209
s off
f 15/187/210 16/189/211 91/76/212 90/144/213
f 16/189/214 17/191/215 92/78/216 91/76/217
f 17/191/218 18/192/219 93/79/220 92/78/221
f 18/192/222 12/185/223 94/80/224 93/79/225
f 43/203/226 95/82/227 96/81/228 38/197/229
f 39/199/230 97/84/231 98/139/232 40/202/233
f 37/194/234 99/85/235 95/182/236 43/204/237
f 38/197/238 96/81/239 97/84/240 39/199/241
f 55/206/242 62/215/243 101/86/244 100/134/245
f 56/209/246 57/179/247 103/88/248 102/89/249
f 57/179/250 58/212/251 104/90/252 103/88/253
f 62/215/254 56/209/255 102/89/256 101/86/257
s 29
f 90/77/258 91/143/259 106/91/260 105/92/261
f 91/143/259 92/142/262 107/93/263 106/91/260
f 92/142/262 93/140/264 108/94/265 107/93/263
f 93/140/264 94/141/266 109/95/267 108/94/265
s 30
f 96/135/268 95/138/269 110/96/270 111/97/271
f 98/83/272 97/136/273 112/98/274 113/99/275
f 95/138/269 99/137/276 114/100/277 110/96/270
f 97/136/273 96/135/268 111/97/271 112/98/274
s 31
f 100/87/278 101/130/279 116/101/280 115/102/281
f 102/131/282 103/132/283 118/103/284 117/104/285
f 103/132/283 104/133/286 119/105/287 118/103/284
f 101/130/279 102/131/282 117/104/285 116/101/280
