# This file uses centimeters as units for non-parametric coordinates.

mtllib Cup.mtl
g default
v -1.845564 1.835154 -0.112922
v -1.351761 1.835154 -0.791790
v -0.553236 1.835154 -1.050753
v 0.245009 1.835154 -0.790910
v 0.738048 1.835154 -0.111477
v 0.737579 1.835154 0.727982
v 0.243775 1.835154 1.406849
v -0.554748 1.835154 1.665814
v -1.352983 1.835154 1.405959
v -1.846030 1.835154 0.726544
v -1.524317 -1.835154 -0.008345
v -1.153335 -1.835154 -0.518361
v -0.553425 -1.835154 -0.712915
v 0.046284 -1.835154 -0.517695
v 0.416682 -1.835154 -0.007256
v 0.416333 -1.835154 0.623405
v 0.045351 -1.835154 1.133421
v -0.554559 -1.835154 1.327975
v -1.154253 -1.835154 1.132753
v -1.524669 -1.835154 0.622324
v -0.553994 -1.835154 0.307529
v -1.578424 -1.216979 -0.025960
v -1.186755 -1.216979 -0.564413
v -0.553393 -1.216979 -0.769815
v 0.106897 -1.216979 -0.531419
v 0.521366 -1.216979 0.035344
v 0.470440 -1.216979 0.641019
v 0.078769 -1.216979 1.179472
v -0.554593 -1.216979 1.384875
v -1.187725 -1.216979 1.178768
v -1.578793 -1.216979 0.639877
v -1.772334 0.998500 -0.089085
v -1.306529 0.998500 -0.729462
v -0.553279 0.998500 -0.973740
v 0.258398 0.998500 -0.658788
v 0.666021 0.998500 -0.086267
v 0.664349 0.998500 0.704143
v 0.198542 0.998500 1.344520
v -0.554706 0.998500 1.588801
v -1.307682 0.998500 1.343680
v -1.772776 0.998500 0.702788
v -1.609620 -0.860566 -0.036114
v -1.610000 -0.860566 0.649999
v -1.207024 -0.860566 1.205299
v -0.554609 -0.860566 1.417683
v 0.098038 -0.860566 1.206025
v 0.501636 -0.860566 0.651173
v 0.544640 -0.860566 0.015776
v 0.131253 -0.860566 -0.551896
v -0.553377 -0.860566 -0.802624
v -1.206023 -0.860566 -0.590965
v -1.736454 0.588543 -0.077402
v -1.284365 0.588543 -0.698920
v -0.553302 0.588543 -0.936007
v 0.230383 0.588543 -0.635235
v 0.639239 0.588543 -0.063754
v 0.628468 0.588543 0.692462
v 0.176380 0.588543 1.313979
v -0.554684 0.588543 1.551067
v -1.285485 0.588543 1.313167
v -1.736881 0.588543 0.691148
v 0.072267 1.835154 -0.553431
v -0.553401 1.835154 -0.757108
v -1.179292 1.835154 -0.554130
v -1.566341 1.835154 -0.022025
v -1.566707 1.835154 0.635958
v -1.180251 1.835154 1.168491
v -0.554583 1.835154 1.372168
v 0.071306 1.835154 1.169190
v 0.458356 1.835154 0.637085
v 0.458725 1.835154 -0.020890
v -1.010863 -1.368255 -0.322035
v -1.293658 -1.368255 0.066743
v -0.553994 -1.368255 0.307529
v -0.553561 -1.368255 -0.470340
v -0.096422 -1.368255 -0.321527
v 0.185941 -1.368255 0.067565
v 0.185674 -1.368255 0.548317
v -0.097122 -1.368255 0.937095
v -0.554425 -1.368255 1.085400
v -1.011565 -1.368255 0.936588
v -1.293926 -1.368255 0.547493
v 0.885702 -0.899673 -0.270959
v 0.472310 -0.899673 -0.838625
v 0.862434 -1.256086 -0.251399
v 0.447956 -1.256086 -0.818150
v 0.599467 0.959396 -0.945533
v 1.007074 0.959396 -0.372999
v 0.980308 0.549438 -0.350499
v 0.571429 0.549438 -0.921957
v 1.124123 -0.686587 -0.471407
v 0.710755 -0.686587 -1.039092
v 1.100862 -1.043000 -0.451851
v 0.686373 -1.043000 -1.018594
v 0.837901 0.715803 -1.145986
v 1.245504 0.715803 -0.573451
v 1.218737 0.305846 -0.550947
v 0.809853 0.305846 -1.122406
v 1.258614 -0.502411 -0.584474
v 0.845226 -0.502411 -1.152144
v 1.276444 -0.890937 -0.567554
v 0.861952 -0.890937 -1.134295
v 1.012559 0.524428 -1.253437
v 1.420153 0.524428 -0.680894
v 1.342659 0.054332 -0.655132
v 0.933769 0.054332 -1.226588
v 1.485874 -0.528472 -0.775537
v 1.072515 -0.528472 -1.343230
v 1.429996 -0.713900 -0.687536
v 1.015498 -0.713900 -1.254273
v 1.115027 0.295954 -1.336162
v 1.522625 0.295954 -0.763621
v 1.569943 0.028273 -0.846215
v 1.161051 0.028273 -1.417665
v 0.889491 -0.224039 -1.189358
v 1.300624 -0.224039 -0.619793
v 1.527909 -0.250100 -0.810877
v 1.116793 -0.250100 -1.380456
vt 0.851592 0.007181
vt 0.807801 0.021403
vt 0.780733 0.058649
vt 0.780727 0.104691
vt 0.807786 0.141944
vt 0.851573 0.156177
vt 0.895364 0.141955
vt 0.922432 0.104709
vt 0.922437 0.058667
vt 0.895379 0.021414
vt 0.801918 0.301624
vt 0.852884 0.081851
vt 0.640682 0.322578
vt 0.646093 0.516229
vt 0.640748 0.495152
vt 0.636571 0.473812
vt 0.633576 0.452275
vt 0.631772 0.430605
vt 0.631165 0.408869
vt 0.631756 0.387132
vt 0.633543 0.365461
vt 0.636521 0.343921
vt 0.801499 0.301046
vt 0.741403 0.456278
vt 0.801239 0.301403
vt 0.801239 0.301845
vt 0.801499 0.302202
vt 0.801918 0.302338
vt 0.802338 0.302202
vt 0.802598 0.301845
vt 0.802598 0.301403
vt 0.802338 0.301046
vt 0.817255 0.128915
vt 0.796046 0.099716
vt 0.851575 0.140071
vt 0.885899 0.128924
vt 0.907115 0.099730
vt 0.907119 0.063642
vt 0.885911 0.034443
vt 0.851590 0.023287
vt 0.817266 0.034434
vt 0.796050 0.063627
vt 0.646011 0.301497
vt 0.801918 0.300910
vt 0.739215 0.440542
vt 0.737896 0.424709
vt 0.737453 0.408828
vt 0.737884 0.392946
vt 0.739190 0.377112
vt 0.741366 0.361374
vt 0.744406 0.345780
vt 0.748360 0.487270
vt 0.748300 0.330377
vt 0.744454 0.471870
vt 0.823083 0.040839
vt 0.852880 0.031155
vt 0.804668 0.066189
vt 0.804671 0.097521
vt 0.823089 0.122868
vt 0.852888 0.132547
vt 0.882686 0.122863
vt 0.901101 0.097514
vt 0.901098 0.066181
vt 0.882680 0.040835
vt 0.776585 0.506851
vt 0.784188 0.544006
vt 0.746051 0.550960
vt 0.737707 0.512519
vt 0.798156 0.500951
vt 0.806232 0.539978
vt 0.790449 0.585144
vt 0.751923 0.589745
vt 0.730413 0.731460
vt 0.896054 0.523413
vt 0.812717 0.582424
vt 0.769207 0.479798
vt 0.790837 0.473957
vt 0.911038 0.470310
vt 0.921457 0.518709
vt 0.903512 0.571078
vt 0.707258 0.731291
vt 0.707255 0.779252
vt 0.962073 0.457660
vt 0.973234 0.509007
vt 0.929171 0.567777
vt 0.981503 0.560995
vt 0.794486 0.711006
vt 0.791135 0.753446
vt 0.751527 0.749198
vt 0.754920 0.708843
vt 0.817263 0.712180
vt 0.813914 0.755826
vt 0.785533 0.795784
vt 0.746111 0.789530
vt 0.795543 0.668711
vt 0.756215 0.668705
vt 0.909660 0.716349
vt 0.906249 0.765137
vt 0.808200 0.799367
vt 0.818215 0.668617
vt 0.935790 0.717408
vt 0.932364 0.767682
vt 0.900058 0.813781
vt 0.910321 0.667627
vt 0.989110 0.719416
vt 0.985675 0.772767
vt 0.926048 0.817812
vt 0.936353 0.667222
vt 0.979092 0.825975
vt 0.989450 0.666212
vt 0.934237 0.244310
vt 0.908429 0.244455
vt 0.909697 0.228264
vt 0.935074 0.228095
vt 0.910550 0.214775
vt 0.935619 0.214600
vt 0.911019 0.205761
vt 0.935886 0.205579
vt 0.908428 0.146263
vt 0.932872 0.145960
vt 0.934275 0.161489
vt 0.909815 0.161740
vt 0.935290 0.175208
vt 0.910781 0.175464
vt 0.935883 0.185625
vt 0.911293 0.185877
vt 0.777745 0.837761
vt 0.738788 0.829479
vt 0.800151 0.842519
vt 0.767086 0.881311
vt 0.729417 0.868747
vt 0.891129 0.862062
vt 0.788973 0.887742
vt 0.916856 0.867581
vt 0.878140 0.914077
vt 0.781001 0.915000
vt 0.759152 0.908599
vt 0.969429 0.878815
vt 0.903301 0.921542
vt 0.790445 0.937140
vt 0.768572 0.930669
vt 0.956664 0.931017
vt 0.895219 0.948762
vt 0.870129 0.941322
vt 0.799776 0.950460
vt 0.775404 0.945704
vt 0.876152 0.965109
vt 0.850996 0.957711
vt 0.783987 0.960108
vt 0.861660 0.975520
vt 0.833205 0.964678
vt 0.794485 0.968721
vt 0.845737 0.980895
vt 0.816500 0.957543
vt 0.811153 0.975789
vt 0.827798 0.982907
vt 0.794230 0.626711
vt 0.755276 0.628956
vt 0.816710 0.625328
vt 0.908262 0.619167
vt 0.934137 0.617316
vt 0.986875 0.613403
vt 0.800532 0.452328
vt 0.778865 0.458205
vt 0.785882 0.443516
vt 0.809964 0.439424
vt 0.794629 0.429504
vt 0.805186 0.421343
vt 0.821809 0.414978
vt 0.826588 0.433058
vt 0.838433 0.408614
vt 0.843212 0.426694
vt 0.856061 0.411250
vt 0.871554 0.417057
vt 0.885483 0.427810
vt 0.860450 0.434114
vt 0.903711 0.444639
vt 0.878679 0.450944
vt 0.910632 0.471835
vt 0.885600 0.478141
vt 0.935869 0.195575
vt 0.911172 0.195791
vt 0.984865 0.132060
vt 0.946625 0.132100
vt 0.951836 0.098264
vt 0.986190 0.098253
vt 0.991118 0.384145
vt 0.945394 0.384144
vt 0.946586 0.338408
vt 0.984869 0.338428
vt 0.989615 0.216784
vt 0.951367 0.216781
vt 0.949286 0.205385
vt 0.987528 0.205347
vt 0.987873 0.263036
vt 0.949594 0.263013
vt 0.951775 0.247689
vt 0.990049 0.247749
vt 0.986541 0.156360
vt 0.948296 0.156411
vt 0.948541 0.314132
vt 0.986819 0.314137
vt 0.987717 0.176883
vt 0.949476 0.176931
vt 0.949900 0.292636
vt 0.988180 0.292644
vt 0.987177 0.191009
vt 0.948933 0.191052
vt 0.949154 0.277374
vt 0.987431 0.277388
vt 0.951571 0.232234
vt 0.989831 0.232268
vt 0.886183 0.477065
vt 0.730404 0.779386
vn -0.946881 -0.091659 -0.308244
vn -0.584862 -0.091660 -0.805937
vn -0.584862 -0.091659 -0.805937
vn -0.946882 -0.091659 -0.308243
vn 0.018739 -0.085168 -0.996190
vn 0.013453 -0.082628 -0.996490
vn 0.379122 -0.363582 -0.850926
vn 0.582104 -0.085290 -0.808629
vn 0.927662 -0.370913 -0.043221
vn 0.939377 -0.116077 -0.322639
vn 0.934379 -0.101993 0.341368
vn 0.936025 -0.112569 0.333445
vn 0.584862 -0.091659 0.805938
vn 0.584862 -0.091655 0.805938
vn -0.000555 -0.091659 0.995790
vn -0.000553 -0.091658 0.995790
vn -0.585759 -0.091660 0.805285
vn -0.585759 -0.091661 0.805286
vn -0.947224 -0.091659 0.307189
vn -0.947224 -0.091660 0.307189
vn -0.000000 1.000000 -0.000000
vn 0.000000 1.000000 0.000000
vn 0.000000 1.000000 0.000000
vn 0.000000 1.000000 0.000000
vn 0.000000 1.000000 0.000000
vn 0.000000 1.000000 0.000000
vn -0.000000 1.000000 -0.000000
vn -0.000000 1.000000 -0.000000
vn -0.000000 1.000000 -0.000000
vn 0.000000 1.000000 0.000000
vn 0.000000 1.000000 0.000000
vn -0.000000 -1.000000 0.000000
vn -0.000000 -1.000000 -0.000000
vn -0.000000 -1.000000 -0.000000
vn -0.000000 -1.000000 -0.000000
vn -0.000000 -1.000000 -0.000000
vn 0.000000 -1.000000 0.000000
vn -0.000000 -1.000000 -0.000000
vn -0.000000 -1.000000 -0.000000
vn 0.000000 -1.000000 0.000000
vn 0.000000 -1.000000 0.000000
vn -0.000000 -1.000000 0.000000
vn -0.946882 -0.091659 -0.308243
vn -0.584863 -0.091659 -0.805937
vn -0.584863 -0.091659 -0.805937
vn -0.946882 -0.091659 -0.308243
vn 0.037418 -0.089381 -0.995294
vn 0.034540 -0.089315 -0.995404
vn 0.500199 -0.085360 -0.861693
vn 0.510322 -0.085744 -0.855698
vn 0.979932 -0.081892 -0.181735
vn 0.979108 -0.082380 -0.185906
vn 0.940847 -0.085335 0.327911
vn 0.937676 -0.085093 0.336932
vn 0.584863 -0.091658 0.805937
vn 0.584862 -0.091660 0.805937
vn -0.000554 -0.091658 0.995790
vn -0.000553 -0.091659 0.995790
vn -0.585758 -0.091658 0.805286
vn -0.585758 -0.091659 0.805286
vn -0.947224 -0.091658 0.307190
vn -0.947224 -0.091659 0.307190
vn -0.946882 -0.091659 -0.308242
vn -0.584861 -0.091660 -0.805938
vn -0.584861 -0.091660 -0.805938
vn -0.946882 -0.091659 -0.308243
vn 0.022496 -0.106720 -0.994035
vn 0.029248 -0.101320 -0.994424
vn 0.568811 -0.105164 -0.815717
vn 0.473610 0.093451 -0.875763
vn 0.950752 -0.089101 -0.296870
vn 0.984390 0.092944 -0.149458
vn 0.946754 -0.091268 0.308751
vn 0.946454 -0.089555 0.310169
vn 0.584862 -0.091661 0.805937
vn 0.584862 -0.091660 0.805937
vn -0.000555 -0.091661 0.995790
vn -0.000555 -0.091659 0.995790
vn -0.585758 -0.091659 0.805286
vn -0.585759 -0.091657 0.805286
vn -0.947224 -0.091658 0.307189
vn -0.947224 -0.091657 0.307190
vn 0.770030 -0.306432 -0.559601
vn 0.765486 -0.322987 -0.556517
vn 0.622375 -0.637097 -0.454706
vn 0.633812 -0.619610 -0.462996
vn 0.747773 0.395764 -0.533111
vn 0.744020 0.406386 -0.530362
vn 0.811367 0.063723 -0.581053
vn 0.812189 0.043110 -0.581800
vn 0.000000 1.000000 0.000000
vn -0.000000 1.000000 -0.000000
vn -0.000000 1.000000 -0.000000
vn 0.000000 1.000000 0.000000
vn -0.000000 1.000000 -0.000000
vn -0.000000 1.000000 -0.000000
vn -0.000000 1.000000 -0.000000
vn -0.000000 1.000000 -0.000000
vn -0.000000 1.000000 -0.000000
vn -0.000000 1.000000 -0.000000
vn -0.000000 1.000000 -0.000000
vn -0.000000 1.000000 -0.000000
vn 0.000000 1.000000 0.000000
vn 0.000000 1.000000 0.000000
vn 0.000000 1.000000 0.000000
vn 0.000000 1.000000 0.000000
vn 0.000000 1.000000 0.000000
vn 0.000000 1.000000 0.000000
vn 0.000000 1.000000 0.000000
vn 0.000000 1.000000 0.000000
vn 0.584996 0.089163 0.806120
vn 0.947097 0.089163 0.308314
vn 0.947097 0.089163 0.308314
vn 0.584996 0.089163 0.806121
vn -0.000555 0.089163 0.996017
vn -0.000555 0.089163 0.996017
vn -0.585893 0.089163 0.805468
vn -0.585893 0.089163 0.805469
vn -0.947440 0.089163 0.307259
vn -0.947439 0.089163 0.307260
vn -0.947096 0.089162 -0.308316
vn -0.947096 0.089162 -0.308316
vn -0.584996 0.089163 -0.806120
vn -0.584996 0.089163 -0.806120
vn 0.000554 0.089163 -0.996017
vn 0.000555 0.089163 -0.996017
vn 0.585892 0.089162 -0.805469
vn 0.585892 0.089162 -0.805470
vn 0.947440 0.089162 -0.307259
vn 0.947440 0.089162 -0.307258
vn 0.070847 0.996152 -0.051593
vn 0.070847 0.996152 -0.051593
vn -0.170217 0.977580 0.123950
vn -0.192855 0.971126 0.140436
vn 0.643515 -0.000001 0.765433
vn 0.643517 -0.000001 0.765432
vn 0.192211 -0.971233 -0.140572
vn 0.170263 -0.977500 -0.124521
vn -0.643514 -0.000003 -0.765435
vn -0.643512 -0.000003 -0.765436
vn 0.275543 0.941060 -0.196169
vn 0.296140 0.931585 -0.210832
vn 0.643512 -0.000003 0.765436
vn 0.643513 -0.000004 0.765435
vn -0.071318 -0.996148 0.051026
vn -0.071318 -0.996148 0.051026
vn -0.295292 -0.931753 0.211281
vn -0.275336 -0.940946 0.197003
vn -0.643515 -0.000005 -0.765434
vn -0.643514 -0.000004 -0.765434
vn -0.509495 0.776380 0.371012
vn -0.513743 0.772084 0.374105
vn 0.628672 0.007325 0.777637
vn 0.594927 0.023500 0.803436
vn 0.463427 -0.818758 -0.338925
vn 0.463342 -0.818832 -0.338863
vn -0.594648 -0.023796 -0.803634
vn -0.628702 -0.007364 -0.777612
vn 0.525479 0.764147 -0.374101
vn 0.525717 0.763900 -0.374270
vn 0.590156 -0.012994 0.807185
vn 0.624993 -0.004596 0.780617
vn -0.591760 -0.685961 0.423411
vn -0.585621 -0.693881 0.419018
vn -0.624966 0.004539 -0.780639
vn -0.590476 0.012748 -0.806954
vn -0.721538 0.452484 0.524063
vn -0.725656 0.442362 0.527010
vn 0.567958 0.040646 0.822054
vn 0.617820 0.031560 0.785686
vn 0.509009 -0.776095 -0.372271
vn 0.509364 -0.775738 -0.372530
vn -0.617775 -0.031835 -0.785710
vn -0.567675 -0.040998 -0.822231
vn 0.636475 0.624171 -0.453112
vn 0.635561 0.625572 -0.452462
vn 0.614387 -0.026416 0.788563
vn 0.558154 -0.023771 0.829397
vn -0.797602 -0.191339 0.572031
vn -0.796522 -0.198096 0.571236
vn -0.558530 0.023451 -0.829153
vn -0.614460 0.026137 -0.788515
vn 0.599618 0.098903 0.794152
vn -0.599520 -0.099164 -0.794193
vn -0.645281 -0.030893 -0.763320
vn 0.586024 -0.074188 0.806890
vn 0.640884 -0.033697 0.766898
vn -0.586232 0.073915 -0.806765
vn -0.794792 0.197950 0.573692
vn -0.794769 0.197950 0.573723
vn 0.643516 -0.000002 0.765433
vn 0.643516 -0.000002 0.765433
vn 0.794782 -0.197965 -0.573699
vn 0.794805 -0.197964 -0.573668
vn -0.643514 -0.000004 -0.765434
vn -0.643515 -0.000003 -0.765434
vn -0.640857 0.033947 -0.766910
vn 0.645297 0.031202 0.763294
s 1
g cup
usemtl aiStandardSurface2SG
f 22/88/1 23/93/2 12/94/3 11/89/4
f 23/93/2 24/127/5 13/128/6 12/94/3
f 24/127/5 25/130/7 14/131/8 13/128/6
f 25/183/7 26/184/9 15/185/10 14/186/8
f 26/65/9 27/66/11 16/67/12 15/68/10
f 27/66/11 28/71/13 17/72/14 16/67/12
f 28/71/13 29/157/15 18/158/16 17/72/14
f 29/157/15 30/95/17 19/96/18 18/158/16
f 30/95/17 31/87/19 20/90/20 19/96/18
f 31/87/19 22/88/1 11/89/4 20/90/20
s 2
f 72/23/21 73/44/22 74/11/23
f 75/25/24 72/23/21 74/11/23
f 76/26/25 75/25/24 74/11/23
f 77/27/26 76/26/25 74/11/23
f 78/28/27 77/27/26 74/11/23
f 79/29/28 78/28/27 74/11/23
f 80/30/29 79/29/28 74/11/23
f 81/31/30 80/30/29 74/11/23
f 82/32/31 81/31/30 74/11/23
f 73/44/22 82/32/31 74/11/23
s 3
f 11/56/32 12/64/33 21/12/34
f 12/64/33 13/63/35 21/12/34
f 13/63/35 14/62/36 21/12/34
f 14/62/36 15/61/37 21/12/34
f 15/61/37 16/60/38 21/12/34
f 16/60/38 17/59/39 21/12/34
f 17/59/39 18/58/40 21/12/34
f 18/58/40 19/57/41 21/12/34
f 19/57/41 20/55/42 21/12/34
f 20/55/42 11/56/32 21/12/34
s 1
f 52/98/43 53/103/44 51/99/45 42/92/46
f 53/103/44 54/132/47 50/129/48 51/99/45
f 54/132/47 55/135/49 49/133/50 50/129/48
f 55/81/49 56/73/51 48/214/52 49/82/50
f 56/213/51 57/74/53 47/70/54 48/69/52
f 57/74/53 58/80/55 46/75/56 47/70/54
f 58/80/55 59/160/57 45/159/58 46/75/56
f 59/160/57 60/104/59 44/100/60 45/159/58
f 60/104/59 61/97/61 43/91/62 44/100/60
f 61/97/61 52/98/43 42/92/46 43/91/62
f 1/106/63 2/109/64 33/107/65 32/102/66
f 2/109/64 3/138/67 34/134/68 33/107/65
f 3/138/67 4/142/69 35/139/70 34/134/68
f 4/187/69 5/188/71 36/189/72 35/190/70
f 5/83/71 6/84/73 37/79/74 36/78/72
f 6/84/73 7/86/75 38/85/76 37/79/74
f 7/86/75 8/162/77 39/161/78 38/85/76
f 8/162/77 9/110/79 40/108/80 39/161/78
f 9/110/79 10/105/81 41/101/82 40/108/80
f 10/105/81 1/106/63 32/102/66 41/101/82
f 43/91/62 42/92/46 22/88/1 31/87/19
f 44/100/60 43/91/62 31/87/19 30/95/17
f 45/159/58 44/100/60 30/95/17 29/157/15
f 46/75/56 45/159/58 29/157/15 28/71/13
f 47/70/54 46/75/56 28/71/13 27/66/11
f 48/69/52 47/70/54 27/66/11 26/65/9
f 108/191/83 107/192/84 109/193/85 110/194/86
f 50/129/48 49/133/50 25/130/7 24/127/5
f 51/99/45 50/129/48 24/127/5 23/93/2
f 42/92/46 51/99/45 23/93/2 22/88/1
f 32/102/66 33/107/65 53/103/44 52/98/43
f 33/107/65 34/134/68 54/132/47 53/103/44
f 34/134/68 35/139/70 55/135/49 54/132/47
f 111/195/87 112/196/88 113/197/89 114/198/90
f 36/78/72 37/79/74 57/74/53 56/213/51
f 37/79/74 38/85/76 58/80/55 57/74/53
f 38/85/76 39/161/78 59/160/57 58/80/55
f 39/161/78 40/108/80 60/104/59 59/160/57
f 40/108/80 41/101/82 61/97/61 60/104/59
f 41/101/82 32/102/66 52/98/43 61/97/61
s 8
f 4/4/91 3/3/92 63/42/93 62/34/94
f 3/3/92 2/2/95 64/41/96 63/42/93
f 2/2/95 1/1/97 65/40/98 64/41/96
f 1/1/97 10/10/99 66/39/100 65/40/98
f 10/10/99 9/9/101 67/38/102 66/39/100
f 9/9/101 8/8/103 68/37/104 67/38/102
f 8/8/103 7/7/105 69/36/106 68/37/104
f 7/7/105 6/6/107 70/35/108 69/36/106
f 6/6/107 5/5/109 71/33/110 70/35/108
f 5/5/109 4/4/91 62/34/94 71/33/110
s 9
f 64/15/111 65/16/112 73/24/113 72/54/114
f 63/14/115 64/15/111 72/54/114 75/52/116
f 62/13/117 63/43/115 75/53/116 76/51/118
f 71/22/119 62/13/117 76/51/118 77/50/120
f 70/21/121 71/22/119 77/50/120 78/49/122
f 69/20/123 70/21/121 78/49/122 79/48/124
f 68/19/125 69/20/123 79/48/124 80/47/126
f 67/18/127 68/19/125 80/47/126 81/46/128
f 66/17/129 67/18/127 81/46/128 82/45/130
f 65/16/112 66/17/129 82/45/130 73/24/113
s 10
f 49/111/131 48/112/132 83/113/133 84/114/134
s 1
f 48/69/52 26/65/9 85/76/135 83/77/136
f 26/184/9 25/183/7 86/199/137 85/200/138
f 25/130/7 49/133/50 84/136/139 86/137/140
f 35/190/70 36/189/72 88/201/141 87/202/142
f 36/179/72 56/180/51 89/178/143 88/177/144
s 10
f 56/119/145 55/120/146 90/121/147 89/122/148
s 1
f 55/135/49 35/139/70 87/143/149 90/144/150
s 10
f 84/114/134 83/113/133 91/115/151 92/116/152
s 1
f 83/77/136 85/76/135 93/164/153 91/163/154
f 85/200/138 86/199/137 94/203/155 93/204/156
f 86/137/140 84/136/139 92/140/157 94/141/158
f 87/202/142 88/201/141 96/205/159 95/206/160
f 88/177/144 89/178/143 97/176/161 96/175/162
s 10
f 89/122/148 90/121/147 98/123/163 97/124/164
s 1
f 90/144/150 87/143/149 95/147/165 98/148/166
s 10
f 92/116/152 91/115/151 99/117/167 100/118/168
s 1
f 91/163/154 93/164/153 101/165/169 99/166/170
f 93/204/156 94/203/155 102/207/171 101/208/172
f 94/141/158 92/140/157 100/145/173 102/146/174
f 95/206/160 96/205/159 104/209/175 103/210/176
f 96/175/162 97/176/161 105/172/177 104/174/178
s 10
f 97/124/164 98/123/163 106/125/179 105/126/180
s 1
f 98/148/166 95/147/165 103/150/181 106/151/182
f 99/166/170 101/165/169 109/167/183
f 101/208/172 102/207/171 110/194/86 109/193/85
f 110/149/184 100/145/173 108/152/185
f 103/210/176 104/209/175 112/196/88 111/195/87
f 112/173/186 105/172/177 113/171/187
f 106/151/182 103/150/181 111/153/188
s 10
f 115/181/189 116/182/190 105/126/180 106/125/179
s 1
f 116/170/191 117/169/192 113/171/187 105/172/177
f 117/211/193 118/212/194 114/198/90 113/197/89
f 118/155/195 115/154/196 106/151/182 114/156/197
s 10
f 100/118/168 99/117/167 116/182/190 115/181/189
s 1
f 99/166/170 107/168/198 117/169/192 116/170/191
f 107/192/84 108/191/83 118/212/194 117/211/193
f 108/152/185 100/145/173 115/154/196 118/155/195
f 99/166/170 109/167/183 107/168/198
f 104/174/178 105/172/177 112/173/186
f 106/151/182 111/153/188 114/156/197
f 102/146/174 100/145/173 110/149/184
