# This file uses centimeters as units for non-parametric coordinates.

g default
v -0.059538 0.379713 -0.687450
v -0.344037 -0.014567 -0.785885
v -0.432603 0.235341 -0.288648
v -0.168609 0.453675 -0.399619
v -0.424380 0.294993 0.141470
v 0.024166 0.523833 0.049899
v 0.250234 0.458384 0.475000
v -0.256554 0.252519 0.615656
v -0.799489 -0.273618 -0.174861
v -0.776325 -0.225772 0.431574
v -0.596586 -0.284441 -0.629141
v -0.491479 -0.112218 0.712925
v 0.471035 0.293146 0.750648
v 0.098002 0.262995 0.890562
v -0.100644 -0.071759 0.850164
v 0.393945 -0.151686 0.837923
v 0.718513 -0.209650 0.582406
v 0.718741 0.080737 0.538581
v 0.715611 0.178240 0.164595
v 0.474509 0.405986 -0.491808
v 0.028391 -0.260735 0.562105
v -0.315388 -0.371095 0.464789
v -0.458068 -0.443666 0.249580
v -0.406367 -0.503905 -0.052489
v -0.276126 -0.523833 -0.365538
v 0.799489 -0.151933 0.112783
v 0.647662 -0.102010 -0.533970
v 0.261916 -0.141556 -0.857008
v -0.168359 -0.251757 -0.890562
v -0.328205 -0.360489 -0.788360
v 0.053535 -0.408197 -0.589173
v 0.451584 -0.328200 -0.370570
v 0.512129 -0.296666 0.065337
v 0.435889 -0.273952 0.408252
v 0.246007 -0.239661 0.557226
v 0.123114 -0.277053 0.252832
v -0.201752 -0.433460 0.081266
v -0.000120 -0.431494 -0.196731
v 0.228190 -0.291559 0.057277
vt 0.172511 0.510279
vt 0.135597 0.439189
vt 0.282370 0.439180
vt 0.233638 0.477778
vt 0.130772 0.577314
vt 0.062505 0.511519
vt 0.392801 0.465956
vt 0.794607 0.401706
vt 0.292598 0.490677
vt 0.269289 0.491374
vt 0.108077 0.625691
vt 0.056329 0.634958
vt 0.863555 0.411794
vt 0.206362 0.564795
vt 0.177438 0.589814
vt 0.254761 0.736869
vt 0.319340 0.701858
vt 0.360934 0.730291
vt 0.270387 0.776629
vt 0.435995 0.584561
vt 0.361165 0.603321
vt 0.180748 0.793610
vt 0.931357 0.424622
vt 0.190561 0.734229
vt 0.287026 0.665552
vt 0.316249 0.607564
vt 0.105945 0.740572
vt 0.241954 0.543721
vt 0.291665 0.548294
vt 0.213573 0.599049
vt 0.255904 0.588147
vt 0.344038 0.530053
vt 0.164623 0.624659
vt 0.256685 0.640188
vt 0.225905 0.650704
vt 0.180946 0.669805
vt 0.243222 0.693530
vt 0.205376 0.690975
vt 0.124533 0.683602
vt 0.912445 0.513759
vt 0.803837 0.496443
vt 0.755247 0.424603
vt 0.969361 0.502725
vt 0.982608 0.445787
vt 0.934725 0.342326
vt 0.987908 0.384827
vt 0.858774 0.337771
vt 0.793902 0.349839
vt 0.712577 0.365735
vn -0.075021 0.687928 -0.721891
vn -0.567604 0.388388 -0.725934
vn -0.730567 0.648052 -0.215177
vn -0.422767 0.878124 -0.223979
vn -0.108371 0.993623 0.031138
vn -0.626574 0.764384 0.152059
vn -0.441389 0.752787 0.488352
vn 0.161224 0.961882 0.220885
vn -0.911374 -0.176243 0.371935
vn -0.954077 -0.238396 -0.181398
vn -0.663680 -0.450910 -0.596833
vn -0.527479 -0.207901 0.823738
vn -0.164539 0.497056 0.851976
vn 0.420117 0.562194 0.712348
vn -0.126659 -0.415766 0.900609
vn -0.164539 0.497056 0.851976
vn -0.441389 0.752787 0.488352
vn -0.527479 -0.207901 0.823738
vn -0.164539 0.497056 0.851976
vn -0.126659 -0.415766 0.900609
vn 0.255933 -0.569301 0.781277
vn 0.420117 0.562194 0.712348
vn 0.255933 -0.569301 0.781277
vn 0.698037 -0.589586 0.406366
vn 0.852081 0.370732 0.369480
vn 0.420117 0.562194 0.712348
vn 0.420117 0.562194 0.712348
vn 0.852081 0.370732 0.369480
vn 0.813835 0.580876 0.015980
vn 0.161224 0.961882 0.220885
vn -0.422767 0.878124 -0.223979
vn -0.108371 0.993623 0.031138
vn 0.547770 0.760431 -0.348846
vn -0.075021 0.687928 -0.721891
vn 0.038336 -0.909064 0.414890
vn 0.052529 -0.932768 0.356628
vn -0.126659 -0.415766 0.900609
vn -0.527479 -0.207901 0.823738
vn -0.911374 -0.176243 0.371935
vn -0.226530 -0.926403 0.300770
vn -0.954077 -0.238396 -0.181398
vn -0.161233 -0.983910 0.076975
vn -0.226530 -0.926403 0.300770
vn -0.911374 -0.176243 0.371935
vn -0.663680 -0.450910 -0.596833
vn -0.038652 -0.994177 -0.100589
vn 0.698037 -0.589586 0.406366
vn 0.906454 -0.417296 -0.064855
vn 0.813835 0.580876 0.015980
vn 0.852081 0.370732 0.369480
vn 0.547770 0.760431 -0.348846
vn 0.789952 -0.292956 -0.538658
vn 0.337443 -0.277271 -0.899585
vn -0.075021 0.687928 -0.721891
vn 0.547770 0.760431 -0.348846
vn 0.789952 -0.292956 -0.538658
vn -0.138940 -0.200618 -0.969767
vn -0.567604 0.388388 -0.725934
vn -0.663680 -0.450910 -0.596833
vn -0.567604 0.388388 -0.725934
vn -0.138940 -0.200618 -0.969767
vn -0.179098 -0.688672 -0.702606
vn -0.179098 -0.688672 -0.702606
vn 0.202070 -0.907316 -0.368707
vn -0.138940 -0.200618 -0.969767
vn 0.337443 -0.277271 -0.899585
vn 0.789952 -0.292956 -0.538658
vn 0.379769 -0.917715 -0.116509
vn 0.276294 -0.960491 0.033444
vn 0.906454 -0.417296 -0.064855
vn 0.094842 -0.987969 0.122155
vn 0.698037 -0.589586 0.406366
vn -0.001805 -0.959786 0.280727
vn 0.255933 -0.569301 0.781277
vn 0.153050 -0.976274 0.153182
vn 0.038336 -0.909064 0.414890
vn 0.254945 -0.946177 0.199377
vn -0.226530 -0.926403 0.300770
vn -0.161233 -0.983910 0.076975
vn 0.202070 -0.907316 -0.368707
vn 0.379769 -0.917715 -0.116509
vn 0.244242 -0.960328 0.134597
vn -0.038652 -0.994177 -0.100589
vn 0.156726 -0.975228 0.156097
s 1
g stone4_lp
f 1/42/1 2/49/2 3/48/3 4/8/4
f 6/13/5 4/8/4 3/48/3 5/47/6
f 8/45/7 7/23/8 6/13/5 5/47/6
f 10/5/9 5/6/6 3/2/3 9/1/10
f 9/1/10 3/2/3 2/3/2 11/4/11
f 10/5/9 12/11/12 8/12/7 5/6/6
f 14/46/13 13/44/14 7/23/8 8/45/7
s off
f 15/39/15 14/27/16 8/12/17 12/11/18
f 14/27/19 15/39/20 16/24/21 13/22/22
f 16/24/23 17/16/24 18/19/25 13/22/26
s 2
f 13/44/27 18/43/28 19/40/29 7/23/30
f 4/8/31 6/13/32 20/41/33 1/42/34
f 19/40/29 20/41/33 6/13/32 7/23/30
s 3
f 22/33/35 21/36/36 15/39/37 12/11/38
f 10/5/39 23/15/40 22/33/35 12/11/38
f 9/1/41 24/14/42 23/15/43 10/5/44
f 11/4/45 25/28/46 24/14/42 9/1/41
s 5
f 17/16/47 26/17/48 19/18/49 18/19/50
f 20/20/51 19/18/49 26/17/48 27/21/52
s 6
f 28/32/53 1/7/54 20/20/55 27/21/56
f 1/7/54 28/32/53 29/9/57 2/3/58
s off
f 11/4/59 2/3/60 29/9/61 30/10/62
s 3
f 30/10/63 31/29/64 25/28/46 11/4/45
f 29/9/65 28/32/66 31/29/64 30/10/63
f 31/29/64 28/32/66 27/21/67 32/26/68
f 33/25/69 32/26/68 27/21/67 26/17/70
f 34/37/71 33/25/69 26/17/70 17/16/72
f 15/39/37 21/36/36 35/38/73 16/24/74
f 34/37/71 17/16/72 16/24/74 35/38/73
f 34/37/71 35/38/73 21/36/36 36/35/75
f 22/33/76 37/30/77 36/35/75 21/36/36
f 37/30/77 22/33/76 23/15/78 24/14/79
f 31/29/80 32/26/81 38/31/82 25/28/83
f 37/30/77 24/14/79 25/28/83 38/31/82
f 33/25/69 34/37/71 36/35/75 39/34/84
f 38/31/82 32/26/81 33/25/69 39/34/84
f 39/34/84 36/35/75 37/30/77 38/31/82
