# This file uses centimeters as units for non-parametric coordinates.

g default
v 0.633858 0.317602 0.313233
v 0.595484 0.339921 -0.100985
v 0.089717 0.757511 0.035761
v 0.245155 0.607662 0.352235
v 0.925032 -0.078411 0.262261
v 0.832167 0.015495 -0.155963
v 0.977810 -0.327522 -0.210617
v 1.036519 -0.385957 0.098897
v 0.592539 -0.246105 -0.707102
v 0.486178 0.091951 -0.708400
v 0.261111 0.349615 -0.601262
v 0.010084 0.612506 -0.410647
v 0.553274 -0.549907 -0.595674
v 0.734968 -0.600789 -0.261818
v 0.848922 -0.592714 0.078683
v -0.373941 0.636305 -0.317263
v -0.300610 0.730516 0.155956
v -0.142130 0.558783 0.461809
v -0.714739 0.482081 0.141176
v -0.689508 0.412844 -0.326725
v -0.556489 0.334463 0.476591
v -0.963532 0.194332 0.136473
v -0.816768 0.123227 0.448698
v -0.918163 0.095102 -0.247753
v -0.889893 -0.048995 0.486670
v -1.036519 -0.138787 0.208600
v -0.974838 -0.290361 -0.231091
v -0.750267 -0.426845 0.265092
v -0.738134 -0.542068 -0.138909
v -0.655712 0.060990 -0.548250
v -0.690411 -0.269905 -0.568179
v -0.633778 0.260283 -0.468808
v -0.350792 0.072659 -0.718683
v -0.355884 -0.269789 -0.745364
v 0.058074 0.072372 -0.784369
v 0.093552 -0.312748 -0.825613
v -0.009674 0.376154 -0.623950
v -0.352609 0.347774 -0.570881
v 0.148077 -0.680569 -0.538553
v -0.259492 -0.620198 -0.434463
v -0.595006 -0.496777 -0.396465
v -0.312776 -0.698417 -0.118360
v -0.380097 -0.640608 0.271557
v -0.636854 -0.238243 0.651074
v -0.364860 -0.454529 0.594886
v -0.488862 -0.019067 0.729271
v -0.278885 0.170500 0.675986
v -0.042447 0.249868 0.637629
v 0.298948 0.189926 0.594100
v 0.603360 -0.186481 0.642719
v 0.865436 -0.402271 0.418065
v 0.063850 -0.149983 0.801325
v -0.177524 -0.122207 0.825613
v -0.305225 -0.272834 0.763933
v 0.209099 -0.757511 -0.121474
v 0.493551 -0.699917 0.124325
v 0.643638 -0.559803 0.384003
v 0.457570 -0.468703 0.559042
v 0.012454 -0.387827 0.646037
v -0.027919 -0.579248 0.469088
v 0.008498 -0.708188 0.250681
v 0.260788 -0.654818 0.327287
vt 0.428183 0.747701
vt 0.211111 0.384656
vt 0.318655 0.330503
vt 0.505582 0.753534
vt 0.351586 0.769083
vt 0.135278 0.381032
vt 0.297249 0.797178
vt 0.073076 0.347160
vt 0.121652 0.295233
vt 0.167336 0.308413
vt 0.214205 0.304877
vt 0.269725 0.296190
vt 0.046169 0.285386
vt 0.087873 0.265855
vt 0.289524 0.842454
vt 0.355107 0.266874
vt 0.300716 0.250553
vt 0.547417 0.801705
vt 0.292297 0.198509
vt 0.348313 0.179363
vt 0.577797 0.870356
vt 0.314335 0.123763
vt 0.588815 0.921456
vt 0.272520 0.148749
vt 0.274321 0.081013
vt 0.299735 0.050606
vt 0.230697 0.117993
vt 0.184631 0.104414
vt 0.206238 0.054856
vt 0.206521 0.161880
vt 0.241358 0.186140
vt 0.265151 0.198802
vt 0.182179 0.197318
vt 0.218819 0.220818
vt 0.192187 0.262226
vt 0.148595 0.238951
vt 0.234183 0.276017
vt 0.254696 0.236963
vt 0.099944 0.208239
vt 0.131664 0.161083
vt 0.174348 0.139805
vt 0.117743 0.121165
vt 0.124335 0.064672
vt 0.525363 0.948657
vt 0.138735 0.007294
vt 0.525516 0.908020
vt 0.522817 0.865891
vt 0.504436 0.833476
vt 0.460258 0.807494
vt 0.394808 0.826991
vt 0.340604 0.821942
vt 0.455223 0.873802
vt 0.482326 0.892119
vt 0.482036 0.920706
vt 0.049495 0.178849
vt 0.312138 0.898676
vt 0.340606 0.861083
vt 0.377512 0.870511
vt 0.431308 0.908300
vt 0.055773 0.055401
vt 0.054747 0.102963
vt 0.358529 0.918628
vt 0.407445 0.937992
vt 0.007655 0.127712
vt 0.000000 0.209708
vt 0.467357 0.954606
vt 0.005937 0.312809
vt 0.223907 0.000000
vt 0.579172 0.948483
vt 0.348210 0.087759
vt 0.400147 0.169599
vt 0.400143 0.292972
vt 0.333288 0.380433
vt 0.043873 0.379408
vt 0.112198 0.435048
vt 0.228391 0.439184
vn 0.703655 0.597990 0.383767
vn 0.674962 0.712342 -0.192342
vn 0.315443 0.948305 -0.034845
vn 0.359550 0.740787 0.567414
vn 0.918316 0.289316 0.270171
vn 0.820124 0.506004 -0.267126
vn 0.978938 -0.201117 0.035097
vn 0.909587 -0.088186 -0.406047
vn 0.540247 -0.139237 -0.829907
vn 0.495596 0.427610 -0.755999
vn 0.390309 0.678039 -0.622833
vn 0.119563 0.822015 -0.556773
vn 0.531416 -0.791780 -0.301135
vn 0.414402 -0.680425 -0.604394
vn 0.540247 -0.139237 -0.829907
vn 0.909587 -0.088186 -0.406047
vn 0.633395 -0.762168 0.133833
vn 0.978938 -0.201117 0.035097
vn -0.269596 0.946316 0.178338
vn 0.315443 0.948305 -0.034845
vn 0.119563 0.822015 -0.556773
vn -0.313968 0.815006 -0.487020
vn -0.095000 0.701843 0.705968
vn 0.359550 0.740787 0.567414
vn 0.315443 0.948305 -0.034845
vn -0.269596 0.946316 0.178338
vn -0.645517 0.623391 -0.441238
vn -0.635929 0.744063 0.204850
vn -0.407228 0.600077 0.688530
vn -0.635929 0.744063 0.204850
vn -0.876158 0.458089 0.150005
vn -0.617936 0.427457 0.659875
vn -0.845030 0.312518 -0.433886
vn -0.876158 0.458089 0.150005
vn -0.943503 -0.209976 0.256344
vn -0.762883 0.000298 0.646537
vn -0.886315 -0.315184 -0.339271
vn -0.943503 -0.209976 0.256344
vn -0.546344 -0.827365 -0.130292
vn -0.592653 -0.735514 0.328300
vn -0.943503 -0.209976 0.256344
vn -0.886315 -0.315184 -0.339271
vn -0.592706 -0.316662 -0.740557
vn -0.886315 -0.315184 -0.339271
vn -0.845030 0.312518 -0.433886
vn -0.605667 0.237396 -0.759480
vn -0.645517 0.623391 -0.441238
vn -0.521400 0.442767 -0.729452
vn -0.331769 -0.313762 -0.889653
vn -0.318170 0.264012 -0.910531
vn 0.001268 0.286155 -0.958183
vn -0.009188 -0.265772 -0.963992
vn 0.540247 -0.139237 -0.829907
vn 0.495596 0.427610 -0.755999
vn -0.013902 0.570926 -0.820884
vn 0.390309 0.678039 -0.622833
vn -0.294105 0.528218 -0.796548
vn -0.009188 -0.265772 -0.963992
vn 0.540247 -0.139237 -0.829907
vn 0.414402 -0.680425 -0.604394
vn 0.006886 -0.835397 -0.549605
vn -0.273627 -0.825843 -0.493064
vn -0.331769 -0.313762 -0.889653
vn -0.423643 -0.757777 -0.496287
vn -0.592706 -0.316662 -0.740557
vn -0.886315 -0.315184 -0.339271
vn -0.266955 -0.961285 -0.068304
vn -0.296522 -0.901674 0.314736
vn -0.549137 -0.397339 0.735235
vn -0.762883 0.000298 0.646537
vn -0.237323 -0.697264 0.676388
vn -0.762883 0.000298 0.646537
vn -0.549137 -0.397339 0.735235
vn -0.385625 0.142213 0.911630
vn -0.180888 0.420665 0.889000
vn 0.082706 0.468391 0.879642
vn 0.296061 0.461998 0.836006
vn 0.359550 0.740787 0.567414
vn 0.429726 0.045366 0.901819
vn 0.703655 0.597990 0.383767
vn 0.658111 -0.381539 0.649090
vn 0.918316 0.289316 0.270171
vn 0.978938 -0.201117 0.035097
vn 0.918316 0.289316 0.270171
vn 0.658111 -0.381539 0.649090
vn 0.633395 -0.762168 0.133833
vn 0.158472 -0.048772 0.986158
vn -0.026099 0.042777 0.998744
vn -0.123052 -0.367968 0.921660
vn -0.123052 -0.367968 0.921660
vn -0.385625 0.142213 0.911630
vn -0.549137 -0.397339 0.735235
vn 0.006886 -0.835397 -0.549605
vn 0.062147 -0.997106 -0.043779
vn 0.414402 -0.680425 -0.604394
vn 0.531416 -0.791780 -0.301135
vn 0.633395 -0.762168 0.133833
vn 0.228099 -0.941028 0.249875
vn 0.309687 -0.768720 0.559610
vn 0.658111 -0.381539 0.649090
vn 0.309687 -0.768720 0.559610
vn 0.658111 -0.381539 0.649090
vn 0.429726 0.045366 0.901819
vn 0.183174 -0.667468 0.721758
vn 0.080132 -0.609310 0.788873
vn 0.158472 -0.048772 0.986158
vn -0.026099 0.042777 0.998744
vn -0.008161 -0.795368 0.606072
vn -0.041889 -0.941065 0.335621
vn 0.074179 -0.877429 0.473936
vn -0.313968 0.815006 -0.487020
vn 0.119563 0.822015 -0.556773
s 1
g stone3_lp
f 1/76/1 2/2/2 3/3/3 4/73/4
f 1/76/1 5/75/5 6/6/6 2/2/2
f 8/74/7 7/8/8 6/6/6 5/75/5
f 7/8/8 9/9/9 10/10/10 6/6/6
f 6/6/6 10/10/10 11/11/11 2/2/2
f 12/12/12 3/3/3 2/2/2 11/11/11
s 2
f 14/13/13 13/14/14 9/9/15 7/8/16
f 15/67/17 14/13/13 7/8/16 8/74/18
s 3
f 17/16/19 3/3/20 12/12/21 16/17/22
s 4
f 18/72/23 4/73/24 3/3/25 17/16/26
s 3
f 20/19/27 19/20/28 17/16/19 16/17/22
s 4
f 21/71/29 18/72/23 17/16/26 19/20/30
f 21/71/29 19/20/30 22/22/31 23/70/32
s 3
f 24/24/33 22/22/34 19/20/28 20/19/27
s 4
f 26/25/35 25/26/36 23/70/32 22/22/31
s 3
f 27/27/37 26/25/38 22/22/34 24/24/33
s 5
f 29/28/39 28/29/40 26/25/41 27/27/42
s 6
f 31/30/43 27/27/44 24/24/45 30/31/46
f 20/19/47 32/32/48 30/31/46 24/24/45
f 34/33/49 31/30/43 30/31/46 33/34/50
f 33/34/50 35/35/51 36/36/52 34/33/49
f 9/9/53 36/36/52 35/35/51 10/10/54
f 10/10/54 35/35/51 37/37/55 11/11/56
f 35/35/51 33/34/50 38/38/57 37/37/55
f 30/31/46 32/32/48 38/38/57 33/34/50
s 5
f 36/36/58 9/9/59 13/14/60 39/39/61
f 40/40/62 34/33/63 36/36/58 39/39/61
f 41/41/64 31/30/65 34/33/63 40/40/62
f 41/41/64 29/28/39 27/27/66 31/30/65
f 40/40/62 42/42/67 29/28/39 41/41/64
f 43/43/68 28/29/40 29/28/39 42/42/67
f 44/68/69 25/26/70 26/25/41 28/29/40
f 44/68/69 28/29/40 43/43/68 45/45/71
s 4
f 25/69/72 44/44/73 46/46/74 23/23/32
f 47/47/75 21/21/29 23/23/32 46/46/74
f 48/48/76 18/18/23 21/21/29 47/47/75
f 49/49/77 4/4/78 18/18/23 48/48/76
f 4/4/78 49/49/77 50/50/79 1/1/80
f 51/51/81 5/5/82 1/1/80 50/50/79
s off
f 8/7/83 5/5/84 51/51/85 15/15/86
s 4
f 50/50/79 49/49/77 48/48/76 52/52/87
f 47/47/75 53/53/88 52/52/87 48/48/76
f 53/53/88 47/47/75 46/46/74 54/54/89
s 5
f 54/54/90 46/46/91 44/44/92 45/66/71
f 40/40/62 39/39/93 55/55/94 42/42/67
f 39/39/93 13/14/95 14/13/96 55/55/94
f 15/67/97 56/65/98 55/55/94 14/13/96
f 57/57/99 56/56/98 15/15/97 51/51/100
f 57/57/101 51/51/102 50/50/103 58/58/104
f 59/59/105 58/58/104 50/50/103 52/52/106
f 52/52/106 53/53/107 54/54/90 59/59/105
f 45/66/71 60/63/108 59/59/105 54/54/90
f 60/60/108 45/45/71 43/43/68 61/61/109
f 55/55/94 61/61/109 43/43/68 42/42/67
f 62/64/110 61/61/109 55/55/94 56/65/98
f 58/58/104 62/62/110 56/56/98 57/57/99
f 60/63/108 62/62/110 58/58/104 59/59/105
f 61/61/109 62/64/110 60/60/108
s 6
f 32/32/48 20/19/47 16/17/111 38/38/57
f 12/12/112 37/37/55 38/38/57 16/17/111
f 37/37/55 12/12/112 11/11/56
