# This file uses centimeters as units for non-parametric coordinates.

g default
v -0.765110 30.401312 -5.378984
v 0.720216 30.362766 -5.378984
v 1.249779 29.804991 -5.378984
v -1.322884 29.871746 -5.378984
v -1.361425 28.386427 -5.378984
v -0.813770 27.385529 -5.297997
v 0.696701 27.351727 -5.298302
v 1.211234 28.319666 -5.378984
v -0.765110 30.401312 6.623239
v 0.720216 30.362766 6.623239
v 1.249779 29.804991 6.623239
v -1.322884 29.871746 6.623239
v -1.361425 28.386427 6.623239
v -0.831864 27.828644 6.623239
v 0.653462 27.790104 6.623239
v 1.211234 28.319666 6.623239
v 1.688666 18.675776 -11.152373
v -1.410608 18.625978 -11.199238
v -3.635260 18.590235 -9.040573
v -3.682117 18.589481 -5.940898
v -0.456706 18.641306 -3.699825
v 1.575543 18.673958 -3.669096
v 3.800195 18.709703 -5.827760
v 3.847052 18.710455 -8.927435
v 0.669930 31.047146 -9.254726
v -0.847580 31.022762 -9.277672
v -1.936845 31.005260 -8.220717
v -1.959787 31.004892 -6.703012
v -0.902969 31.021873 -5.613606
v 0.614541 31.046255 -5.590661
v 1.703806 31.063757 -6.647615
v 1.726749 31.064125 -8.165321
v 0.799598 27.850014 -9.421028
v -0.868956 27.823206 -9.446259
v -2.066639 27.803961 -8.284100
v -2.091865 27.803556 -6.615331
v 1.936379 27.868280 -6.554421
v 1.961606 27.868685 -8.223190
v -2.071678 18.615356 -4.280802
v -1.224855 27.817488 -5.721587
v -1.160781 30.365259 -5.890172
v -1.171262 31.017561 -5.890172
v 2.673171 18.691595 -4.734166
v 1.103847 27.854603 -5.743870
v 0.957656 30.399296 -5.913428
v 0.947175 31.051600 -5.913428
v 0.297520 32.240444 -8.437227
v -0.538571 32.227013 -8.449869
v -0.135784 32.233482 -7.434166
v -1.138715 32.217369 -7.867527
v -1.151356 32.217167 -7.031327
v -0.716908 32.224148 -6.583483
v -0.569088 32.226521 -6.431106
v 0.267003 32.239956 -6.418464
v 0.450272 32.242901 -6.596296
v 0.867147 32.249599 -7.000806
v 0.879788 32.249802 -7.837006
v 2.407465 -8.809890 -11.793845
v -1.226502 -8.868278 -11.848795
v -3.834956 -8.910189 -9.317713
v -3.889896 -8.911072 -5.683276
v -2.001621 -8.880732 -3.736778
v 0.008699 -8.848432 -3.053804
v 2.274826 -8.812020 -3.019538
v 3.647210 -8.789969 -4.351215
v 4.883279 -8.770109 -5.550620
v 4.938220 -8.769227 -9.185057
vt 0.815311 0.892194
vt 0.815269 0.870182
vt 0.993079 0.869842
vt 0.993121 0.891855
vt 0.815247 0.858787
vt 0.993316 0.992055
vt 0.993143 0.903249
vt 0.815333 0.903588
vt 0.815375 0.925601
vt 0.993185 0.925261
vt 0.993207 0.936656
vt 0.815397 0.936995
vt 0.815439 0.959007
vt 0.993277 0.958648
vt 0.993272 0.970042
vt 0.815462 0.970402
vt 0.700984 0.792587
vt 0.724342 0.782654
vt 0.748734 0.775926
vt 0.773767 0.772488
vt 0.792485 0.772525
vt 0.797808 0.780276
vt 0.799491 0.800611
vt 0.793154 0.807963
vt 0.812813 0.810763
vt 0.815301 0.801706
vt 0.819326 0.812307
vt 0.847076 0.784030
vt 0.869479 0.794922
vt 0.889961 0.808587
vt 0.418657 0.922813
vt 0.425062 0.603670
vt 0.416925 0.876919
vt 0.416085 0.831000
vt 0.416430 0.771306
vt 0.416125 0.796733
vt 0.417017 0.741197
vt 0.418807 0.695305
vt 0.417901 0.718554
vt 0.421489 0.649458
vt 0.972150 0.839929
vt 0.941247 0.842622
vt 0.948045 0.805744
vt 0.919373 0.826100
vt 0.914446 0.800615
vt 0.924051 0.783564
vt 0.928667 0.778363
vt 0.952976 0.771970
vt 0.961009 0.774869
vt 0.977157 0.785227
vt 0.985233 0.811864
vt 0.633189 0.669594
vt 0.675427 0.650361
vt 0.720041 0.637731
vt 0.765982 0.631913
vt 0.800467 0.632739
vt 0.825902 0.635373
vt 0.855779 0.640154
vt 0.822556 0.775221
vt 0.800287 0.772640
vt 0.877432 0.647144
vt 0.830552 0.778655
vt 0.899662 0.654276
vt 0.940914 0.674764
vt 0.978564 0.701206
vt 0.865956 0.846469
vt 0.847780 0.835463
vt 0.829017 0.825974
vt 0.816265 0.819973
vt 0.811552 0.817587
vt 0.800355 0.809700
vt 0.797882 0.815715
vt 0.793620 0.816233
vt 0.778835 0.818103
vt 0.758278 0.821684
vt 0.737913 0.827367
vt 0.717722 0.834824
vt 0.823529 0.783080
vt 0.955234 0.815927
vt 0.945423 0.819184
vt 0.937111 0.813662
vt 0.935171 0.803718
vt 0.939067 0.797403
vt 0.940453 0.795398
vt 0.950452 0.792858
vt 0.953060 0.794233
vt 0.959023 0.797827
vt 0.961553 0.807728
vt 0.011671 0.942139
vt 0.019179 0.568026
vt 0.009640 0.888328
vt 0.008656 0.834487
vt 0.009093 0.762853
vt 0.008701 0.794309
vt 0.009748 0.729279
vt 0.011846 0.675470
vt 0.010851 0.700969
vt 0.014990 0.621713
vt 0.421281 0.968664
vt 0.014748 0.995901
vt 0.815506 0.992414
vt 0.993058 0.858448
vn 0.025942 0.999663 0.000000
vn 0.025942 0.999663 0.000000
vn 0.025942 0.999663 0.000000
vn 0.025942 0.999663 0.000000
vn 0.725210 0.688528 0.000000
vn 0.725205 0.688523 0.003800
vn 0.725193 0.688512 0.006856
vn 0.725210 0.688528 0.000000
vn -0.688532 0.725206 0.000000
vn -0.688515 0.725189 0.006879
vn -0.688520 0.725194 0.005759
vn -0.688532 0.725206 0.000000
vn -0.822854 -0.568166 0.009901
vn -0.823444 -0.567245 0.013143
vn -0.823359 -0.567379 0.012675
vn -0.822854 -0.568166 0.009901
vn 0.813299 -0.581720 0.012129
vn 0.813890 -0.580847 0.014159
vn 0.814167 -0.580433 0.015117
vn 0.813299 -0.581720 0.012129
vn -0.999664 0.025940 0.000000
vn -0.999415 0.024920 -0.023440
vn -0.999363 0.024824 -0.025629
vn -0.999664 0.025940 0.000000
vn -0.024121 -0.999029 0.036873
vn -0.024121 -0.999029 0.036873
vn -0.024121 -0.999029 0.036873
vn -0.024121 -0.999029 0.036873
vn 0.999664 -0.025941 0.000000
vn 0.999664 -0.025941 0.000000
vn 0.999197 -0.023434 -0.032495
vn 0.999245 -0.023560 -0.030879
vn 0.014255 0.052517 -0.998518
vn 0.012298 0.163041 -0.986543
vn 0.012298 0.163040 -0.986543
vn 0.014255 0.052517 -0.998518
vn -0.689588 0.151601 -0.708157
vn -0.689582 0.151656 -0.708150
vn -0.696107 0.042413 -0.716684
vn -0.696107 0.042413 -0.716684
vn -0.989107 0.146444 -0.014916
vn -0.989095 0.146520 -0.014916
vn -0.999053 0.040805 -0.015093
vn -0.999053 0.040805 -0.015093
vn -0.704946 0.052225 0.707336
vn -0.708368 0.153546 0.688940
vn -0.649579 0.157142 0.743877
vn -0.708858 0.050772 0.703521
vn 0.680311 0.645900 0.346395
vn 0.983880 0.178206 0.014916
vn 0.983894 0.178130 0.014916
vn 0.997216 0.073020 0.015092
vn 0.997216 0.073020 0.015092
vn 0.705446 0.174061 -0.687058
vn 0.705454 0.174005 -0.687064
vn 0.715725 0.065196 -0.695333
vn 0.715725 0.065196 -0.695333
vn -0.016065 0.999871 0.000000
vn -0.016064 0.999871 0.000005
vn -0.016065 0.999871 -0.000001
vn -0.016064 0.999871 0.000000
vn -0.016063 0.999871 -0.000005
vn -0.016062 0.999871 0.000000
vn -0.016064 0.999871 -0.000001
vn -0.016067 0.999871 0.000001
vn -0.016068 0.999871 0.000005
vn -0.016067 0.999871 -0.000002
vn -0.016067 0.999871 -0.000005
vn 0.014229 0.054019 -0.998439
vn 0.014229 0.054018 -0.998439
vn -0.696105 0.042504 -0.716680
vn -0.696104 0.042540 -0.716679
vn -0.999186 0.037419 -0.015095
vn -0.999184 0.037471 -0.015095
vn -0.717460 0.041742 0.695348
vn -0.572951 0.042576 0.818483
vn -0.166055 0.049850 0.984856
vn -0.014099 0.054938 0.998390
vn -0.008386 0.181567 0.983343
vn -0.216247 0.176040 0.960337
vn 0.691112 0.061361 0.720138
vn 0.692612 0.066354 0.718252
vn 0.676317 0.178413 0.714678
vn 0.659572 0.197770 0.725156
vn 0.997465 0.069543 0.015095
vn 0.997468 0.069491 0.015095
vn 0.715724 0.065219 -0.695332
vn 0.715726 0.065181 -0.695333
vn 0.818538 0.158667 0.552105
vn 0.692114 0.081236 0.717202
vn 0.641640 0.445922 0.624061
vn 0.701280 0.397799 0.591576
vn -0.005709 0.322842 0.946436
vn -0.005709 0.322842 0.946436
vn -0.014803 0.464281 0.885564
vn -0.015629 0.476851 0.878845
vn -0.826744 -0.422289 0.371708
vn -0.740645 0.007821 0.671851
vn -0.765041 0.029422 0.643309
vn -0.765041 0.029422 0.643309
vn 0.694285 0.068454 0.716437
vn 0.682293 0.172610 0.710410
vn 0.914252 0.007378 -0.405078
vn 0.914252 0.007378 -0.405078
vn 0.680841 0.074604 0.728622
vn 0.853515 -0.429063 0.295665
vn -0.620292 0.653332 0.434046
vn -0.943582 0.010173 -0.330982
vn -0.943582 0.010173 -0.330982
vn 0.003375 0.565883 -0.824479
vn 0.003375 0.565883 -0.824479
vn 0.003375 0.565883 -0.824479
vn 0.003375 0.565883 -0.824479
vn -0.583196 0.556458 -0.591809
vn -0.583196 0.556458 -0.591809
vn -0.583196 0.556458 -0.591809
vn -0.583196 0.556458 -0.591809
vn -0.833462 0.552437 -0.012465
vn -0.833462 0.552437 -0.012465
vn -0.833462 0.552437 -0.012465
vn -0.833462 0.552437 -0.012465
vn -0.600822 0.556174 0.574181
vn -0.600822 0.556175 0.574180
vn -0.600822 0.556175 0.574180
vn -0.600822 0.556174 0.574181
vn -0.600822 0.556176 0.574179
vn -0.600822 0.556176 0.574179
vn -0.021553 0.565482 0.824479
vn -0.021553 0.565482 0.824479
vn 0.565017 0.574906 0.591810
vn 0.565016 0.574905 0.591812
vn 0.565017 0.574906 0.591810
vn 0.565017 0.574906 0.591810
vn 0.815284 0.578927 0.012465
vn 0.815284 0.578927 0.012465
vn 0.815284 0.578927 0.012465
vn 0.815284 0.578927 0.012465
vn 0.582643 0.575190 -0.574181
vn 0.582643 0.575190 -0.574181
vn 0.582643 0.575190 -0.574181
vn 0.582643 0.575190 -0.574181
vn 0.014734 0.023715 -0.999610
vn 0.014734 0.023715 -0.999610
vn -0.696432 0.012288 -0.717518
vn -0.696432 0.012288 -0.717518
vn -0.999858 0.007413 -0.015113
vn -0.999858 0.007413 -0.015113
vn -0.564587 0.014616 0.825244
vn -0.165210 0.020669 0.986042
vn -0.717802 0.011945 0.696145
vn -0.015488 0.023229 0.999610
vn 0.695678 0.034656 0.717518
vn 0.695678 0.034656 0.717518
vn 0.695678 0.034656 0.717517
vn 0.999104 0.039531 0.015113
vn 0.999104 0.039531 0.015113
vn 0.717048 0.034999 -0.696145
vn 0.717048 0.034999 -0.696145
s off
g vetriak_body
f 9/1/1 10/2/2 2/3/3 1/4/4
s 1
f 11/5/5 3/102/6 2/3/7 10/2/8
s 2
f 9/1/9 1/4/10 4/7/11 12/8/12
s 3
f 13/9/13 5/10/14 6/11/15 14/12/16
s 4
f 15/13/17 7/14/18 8/15/19 16/16/20
s 5
f 12/8/21 4/7/22 5/10/23 13/9/24
s off
f 14/12/25 6/11/26 7/14/27 15/13/28
s 6
f 11/101/29 16/16/30 8/15/31 3/6/32
s 7
f 25/77/33 33/17/34 34/18/35 26/76/36
s 8
f 34/18/37 35/19/38 27/75/39 26/76/40
s 9
f 35/19/41 36/20/42 28/74/43 27/75/44
s 10
f 28/74/45 36/20/46 40/21/47 41/24/48
s 1
f 2/25/7 3/26/6 45/27/49
s 11
f 37/28/50 38/29/51 32/67/52 31/68/53
s 12
f 38/29/54 33/30/55 25/66/56 32/67/57
s 13
f 47/79/58 48/80/59 49/43/60
f 48/80/59 50/81/61 49/43/60
f 50/81/61 51/82/62 49/43/60
f 51/82/62 52/83/63 53/84/64 49/43/60
f 53/84/64 54/85/65 49/43/60
f 54/85/65 55/86/66 56/87/67 49/43/60
f 56/87/67 57/88/68 49/43/60
f 57/88/68 47/79/58 49/43/60
s 7
f 17/52/69 18/53/70 34/18/35 33/17/34
s 8
f 18/53/71 19/54/72 35/19/38 34/18/37
s 9
f 19/54/73 20/55/74 36/20/42 35/19/41
s 10
f 20/55/75 39/56/76 40/21/47 36/20/46
f 21/57/77 22/58/78 7/59/79 6/60/80
s 15
f 22/58/81 43/61/82 44/62/83 7/59/84
s 11
f 23/63/85 24/64/86 38/29/51 37/28/50
s 12
f 24/64/87 17/65/88 33/30/55 38/29/54
s 15
f 2/25/89 45/27/90 46/69/91 30/70/92
s 17
f 1/71/93 2/25/94 30/70/95 29/72/96
s 10
f 40/21/47 39/56/76 21/57/77 6/60/80
s 3
f 6/60/15 5/22/14 40/21/97
s 10
f 42/73/98 41/24/48 1/71/99 29/72/100
s 15
f 44/62/83 43/61/82 23/63/101 37/28/102
s 6
f 45/27/103 3/26/32 8/78/31 44/62/104
s 15
f 46/69/91 45/27/90 31/68/105
s 4
f 7/59/18 44/62/106 8/78/19
s 2
f 41/24/107 4/23/11 1/71/10
s 5
f 41/24/108 40/21/109 5/22/23 4/23/22
s 15
f 45/27/90 44/62/83 37/28/102 31/68/105
s 10
f 28/74/45 41/24/48 42/73/98
s off
f 25/41/110 26/42/111 48/80/112 47/79/113
f 26/42/114 27/44/115 50/81/116 48/80/117
f 27/44/118 28/45/119 51/82/120 50/81/121
s 18
f 28/45/122 42/46/123 52/83/124 51/82/125
f 42/46/123 29/47/126 53/84/127 52/83/124
s 17
f 29/47/96 30/48/95 54/85/128 53/84/129
s 15
f 30/48/92 46/49/91 55/86/130 54/85/131
f 46/49/91 31/50/132 56/87/133 55/86/130
s off
f 31/50/134 32/51/135 57/88/136 56/87/137
f 32/51/138 25/41/139 47/79/140 57/88/141
s 7
f 18/31/70 17/99/69 58/100/142 59/89/143
s 8
f 19/33/72 18/31/71 59/89/144 60/91/145
s 9
f 20/34/74 19/33/73 60/91/146 61/92/147
s 10
f 21/35/77 39/36/76 62/94/148 63/93/149
f 39/36/76 20/34/75 61/92/150 62/94/148
f 22/37/78 21/35/77 63/93/149 64/95/151
s 15
f 23/38/101 43/39/82 65/97/152 66/96/153
f 43/39/82 22/37/81 64/95/154 65/97/152
s 11
f 24/40/86 23/38/85 66/96/155 67/98/156
s 12
f 17/32/88 24/40/87 67/98/157 58/90/158
