# This file uses centimeters as units for non-parametric coordinates.

g default
v 0.317664 25.568886 45.869793
v -0.317663 25.568886 45.869793
v -0.635327 25.568886 46.420002
v -0.317664 25.568886 46.970211
v 0.317664 25.568886 46.970211
v 0.635327 25.568886 46.420002
v 0.317664 35.213936 45.869793
v -0.317663 35.213936 45.869793
v -0.635327 35.213936 46.420002
v -0.317664 35.213936 46.970211
v 0.317664 35.213936 46.970211
v 0.635327 35.213936 46.420002
v 0.000000 25.568886 46.420002
v 0.000000 35.213936 46.420002
v -3.363570 33.773773 -9.341495
v 3.363570 33.773773 -9.341495
v -3.363570 40.500912 -9.341495
v 3.363570 40.500912 -9.341495
v -3.363570 40.500912 -16.068634
v 3.363570 40.500912 -16.068634
v -3.363570 33.773773 -16.068634
v 3.363570 33.773773 -16.068634
v -3.363570 38.146416 -16.068634
v 3.363570 38.146416 -16.068634
v 3.363570 38.146416 -9.341495
v -3.363570 38.146416 -9.341495
v -3.363570 36.128273 -9.341495
v 3.363570 36.128273 -9.341495
v 3.363570 36.128273 -16.068634
v -3.363570 36.128273 -16.068634
v -2.018142 33.773773 -9.341495
v -2.018142 33.773773 -16.068634
v -2.018142 36.128273 -16.068634
v -2.018142 38.146416 -16.068634
v -2.018142 40.500912 -16.068634
v -2.018142 40.500912 -9.341495
v -2.018142 38.146416 -9.341495
v -2.018142 36.128273 -9.341495
v 1.749056 36.128273 -16.068634
v 1.749056 33.773773 -16.068634
v 1.749056 33.773773 -9.341495
v 1.749056 36.128273 -9.341495
v 1.749056 38.146416 -9.341495
v 1.749056 40.500912 -9.341495
v 1.749056 40.500912 -16.068634
v 1.749056 38.146416 -16.068634
v -2.018142 38.146416 49.096153
v 1.749056 38.146416 49.096153
v -2.018142 36.128273 49.096153
v 1.749056 36.128273 49.096153
v -2.018142 38.146416 47.899399
v -2.018142 36.128273 47.899399
v 1.749056 36.128273 47.899399
v 1.749056 38.146416 47.899399
v -2.018142 38.146416 44.566475
v -2.018142 36.128273 44.566475
v 1.749056 36.128273 44.566475
v 1.749056 38.146416 44.566475
v -2.549625 35.152332 44.566475
v 2.280540 35.152332 44.566475
v 2.280540 35.152332 47.899399
v -2.549625 35.152332 47.899399
v 4.911759 18.896963 43.145798
v 1.876125 18.896963 40.940281
v -1.876126 18.896963 40.940281
v -4.911760 18.896963 43.145798
v -6.071269 18.896963 46.714401
v -4.911759 18.896963 50.283005
v -1.876125 18.896963 52.488522
v 1.876125 18.896963 52.488522
v 4.911759 18.896963 50.283005
v 6.071268 18.896963 46.714401
v 2.613342 25.971334 44.815697
v 0.998206 25.971334 43.642231
v -0.998213 25.971334 43.642231
v -2.613343 25.971334 44.815693
v -3.230275 25.971334 46.714401
v -2.613343 25.971334 48.613110
v -0.998206 25.971334 49.786572
v 0.998213 25.971334 49.786572
v 2.613342 25.971334 48.613110
v 3.230274 25.971334 46.714401
v 0.000000 18.896963 46.714401
v -0.000000 25.971334 46.714401
v 2.959638 23.099489 44.564098
v 1.130479 23.099489 43.235138
v -1.130485 23.099489 43.235138
v -2.959639 23.099489 44.564095
v -3.658317 23.099489 46.714401
v -2.959639 23.099489 48.864708
v -1.130480 23.099489 50.193665
v 1.130484 23.099489 50.193665
v 2.959638 23.099489 48.864708
v 3.658317 23.099489 46.714401
v -5.753942 19.237991 47.088398
v -4.874867 19.237991 49.793911
v -3.239569 22.758461 48.605801
v -3.732605 22.758461 47.088398
v -6.892045 20.147068 47.394669
v -6.012970 20.147068 50.100182
v -3.723911 22.950481 48.912071
v -4.216947 22.950481 47.394669
vt 0.982958 0.479182
vt 0.973546 0.479182
vt 0.968840 0.487334
vt 0.973546 0.495485
vt 0.982958 0.495485
vt 0.987664 0.487334
vt 0.941532 0.378339
vt 0.949125 0.378339
vt 0.956719 0.378339
vt 0.964312 0.378339
vt 0.971905 0.378339
vt 0.979499 0.378339
vt 0.987092 0.378339
vt 0.941532 0.446851
vt 0.949125 0.446851
vt 0.956719 0.446851
vt 0.964312 0.446851
vt 0.971905 0.446851
vt 0.979499 0.446851
vt 0.987092 0.446851
vt 0.972432 0.454519
vt 0.963020 0.454519
vt 0.958314 0.462670
vt 0.963020 0.470822
vt 0.972432 0.470822
vt 0.977138 0.462670
vt 0.978252 0.486957
vt 0.967726 0.462294
vt 0.534780 0.799400
vt 0.479979 0.809966
vt 0.474318 0.780608
vt 0.529119 0.770042
vt 0.372162 0.981957
vt 0.372162 0.882295
vt 0.427972 0.882295
vt 0.427972 0.981957
vt 0.372162 0.947075
vt 0.372162 0.917177
vt 0.427972 0.917177
vt 0.427972 0.947075
vt 0.372162 0.981957
vt 0.372162 0.882295
vt 0.427972 0.882295
vt 0.427972 0.981957
vt 0.451891 0.917177
vt 0.451891 0.947075
vt 0.352229 0.947075
vt 0.352229 0.917177
vt 0.451891 0.947075
vt 0.352229 0.947075
vt 0.352229 0.917177
vt 0.451891 0.917177
vt 0.372162 0.882295
vt 0.427972 0.882295
vt 0.451891 0.981957
vt 0.352229 0.981957
vt 0.234105 0.796794
vt 0.234105 0.761912
vt 0.289916 0.761912
vt 0.289916 0.796794
vt 0.451891 0.981957
vt 0.352229 0.981957
vt 0.234105 0.732014
vt 0.234105 0.697132
vt 0.289916 0.697132
vt 0.289916 0.732014
vt 0.352229 0.882295
vt 0.451891 0.882295
vt 0.372162 0.981957
vt 0.427972 0.981957
vt 0.352229 0.882295
vt 0.451891 0.882295
vt 0.352229 0.882295
vt 0.352229 0.981957
vt 0.352229 0.947075
vt 0.352229 0.981957
vt 0.352229 0.917177
vt 0.352229 0.882295
vt 0.352229 0.882295
vt 0.352229 0.981957
vt 0.214173 0.761912
vt 0.214173 0.796794
vt 0.214173 0.732014
vt 0.214173 0.697132
vt 0.451891 0.947075
vt 0.451891 0.981957
vt 0.451891 0.882295
vt 0.451891 0.981957
vt 0.313834 0.697132
vt 0.313834 0.732014
vt 0.313834 0.761912
vt 0.313834 0.796794
vt 0.451891 0.882295
vt 0.451891 0.981957
vt 0.451891 0.882295
vt 0.451891 0.917177
vt 0.208850 0.869917
vt 0.178928 0.869807
vt 0.178979 0.852059
vt 0.208910 0.852154
vt 0.061679 0.026395
vt 0.005883 0.026398
vt 0.005892 0.008667
vt 0.061707 0.008661
vt 0.579547 0.820296
vt 0.634586 0.811054
vt 0.637523 0.828539
vt 0.582483 0.837781
vt 0.175136 0.871343
vt 0.145302 0.871676
vt 0.145102 0.854004
vt 0.174950 0.853667
vt 0.179154 0.802639
vt 0.209050 0.802727
vt 0.119016 0.828175
vt 0.118050 0.899727
vt 0.068678 0.899060
vt 0.069643 0.827509
vt 0.144499 0.804728
vt 0.174399 0.804371
vt 0.061698 0.075772
vt 0.005888 0.075773
vt 0.181540 0.004116
vt 0.211437 0.004205
vt 0.070614 0.010094
vt 0.126424 0.010094
vt 0.126423 0.808733
vt 0.070613 0.808733
vt 0.134966 0.005962
vt 0.164867 0.005605
vt 0.061696 0.874415
vt 0.005886 0.874415
vt 0.134296 0.823193
vt 0.062743 0.823192
vt 0.128669 0.854205
vt 0.128056 0.804940
vt 0.536088 0.841753
vt 0.480278 0.841753
vt 0.472404 0.827294
vt 0.543962 0.827294
vt 0.225531 0.802771
vt 0.225392 0.852199
vt 0.830958 0.092920
vt 0.863946 0.116785
vt 0.829064 0.151305
vt 0.803590 0.131256
vt 0.889641 0.148945
vt 0.849340 0.174633
vt 0.905826 0.185424
vt 0.863029 0.200497
vt 0.911785 0.222576
vt 0.869929 0.227345
vt 0.910589 0.258531
vt 0.871144 0.253371
vt 0.901513 0.289868
vt 0.866639 0.276555
vt 0.885726 0.317174
vt 0.856673 0.296368
vt 0.864344 0.338931
vt 0.842093 0.312237
vt 0.839254 0.353965
vt 0.823995 0.323759
vt 0.813016 0.361507
vt 0.803614 0.331277
vt 0.295775 0.867067
vt 0.327483 0.890191
vt 0.276106 0.927427
vt 0.256517 0.867078
vt 0.224774 0.890137
vt 0.212650 0.927441
vt 0.224771 0.964747
vt 0.256506 0.987802
vt 0.295724 0.987800
vt 0.327429 0.964752
vt 0.339576 0.927490
vt 0.199755 0.960940
vt 0.175845 0.978315
vt 0.161060 0.932787
vt 0.146272 0.978311
vt 0.122345 0.960922
vt 0.113210 0.932789
vt 0.122357 0.904661
vt 0.146297 0.887277
vt 0.175900 0.887275
vt 0.199806 0.904716
vt 0.208919 0.932843
vt 0.866043 0.011766
vt 0.925385 0.052986
vt 0.963724 0.106580
vt 0.984918 0.165704
vt 0.989184 0.225290
vt 0.648557 0.484577
vt 0.690701 0.484577
vt 0.684441 0.540662
vt 0.660803 0.540662
vt 0.976717 0.270090
vt 0.961306 0.316883
vt 0.935444 0.357313
vt 0.900981 0.389169
vt 0.860315 0.410536
vt 0.816071 0.419829
vt 0.972397 0.263665
vt 0.982209 0.230377
vt 0.916331 0.253797
vt 0.917247 0.228696
vt 0.440064 0.692503
vt 0.482208 0.692503
vt 0.481313 0.714535
vt 0.439169 0.714535
vt 0.823760 0.237166
vt 0.823760 0.297130
vt 0.815006 0.295384
vt 0.802048 0.240628
vt 0.472681 0.687091
vt 0.449043 0.687091
vt 0.451141 0.678387
vt 0.474779 0.678387
vt 0.835117 0.295036
vt 0.835117 0.235252
vt 0.856819 0.238341
vt 0.843949 0.293936
vn 0.500000 0.000000 -0.866026
vn -0.500000 0.000000 -0.866026
vn -0.500000 0.000000 -0.866026
vn 0.500000 0.000000 -0.866026
vn -1.000000 0.000000 -0.000000
vn -1.000000 0.000000 -0.000000
vn -0.500000 0.000000 0.866026
vn -0.500000 0.000000 0.866026
vn 0.500000 0.000000 0.866026
vn 0.500000 0.000000 0.866026
vn 1.000000 0.000000 0.000000
vn 1.000000 0.000000 0.000000
vn 0.000000 -1.000000 0.000000
vn 0.000000 -1.000000 0.000000
vn 0.000000 -1.000000 0.000001
vn 0.000000 -1.000000 0.000000
vn 0.000000 -1.000000 0.000003
vn 0.000000 -1.000000 0.000003
vn 0.000000 -1.000000 0.000000
vn 0.000000 1.000000 0.000000
vn 0.000000 1.000000 0.000000
vn 0.000000 1.000000 0.000000
vn 0.000000 1.000000 0.000000
vn 0.000000 1.000000 0.000000
vn 0.000000 1.000000 0.000000
vn 0.000000 1.000000 0.000000
vn 0.000000 0.000000 1.000000
vn 0.000000 0.000000 1.000000
vn 0.000000 0.000000 1.000000
vn 0.000000 0.000000 1.000000
vn 0.000000 1.000000 0.000000
vn 0.000000 1.000000 0.000000
vn 0.000000 1.000000 0.000000
vn 0.000000 1.000000 0.000000
vn 0.000000 0.000000 -1.000000
vn 0.000000 0.000000 -1.000000
vn 0.000000 0.000000 -1.000000
vn 0.000000 0.000000 -1.000000
vn 0.000000 -1.000000 0.000000
vn 0.000000 -1.000000 0.000000
vn 0.000000 -1.000000 0.000000
vn 0.000000 -1.000000 0.000000
vn 1.000000 0.000000 0.000000
vn 1.000000 0.000000 0.000000
vn 1.000000 0.000000 0.000000
vn 1.000000 0.000000 0.000000
vn -1.000000 0.000000 0.000000
vn -1.000000 0.000000 0.000000
vn -1.000000 0.000000 0.000000
vn -1.000000 0.000000 0.000000
vn 0.000000 0.000000 -1.000000
vn 0.000000 0.000000 -1.000000
vn 1.000000 0.000000 0.000000
vn 1.000000 0.000000 0.000000
vn 0.000000 0.000000 1.000000
vn 0.000000 0.000000 1.000000
vn 0.000000 0.000000 1.000000
vn 0.000000 0.000000 1.000000
vn -1.000000 0.000000 0.000000
vn -1.000000 0.000000 0.000000
vn 0.000000 0.000000 1.000000
vn 0.000000 0.000000 1.000000
vn 0.000000 0.000000 1.000000
vn 0.000000 0.000000 1.000000
vn 1.000000 0.000000 0.000000
vn 1.000000 0.000000 0.000000
vn 0.000000 0.000000 -1.000000
vn 0.000000 0.000000 -1.000000
vn -1.000000 0.000000 0.000000
vn -1.000000 0.000000 0.000000
vn 0.000000 -1.000000 0.000000
vn 0.000000 -1.000000 0.000000
vn 0.000000 0.000000 -1.000000
vn 0.000000 0.000000 -1.000000
vn 0.000000 0.000000 -1.000000
vn 0.000000 0.000000 -1.000000
vn 0.000000 1.000000 0.000000
vn 0.000000 1.000000 0.000000
vn 0.000000 0.000000 1.000000
vn 0.000000 0.000000 1.000000
vn 0.000000 0.000000 1.000000
vn 0.000000 0.000000 1.000000
vn 0.000000 0.000000 -1.000000
vn 0.000000 0.000000 -1.000000
vn 0.000000 -1.000000 0.000000
vn 0.000000 -1.000000 0.000000
vn 0.000000 0.000000 1.000000
vn 0.000000 0.000000 1.000000
vn 0.000000 0.000000 1.000000
vn 0.000000 0.000000 1.000000
vn 0.000000 1.000000 0.000000
vn 0.000000 1.000000 0.000000
vn 0.000000 0.000000 -1.000000
vn 0.000000 0.000000 -1.000000
vn -1.000000 0.000000 0.000000
vn -1.000000 0.000000 0.000000
vn -1.000000 0.000000 0.000000
vn -1.000000 0.000000 0.000000
vn 0.000000 1.000000 0.000000
vn 0.000000 1.000000 0.000000
vn 0.000000 1.000000 0.000000
vn 0.000000 1.000000 0.000000
vn 0.000000 -1.000000 0.000000
vn 0.000000 -1.000000 0.000000
vn 0.000000 -1.000000 0.000000
vn 0.000000 -1.000000 0.000000
vn 1.000000 0.000000 0.000000
vn 1.000000 0.000000 0.000000
vn 1.000000 0.000000 0.000000
vn 1.000000 0.000000 0.000000
vn -1.000000 0.000000 0.000000
vn -1.000000 0.000000 0.000000
vn 0.000000 -1.000000 0.000000
vn 0.000000 -1.000000 0.000000
vn 0.000000 -1.000000 0.000000
vn 0.000000 -1.000000 0.000000
vn 1.000000 0.000000 0.000000
vn 1.000000 0.000000 0.000000
vn 0.000000 1.000000 0.000000
vn 0.000000 1.000000 0.000000
vn -1.000000 0.000000 0.000000
vn -1.000000 0.000000 0.000000
vn 0.000000 -1.000000 0.000000
vn 0.000000 -1.000000 0.000000
vn 0.000000 -1.000000 0.000000
vn 0.000000 -1.000000 0.000000
vn 1.000000 0.000000 0.000000
vn 1.000000 0.000000 0.000000
vn 0.000000 1.000000 0.000000
vn 0.000000 1.000000 0.000000
vn 0.000000 0.000000 -1.000000
vn 0.000000 0.000000 -1.000000
vn 0.000000 0.000000 -1.000000
vn 0.000000 0.000000 -1.000000
vn 0.878216 0.478264 0.000000
vn 0.878216 0.478264 0.000000
vn 0.878216 0.478264 0.000000
vn 0.878216 0.478264 0.000000
vn 0.000000 0.000000 1.000000
vn 0.000000 0.000000 1.000000
vn 0.000000 0.000000 1.000000
vn 0.000000 0.000000 1.000000
vn -0.878216 0.478264 0.000000
vn -0.878216 0.478264 0.000000
vn -0.878216 0.478264 0.000000
vn -0.878216 0.478264 0.000000
vn 0.738639 0.407940 -0.536653
vn 0.282135 0.407940 -0.868323
vn 0.305641 0.147420 -0.940665
vn 0.800177 0.147420 -0.581364
vn -0.282135 0.407940 -0.868323
vn -0.305641 0.147420 -0.940665
vn -0.738640 0.407940 -0.536653
vn -0.800178 0.147420 -0.581363
vn -0.923297 0.357188 -0.141208
vn -0.989074 0.147420 0.000000
vn -0.663963 0.357188 0.656940
vn -0.800177 0.147420 0.581364
vn -0.282135 0.407940 0.868323
vn -0.305641 0.147420 0.940665
vn 0.282136 0.407940 0.868323
vn 0.305641 0.147420 0.940665
vn 0.738640 0.407940 0.536653
vn 0.800178 0.147420 0.581363
vn 0.913009 0.407940 0.000000
vn 0.989074 0.147420 0.000000
vn 0.000000 -1.000000 0.000000
vn 0.000000 -1.000000 0.000000
vn 0.000000 -1.000000 0.000000
vn 0.000000 -1.000000 0.000000
vn 0.000000 -1.000000 0.000000
vn 0.000000 -1.000000 0.000000
vn 0.000000 -1.000000 0.000000
vn 0.000000 -1.000000 0.000000
vn 0.000000 -1.000000 -0.000000
vn 0.000000 -1.000000 -0.000000
vn 0.000000 -1.000000 0.000000
vn 0.000000 1.000000 0.000001
vn 0.000000 1.000000 0.000001
vn 0.000000 1.000000 0.000000
vn 0.000000 1.000000 0.000000
vn 0.000000 1.000000 -0.000001
vn 0.000000 1.000000 0.000000
vn 0.000000 1.000000 0.000001
vn 0.000000 1.000000 0.000001
vn 0.000000 1.000000 -0.000000
vn 0.000000 1.000000 -0.000001
vn 0.000000 1.000000 0.000000
vn 0.701594 0.497928 -0.509738
vn 0.267985 0.497929 -0.824773
vn -0.267985 0.497928 -0.824774
vn -0.701595 0.497928 -0.509738
vn -0.834714 0.479265 -0.271215
vn -0.704273 0.672038 0.228833
vn -0.704273 0.672038 0.228833
vn -0.704273 0.672038 0.228833
vn -0.704273 0.672038 0.228833
vn -0.553095 0.485427 0.677087
vn -0.267985 0.497929 0.824773
vn 0.267985 0.497928 0.824773
vn 0.701595 0.497928 0.509738
vn 0.867218 0.497928 0.000000
vn -0.834712 0.479267 0.271217
vn -0.834713 0.479268 0.271215
vn -0.834712 0.479267 0.271217
vn -0.834713 0.479267 0.271215
vn -0.834713 0.479266 0.271218
vn -0.581338 -0.791434 0.188888
vn -0.581338 -0.791434 0.188888
vn -0.581338 -0.791434 0.188888
vn -0.581338 -0.791434 0.188888
vn 0.404963 0.090568 0.909837
vn 0.404963 0.090568 0.909837
vn 0.404963 0.090568 0.909837
vn 0.404963 0.090568 0.909837
vn 0.310823 0.945087 -0.100994
vn 0.310823 0.945087 -0.100994
vn 0.310823 0.945087 -0.100994
vn 0.310823 0.945087 -0.100994
vn -0.239587 0.177928 -0.954432
vn -0.239587 0.177928 -0.954432
vn -0.239587 0.177927 -0.954432
vn -0.239587 0.177927 -0.954432
s 1
g pCylinder24
f 1/7/1 2/8/2 8/15/3 7/14/4
f 2/8/2 3/9/5 9/16/6 8/15/3
f 3/9/5 4/10/7 10/17/8 9/16/6
f 4/10/7 5/11/9 11/18/10 10/17/8
f 5/11/9 6/12/11 12/19/12 11/18/10
f 6/12/11 1/13/1 7/20/4 12/19/12
s 2
f 2/2/13 1/1/14 13/27/15
f 3/3/16 2/2/13 13/27/15
f 4/4/17 3/3/16 13/27/15
f 5/5/18 4/4/17 13/27/15
f 6/6/19 5/5/18 13/27/15
f 1/1/14 6/6/19 13/27/15
s 3
f 7/25/20 8/24/21 14/28/22
f 8/24/21 9/23/23 14/28/22
f 9/23/23 10/22/24 14/28/22
f 10/22/24 11/21/25 14/28/22
f 11/21/25 12/26/26 14/28/22
f 12/26/26 7/25/20 14/28/22
s off
f 48/29/27 47/30/28 49/31/29 50/32/30
s 4
f 35/33/31 36/34/32 44/35/33 45/36/34
s 5
f 33/37/35 34/38/36 46/39/37 39/40/38
s 6
f 31/41/39 32/42/40 40/43/41 41/44/42
s 7
f 29/45/43 24/46/44 25/47/45 28/48/46
s 8
f 26/49/47 23/50/48 30/51/49 27/52/50
s 5
f 34/38/36 35/53/51 45/54/52 46/39/37
s 7
f 25/47/45 24/46/44 20/55/53 18/56/54
s 9
f 36/57/55 37/58/56 43/59/57 44/60/58
s 8
f 23/50/48 26/49/47 17/61/59 19/62/60
s 9
f 38/63/61 31/64/62 41/65/63 42/66/64
s 7
f 16/67/65 22/68/66 29/45/43 28/48/46
s 5
f 32/69/67 33/37/35 39/40/38 40/70/68
s 8
f 21/71/69 15/72/70 27/52/50 30/51/49
s 6
f 21/73/71 32/42/40 31/41/39 15/74/72
s 5
f 30/75/73 33/37/35 32/69/67 21/76/74
f 30/75/73 23/77/75 34/38/36 33/37/35
f 19/78/76 35/53/51 34/38/36 23/77/75
s 4
f 17/79/77 36/34/32 35/33/31 19/80/78
s 9
f 26/81/79 37/58/56 36/57/55 17/82/80
f 37/58/56 26/81/79 27/83/81 38/63/61
f 15/84/82 31/64/62 38/63/61 27/83/81
s 5
f 40/70/68 39/40/38 29/85/83 22/86/84
s 6
f 41/44/42 40/43/41 22/87/85 16/88/86
s 9
f 42/66/64 41/65/63 16/89/87 28/90/88
f 28/90/88 25/91/89 43/59/57 42/66/64
f 44/60/58 43/59/57 25/91/89 18/92/90
s 4
f 45/36/34 44/35/33 18/93/91 20/94/92
s 5
f 46/39/37 45/54/52 20/95/93 24/96/94
f 39/40/38 46/39/37 24/96/94 29/85/83
s 11
f 49/97/95 47/98/96 51/99/97 52/100/98
s 12
f 54/101/99 51/102/100 47/103/101 48/104/102
s off
f 52/105/103 53/106/104 50/107/105 49/108/106
s 13
f 48/109/107 50/110/108 53/111/109 54/112/110
s 11
f 52/100/98 51/99/97 55/113/111 56/114/112
s off
f 59/115/113 60/116/114 61/117/115 62/118/116
s 13
f 54/112/110 53/111/109 57/119/117 58/120/118
s 12
f 58/121/119 55/122/120 51/102/100 54/101/99
s 11
f 55/113/111 37/123/121 38/124/122 56/114/112
s off
f 38/125/123 42/126/124 57/127/125 56/128/126
s 13
f 57/119/117 42/129/127 43/130/128 58/120/118
s 12
f 43/131/129 37/132/130 55/122/120 58/121/119
s off
f 56/128/131 57/127/132 60/133/133 59/134/134
f 57/119/135 53/111/136 61/135/137 60/136/138
f 53/137/139 52/138/140 62/139/141 61/140/142
f 52/100/143 56/114/144 59/141/145 62/142/146
s 14
f 85/143/147 86/144/148 74/145/149 73/146/150
f 86/144/148 87/147/151 75/148/152 74/145/149
f 87/147/151 88/149/153 76/150/154 75/148/152
f 88/149/153 89/151/155 77/152/156 76/150/154
f 89/151/155 90/153/157 78/154/158 77/152/156
f 90/153/157 91/155/159 79/156/160 78/154/158
f 91/155/159 92/157/161 80/158/162 79/156/160
f 92/157/161 93/159/163 81/160/164 80/158/162
f 93/159/163 94/161/165 82/162/166 81/160/164
f 94/161/165 85/163/147 73/164/150 82/162/166
s 15
f 64/165/167 63/166/168 83/167/169
f 65/168/170 64/165/167 83/167/169
f 66/169/171 65/168/170 83/167/169
f 67/170/172 66/169/171 83/167/169
f 68/171/173 67/170/172 83/167/169
f 69/172/174 68/171/173 83/167/169
f 70/173/175 69/172/174 83/167/169
f 71/174/176 70/173/175 83/167/169
f 72/175/177 71/174/176 83/167/169
f 63/166/168 72/175/177 83/167/169
s 16
f 73/176/178 74/177/179 84/178/180
f 74/177/179 75/179/181 84/178/180
f 75/179/181 76/180/182 84/178/180
f 76/180/182 77/181/183 84/178/180
f 77/181/183 78/182/184 84/178/180
f 78/182/184 79/183/185 84/178/180
f 79/183/185 80/184/186 84/178/180
f 80/184/186 81/185/187 84/178/180
f 81/185/187 82/186/188 84/178/180
f 82/186/188 73/176/178 84/178/180
s 14
f 63/187/189 64/188/190 86/144/148 85/143/147
f 64/188/190 65/189/191 87/147/151 86/144/148
f 65/189/191 66/190/192 88/149/153 87/147/151
f 66/190/192 67/191/193 89/151/155 88/149/153
s off
f 99/192/194 100/193/195 101/194/196 102/195/197
s 14
f 68/196/198 69/197/199 91/155/159 90/153/157
f 69/197/199 70/198/200 92/157/161 91/155/159
f 70/198/200 71/199/201 93/159/163 92/157/161
f 71/199/201 72/200/202 94/161/165 93/159/163
f 72/200/202 63/201/189 85/163/147 94/161/165
f 67/191/203 68/196/198 96/202/204 95/203/205
f 68/196/198 90/153/157 97/204/206 96/202/204
f 90/153/157 89/151/155 98/205/207 97/204/206
f 89/151/155 67/191/203 95/203/205 98/205/207
s off
f 95/206/208 96/207/209 100/208/210 99/209/211
f 96/210/212 97/211/213 101/212/214 100/213/215
f 97/214/216 98/215/217 102/216/218 101/217/219
f 98/218/220 95/219/221 99/220/222 102/221/223
