# This file uses centimeters as units for non-parametric coordinates.

g default
v -0.287470 -2.120594 -0.868443
v -0.287470 -0.885404 -2.113568
v -0.287470 0.868443 -2.120594
v -0.287470 2.113567 -0.885405
v -0.287470 2.120594 0.868442
v -0.287470 0.885405 2.113568
v -0.287470 -0.868443 2.120594
v -0.287470 -2.113567 0.885405
v 0.287470 -2.120594 -0.868443
v 0.287470 -0.885404 -2.113568
v 0.287470 0.868443 -2.120594
v 0.287470 2.113567 -0.885405
v 0.287470 2.120594 0.868442
v 0.287470 0.885405 2.113568
v 0.287470 -0.868443 2.120594
v 0.287470 -2.113567 0.885405
v -0.287470 0.000000 -0.000000
v 0.287470 0.000000 -0.000000
vt 0.087013 0.803129
vt 0.088633 0.693525
vt 0.122943 0.803660
vt 0.122943 0.803660
vt 0.088633 0.693525
vt 0.122943 0.803660
vt 0.088633 0.693525
vt 0.090036 0.693107
vt 0.121540 0.804078
vt 0.088633 0.693525
vt 0.122943 0.803661
vt 0.088633 0.693525
vt 0.122943 0.803661
vt 0.088633 0.693525
vt 0.122943 0.803660
vt 0.122943 0.803660
vt 0.088633 0.693525
vt 0.124563 0.694056
vt 0.682506 0.274632
vt 0.604105 0.198077
vt 0.735838 0.141786
vt 0.792079 0.273541
vt 0.868759 0.195141
vt 0.867536 0.085515
vt 0.789192 0.008887
vt 0.679609 0.010070
vt 0.602922 0.088418
vt 0.870688 0.476381
vt 0.792628 0.553133
vt 0.738852 0.420390
vt 0.683349 0.552535
vt 0.606312 0.474907
vt 0.606599 0.365386
vt 0.684361 0.288034
vt 0.794200 0.288412
vt 0.871536 0.366562
vt 0.087013 0.803130
vt 0.087013 0.803129
vt 0.124563 0.694056
vt 0.087013 0.803129
vt 0.124563 0.694055
vt 0.087013 0.803129
vt 0.124563 0.694056
vt 0.085635 0.802635
vt 0.125941 0.694550
vt 0.124563 0.694056
vt 0.087013 0.803129
vt 0.124563 0.694056
vt 0.087013 0.803129
vt 0.124563 0.694056
vn 0.000000 -0.709934 -0.704269
vn 0.000000 -0.709934 -0.704269
vn 0.000000 -0.709934 -0.704269
vn 0.000000 -0.709934 -0.704269
vn 0.000000 -0.004006 -0.999992
vn 0.000000 -0.004006 -0.999992
vn 0.000000 -0.004006 -0.999992
vn 0.000000 -0.004006 -0.999992
vn 0.000000 0.704269 -0.709934
vn 0.000000 0.704269 -0.709934
vn 0.000000 0.704269 -0.709934
vn 0.000000 0.704269 -0.709934
vn 0.000000 0.999992 -0.004006
vn 0.000000 0.999992 -0.004006
vn 0.000000 0.999992 -0.004006
vn 0.000000 0.999992 -0.004006
vn 0.000000 0.709934 0.704268
vn 0.000000 0.709934 0.704268
vn 0.000000 0.709934 0.704268
vn 0.000000 0.709934 0.704268
vn 0.000000 0.004006 0.999992
vn 0.000000 0.004006 0.999992
vn 0.000000 0.004006 0.999992
vn 0.000000 0.004006 0.999992
vn 0.000000 -0.704269 0.709933
vn 0.000000 -0.704269 0.709933
vn 0.000000 -0.704269 0.709933
vn 0.000000 -0.704269 0.709933
vn 0.000000 -0.999992 0.004006
vn 0.000000 -0.999992 0.004006
vn 0.000000 -0.999992 0.004006
vn 0.000000 -0.999992 0.004006
vn -1.000000 0.000000 0.000000
vn -1.000000 0.000000 0.000000
vn -1.000000 -0.000000 0.000000
vn -1.000000 -0.000000 0.000000
vn -1.000000 -0.000000 0.000000
vn -1.000000 0.000000 0.000000
vn -1.000000 0.000000 0.000000
vn -1.000000 -0.000000 0.000000
vn -1.000000 -0.000000 0.000000
vn 1.000000 0.000000 0.000000
vn 1.000000 0.000000 0.000000
vn 1.000000 -0.000000 0.000000
vn 1.000000 -0.000000 0.000000
vn 1.000000 -0.000000 0.000000
vn 1.000000 0.000000 0.000000
vn 1.000000 0.000000 0.000000
vn 1.000000 -0.000000 0.000000
vn 1.000000 -0.000000 0.000000
s off
g angle_sign
f 1/1/1 2/2/2 10/50/3 9/4/4
f 2/49/5 3/5/6 11/48/7 10/3/8
f 3/47/9 4/7/10 12/46/11 11/6/12
f 4/45/13 5/9/14 13/44/15 12/8/16
f 5/43/17 6/11/18 14/42/19 13/10/20
f 6/41/21 7/13/22 15/40/23 14/12/24
f 7/39/25 8/15/26 16/38/27 15/14/28
f 8/37/29 1/17/30 9/18/31 16/16/32
s 1
f 2/19/33 1/20/34 17/21/35
f 3/22/36 2/19/33 17/21/35
f 4/23/37 3/22/36 17/21/35
f 5/24/38 4/23/37 17/21/35
f 6/25/39 5/24/38 17/21/35
f 7/26/40 6/25/39 17/21/35
f 8/27/41 7/26/40 17/21/35
f 1/20/34 8/27/41 17/21/35
s 2
f 9/28/42 10/29/43 18/30/44
f 10/29/43 11/31/45 18/30/44
f 11/31/45 12/32/46 18/30/44
f 12/32/46 13/33/47 18/30/44
f 13/33/47 14/34/48 18/30/44
f 14/34/48 15/35/49 18/30/44
f 15/35/49 16/36/50 18/30/44
f 16/36/50 9/28/42 18/30/44
