# This file uses centimeters as units for non-parametric coordinates.

mtllib dendy_discette.mtl
g default
v -0.018301 0.004228 -0.014081
v 0.018301 0.004205 -0.014081
v -0.019719 -0.004228 -0.014081
v 0.019719 -0.004228 -0.014081
v -0.019719 -0.006692 0.010209
v -0.017911 -0.002887 0.014081
v 0.017911 -0.002887 0.014081
v 0.019719 -0.006692 0.010209
v -0.017911 0.004120 0.014081
v -0.018301 0.006692 0.010209
v 0.017911 0.004120 0.014081
v 0.018301 0.006669 0.010209
vt 0.753391 0.757943
vt 0.444607 0.753909
vt 0.493473 0.751167
vt 0.853642 0.678377
vt 0.838277 0.945362
vt 0.404129 0.784250
vt 0.440223 0.479186
vt 0.717544 0.978194
vt 0.753502 0.757980
vt 0.489137 0.480357
vt 0.538022 0.472752
vt 0.838172 0.945325
vt 0.066041 0.893598
vt 0.851367 0.469363
vt 0.524971 0.760247
vt 0.520223 0.470287
vt 0.540296 0.681766
vt 0.327291 0.893614
vt 0.772229 0.945320
vt 0.337450 0.953799
vt 0.717508 0.784193
vt 0.857117 0.758006
vt 0.055952 0.953962
vt 0.772128 0.945358
vt 0.857227 0.757969
vt 0.407480 0.773840
vt 0.404164 0.978251
vt 0.402472 0.460454
vn -0.000000 0.000000 -1.000000
vn -0.000000 0.000000 -1.000000
vn -0.000000 0.000000 -1.000000
vn -0.000000 0.000000 -1.000000
vn -0.962563 0.066951 0.262660
vn -0.962563 0.066951 0.262660
vn -0.962563 0.066951 0.262660
vn -0.962563 0.066951 0.262660
vn 0.000000 -0.713258 0.700901
vn 0.000000 -0.713258 0.700901
vn 0.000000 -0.713258 0.700901
vn 0.000000 -0.713258 0.700901
vn 0.962612 0.067031 0.262459
vn 0.962612 0.067031 0.262459
vn 0.962612 0.067031 0.262459
vn 0.962612 0.067031 0.262459
vn 0.000270 0.834086 0.551634
vn 0.000270 0.834086 0.551634
vn 0.000270 0.834086 0.551634
vn 0.000270 0.834086 0.551634
vn 0.000000 -0.994893 -0.100932
vn 0.000000 -0.994893 -0.100932
vn 0.000000 -0.994893 -0.100932
vn 0.000000 -0.994893 -0.100932
vn 0.000000 0.000000 1.000000
vn 0.000000 0.000000 1.000000
vn 0.000000 0.000000 1.000000
vn 0.000000 0.000000 1.000000
vn 0.000637 0.994893 -0.100932
vn 0.000637 0.994893 -0.100932
vn 0.000637 0.994893 -0.100932
vn 0.000637 0.994893 -0.100932
vn 0.991636 0.129069 0.000000
vn 0.991636 0.129069 0.000000
vn 0.991636 0.129069 0.000000
vn 0.991636 0.129069 0.000000
vn -0.991671 0.128797 0.000000
vn -0.991671 0.128797 0.000000
vn -0.991671 0.128797 0.000000
vn -0.991671 0.128797 0.000000
s off
g dendy_discete
usemtl initialShadingGroup
f 1/13/1 2/18/2 4/20/3 3/23/4
f 5/26/5 6/2/6 9/3/7 10/15/8
f 6/2/9 5/26/10 8/28/11 7/7/12
f 7/7/13 8/28/14 12/16/15 11/10/16
f 10/15/17 9/3/18 11/10/19 12/16/20
f 3/6/21 4/21/22 8/8/23 5/27/24
f 6/2/25 7/7/26 11/10/27 9/3/28
f 10/4/29 12/17/30 2/11/31 1/14/32
f 2/19/33 12/9/34 8/22/35 4/12/36
f 10/25/37 1/5/38 3/24/39 5/1/40
