# This file uses centimeters as units for non-parametric coordinates.

g default
v 0.286043 0.000000 0.104111
v 0.270924 0.021051 0.098608
v 0.050701 0.021051 0.018454
v 0.233184 0.000000 0.195664
v 0.220860 0.021051 0.185323
v 0.041332 0.021051 0.034681
v 0.152201 0.000000 0.263618
v 0.144156 0.021051 0.249685
v 0.026978 0.021051 0.046726
v 0.052858 0.000000 0.299775
v 0.050065 0.021051 0.283931
v 0.009370 0.021051 0.053135
v -0.052857 0.000000 0.299775
v -0.050064 0.021051 0.283931
v -0.009368 0.021051 0.053135
v -0.152196 0.000000 0.263618
v -0.144156 0.021051 0.249685
v -0.026977 0.021051 0.046726
v -0.233183 0.000000 0.195664
v -0.220859 0.021051 0.185323
v -0.041331 0.021051 0.034681
v -0.286041 0.000000 0.104111
v -0.270924 0.021051 0.098608
v -0.050700 0.021051 0.018454
v -0.304399 0.000000 0.000000
v -0.288311 0.021051 0.000000
v -0.053954 0.021051 0.000000
v -0.286041 0.000000 -0.104111
v -0.270924 0.021051 -0.098608
v -0.050700 0.021051 -0.018454
v -0.233183 0.000000 -0.195664
v -0.220859 0.021051 -0.185323
v -0.041331 0.021051 -0.034681
v -0.152199 0.000000 -0.263618
v -0.144156 0.021051 -0.249684
v -0.026977 0.021051 -0.046726
v -0.052857 0.000000 -0.299775
v -0.050065 0.021051 -0.283931
v -0.009369 0.021051 -0.053135
v 0.052858 0.000000 -0.299775
v 0.050065 0.021051 -0.283931
v 0.009370 0.021051 -0.053135
v 0.152201 0.000000 -0.263618
v 0.144156 0.021051 -0.249684
v 0.026978 0.021051 -0.046726
v 0.233184 0.000000 -0.195664
v 0.220860 0.021051 -0.185323
v 0.041332 0.021051 -0.034681
v 0.286042 0.000000 -0.104111
v 0.270924 0.021051 -0.098608
v 0.050701 0.021051 -0.018454
v 0.304399 0.000000 0.000000
v 0.288312 0.021051 0.000000
v 0.053956 0.021051 0.000000
v 0.096241 0.021051 -0.080756
v 0.062817 0.021051 -0.108802
v 0.021816 0.021051 -0.123725
v -0.021816 0.021051 -0.123725
v -0.062817 0.021051 -0.108802
v -0.096240 0.021051 -0.080756
v -0.118057 0.021051 -0.042969
v -0.125633 0.021051 0.000000
v -0.118057 0.021051 0.042969
v -0.096240 0.021051 0.080756
v -0.062817 0.021051 0.108802
v -0.021815 0.021051 0.123725
v 0.021816 0.021051 0.123725
v 0.062817 0.021051 0.108802
v 0.096241 0.021051 0.080756
v 0.118057 0.021051 0.042969
v 0.125634 0.021051 0.000000
v 0.118057 0.021051 -0.042969
v 0.270924 -0.021051 0.098608
v 0.050701 -0.021051 0.018454
v 0.220860 -0.021051 0.185323
v 0.041332 -0.021051 0.034681
v 0.144156 -0.021051 0.249685
v 0.026978 -0.021051 0.046726
v 0.050065 -0.021051 0.283931
v 0.009370 -0.021051 0.053135
v -0.050064 -0.021051 0.283931
v -0.009368 -0.021051 0.053135
v -0.144156 -0.021051 0.249685
v -0.026977 -0.021051 0.046726
v -0.220859 -0.021051 0.185323
v -0.041331 -0.021051 0.034681
v -0.270924 -0.021051 0.098608
v -0.050700 -0.021051 0.018454
v -0.288311 -0.021051 0.000000
v -0.053954 -0.021051 0.000000
v -0.270924 -0.021051 -0.098608
v -0.050700 -0.021051 -0.018454
v -0.220859 -0.021051 -0.185323
v -0.041331 -0.021051 -0.034681
v -0.144156 -0.021051 -0.249684
v -0.026977 -0.021051 -0.046726
v -0.050065 -0.021051 -0.283931
v -0.009369 -0.021051 -0.053135
v 0.050065 -0.021051 -0.283931
v 0.009370 -0.021051 -0.053135
v 0.144156 -0.021051 -0.249684
v 0.026978 -0.021051 -0.046726
v 0.220860 -0.021051 -0.185323
v 0.041332 -0.021051 -0.034681
v 0.270924 -0.021051 -0.098608
v 0.050701 -0.021051 -0.018454
v 0.288312 -0.021051 0.000000
v 0.053956 -0.021051 0.000000
v 0.096241 -0.021051 -0.080756
v 0.062817 -0.021051 -0.108802
v 0.021816 -0.021051 -0.123725
v -0.021816 -0.021051 -0.123725
v -0.062817 -0.021051 -0.108802
v -0.096240 -0.021051 -0.080756
v -0.118057 -0.021051 -0.042969
v -0.125633 -0.021051 0.000000
v -0.118057 -0.021051 0.042969
v -0.096240 -0.021051 0.080756
v -0.062817 -0.021051 0.108802
v -0.021815 -0.021051 0.123725
v 0.021816 -0.021051 0.123725
v 0.062817 -0.021051 0.108802
v 0.096241 -0.021051 0.080756
v 0.118057 -0.021051 0.042969
v 0.125634 -0.021051 0.000000
v 0.118057 -0.021051 -0.042969
vt 0.801544 0.557441
vt 0.806965 0.526693
vt 0.806958 0.588192
vt 0.822560 0.615246
vt 0.846482 0.635330
vt 0.875831 0.646013
vt 0.907066 0.646010
vt 0.936415 0.635317
vt 0.960313 0.615237
vt 0.975913 0.588196
vt 0.981325 0.557451
vt 0.975897 0.526709
vt 0.960289 0.499674
vt 0.936377 0.479605
vt 0.907043 0.468922
vt 0.875826 0.468915
vt 0.846491 0.479588
vt 0.822575 0.499655
vt 0.829112 0.535064
vt 0.800805 0.173445
vt 0.758840 0.197529
vt 0.825216 0.557736
vt 0.727661 0.234514
vt 0.829304 0.580376
vt 0.711026 0.279923
vt 0.840887 0.600256
vt 0.710915 0.328266
vt 0.858573 0.614969
vt 0.727336 0.373723
vt 0.880227 0.622743
vt 0.758298 0.410818
vt 0.903233 0.622640
vt 0.800069 0.435089
vt 0.924808 0.614675
vt 0.847617 0.443615
vt 0.942359 0.599808
vt 0.895213 0.435374
vt 0.953766 0.579837
vt 0.937126 0.411356
vt 0.957655 0.557168
vt 0.968308 0.374458
vt 0.953558 0.534536
vt 0.984997 0.329111
vt 0.941972 0.514666
vt 0.985182 0.280781
vt 0.924291 0.499956
vt 0.968827 0.235287
vt 0.902647 0.492180
vt 0.937898 0.198114
vt 0.879651 0.492276
vt 0.896102 0.173763
vt 0.858076 0.500234
vt 0.848483 0.165197
vt 0.840525 0.515095
vt 0.804310 0.036188
vt 0.813079 0.036188
vt 0.813079 0.015216
vt 0.804310 0.015216
vt 0.821847 0.036188
vt 0.821847 0.015216
vt 0.953060 0.035093
vt 0.900678 0.274303
vt 0.907789 0.294155
vt 0.907688 0.315212
vt 0.900409 0.334960
vt 0.886822 0.351009
vt 0.868575 0.361465
vt 0.847857 0.365044
vt 0.827164 0.361349
vt 0.808974 0.350782
vt 0.795477 0.334645
vt 0.788302 0.314839
vt 0.788331 0.293768
vt 0.795566 0.273950
vt 0.809138 0.257813
vt 0.827431 0.247295
vt 0.848234 0.243695
vt 0.868997 0.247431
vt 0.975917 0.526733
vt 0.953769 0.535098
vt 0.957663 0.557767
vt 0.981336 0.557480
vt 0.788338 0.314765
vt 0.795544 0.334560
vt 0.953570 0.580399
vt 0.975913 0.588226
vt 0.788338 0.293700
vt 0.941982 0.600265
vt 0.960300 0.615263
vt 0.795542 0.273905
vt 0.924298 0.614971
vt 0.936382 0.635329
vt 0.809084 0.257769
vt 0.902651 0.622741
vt 0.907044 0.646004
vt 0.827327 0.247237
vt 0.879652 0.622638
vt 0.875823 0.646000
vt 0.848072 0.243578
vt 0.858074 0.614675
vt 0.846489 0.635318
vt 0.868817 0.247236
vt 0.840518 0.599815
vt 0.822570 0.615252
vt 0.887059 0.257769
vt 0.829102 0.579846
vt 0.806957 0.588215
vt 0.900599 0.273906
vt 0.825205 0.557177
vt 0.801532 0.557468
vt 0.907803 0.293701
vt 0.829296 0.534541
vt 0.806950 0.526718
vt 0.907803 0.314765
vt 0.840883 0.514671
vt 0.822561 0.499674
vt 0.900599 0.334560
vt 0.858569 0.499962
vt 0.846481 0.479602
vt 0.887059 0.350696
vt 0.880219 0.492191
vt 0.875826 0.468925
vt 0.868816 0.361228
vt 0.903222 0.492293
vt 0.907053 0.468929
vt 0.848071 0.364887
vt 0.924802 0.500260
vt 0.936394 0.479616
vt 0.827326 0.361229
vt 0.942357 0.515127
vt 0.960309 0.499692
vt 0.809083 0.350697
vt 0.895677 0.435031
vt 0.848071 0.443425
vt 0.937542 0.410860
vt 0.968615 0.373829
vt 0.985149 0.328404
vt 0.985149 0.280063
vt 0.968615 0.234637
vt 0.937543 0.197606
vt 0.895679 0.173435
vt 0.848072 0.165040
vt 0.800466 0.173434
vt 0.758601 0.197605
vt 0.727527 0.234636
vt 0.710993 0.280062
vt 0.710993 0.328403
vt 0.727527 0.373829
vt 0.758599 0.410861
vt 0.800464 0.435031
vt 0.830615 0.036188
vt 0.830615 0.015216
vt 0.839383 0.036188
vt 0.690323 0.036188
vt 0.690323 0.015216
vt 0.699091 0.036188
vt 0.699091 0.015216
vt 0.707859 0.036188
vt 0.707859 0.015216
vt 0.716628 0.036188
vt 0.716628 0.015216
vt 0.725396 0.036188
vt 0.725396 0.015216
vt 0.734164 0.036188
vt 0.734164 0.015216
vt 0.742932 0.036188
vt 0.742932 0.015216
vt 0.751701 0.036188
vt 0.751701 0.015216
vt 0.760469 0.036188
vt 0.760469 0.015216
vt 0.769237 0.036188
vt 0.769237 0.015216
vt 0.778005 0.036188
vt 0.778005 0.015216
vt 0.786774 0.036188
vt 0.786774 0.015216
vt 0.795542 0.036188
vt 0.795542 0.015216
vt 0.923016 0.057106
vt 0.930853 0.061630
vt 0.914106 0.055542
vt 0.905198 0.057116
vt 0.897364 0.061637
vt 0.891555 0.068563
vt 0.888465 0.077065
vt 0.888465 0.086110
vt 0.891559 0.094612
vt 0.897369 0.101543
vt 0.905202 0.106059
vt 0.914115 0.107628
vt 0.923025 0.106058
vt 0.930861 0.101536
vt 0.936673 0.094609
vt 0.939761 0.086104
vt 0.939763 0.077057
vt 0.936671 0.068561
vt 0.923007 0.057110
vt 0.914094 0.055549
vt 0.930843 0.061627
vt 0.936668 0.068546
vt 0.939768 0.077049
vt 0.939775 0.086099
vt 0.936691 0.094593
vt 0.930883 0.101534
vt 0.923054 0.106071
vt 0.914145 0.107651
vt 0.905233 0.106090
vt 0.897401 0.101574
vt 0.891577 0.094650
vt 0.888469 0.086153
vt 0.888460 0.077104
vt 0.891547 0.068600
vt 0.897358 0.061669
vt 0.905186 0.057135
vt 0.953094 0.035116
vt 0.934846 0.024586
vt 0.914109 0.020942
vt 0.893355 0.024591
vt 0.875108 0.035128
vt 0.861577 0.051269
vt 0.854383 0.071058
vt 0.854380 0.092126
vt 0.861589 0.111923
vt 0.875144 0.128055
vt 0.893372 0.138584
vt 0.914123 0.142239
vt 0.934874 0.138577
vt 0.953105 0.128038
vt 0.966641 0.111905
vt 0.973844 0.092102
vt 0.973842 0.071034
vt 0.966635 0.051247
vt 0.934806 0.024572
vt 0.887215 0.258078
vt 0.914052 0.020941
vt 0.893316 0.024630
vt 0.875090 0.035177
vt 0.861558 0.051321
vt 0.854373 0.071129
vt 0.854407 0.092190
vt 0.861627 0.111967
vt 0.875181 0.128100
vt 0.893450 0.138618
vt 0.914190 0.142239
vt 0.934921 0.138580
vt 0.953171 0.128031
vt 0.966688 0.111859
vt 0.973850 0.092079
vt 0.973851 0.071007
vt 0.966624 0.051212
vt 0.848152 0.036188
vt 0.848152 0.015216
vt 0.839383 0.015216
vn 0.939693 0.000000 0.342019
vn 0.175525 0.982400 0.063886
vn 0.143091 0.982400 0.120067
vn 0.766044 0.000000 0.642788
vn 0.000000 1.000000 -0.000000
vn 0.000000 1.000000 0.000000
vn 0.000000 1.000000 0.000000
vn 0.000000 1.000000 0.000000
vn 0.093395 0.982400 0.161767
vn 0.500003 -0.000000 0.866024
vn 0.000000 1.000000 0.000000
vn 0.000000 1.000000 -0.000000
vn 0.032437 0.982400 0.183954
vn 0.173647 0.000000 0.984808
vn 0.000000 1.000000 0.000000
vn 0.000000 1.000000 0.000000
vn -0.032436 0.982400 0.183952
vn -0.173647 -0.000000 0.984808
vn 0.000000 1.000000 -0.000000
vn 0.000000 1.000000 0.000000
vn -0.093399 0.982399 0.161766
vn -0.499987 0.000000 0.866033
vn 0.000000 1.000000 -0.000000
vn 0.000000 1.000000 -0.000000
vn -0.143091 0.982399 0.120069
vn -0.766041 0.000000 0.642792
vn 0.000000 1.000000 -0.000000
vn 0.000000 1.000000 0.000000
vn -0.175527 0.982400 0.063887
vn -0.939691 -0.000000 0.342024
vn 0.000000 1.000000 -0.000000
vn 0.000000 1.000000 0.000000
vn -0.186793 0.982399 0.000000
vn -1.000000 -0.000000 0.000000
vn 0.000000 1.000000 0.000000
vn 0.000000 1.000000 0.000000
vn -0.175527 0.982400 -0.063887
vn -0.939691 0.000000 -0.342023
vn 0.000000 1.000000 0.000000
vn 0.000000 1.000000 0.000000
vn -0.143091 0.982400 -0.120068
vn -0.766043 -0.000000 -0.642789
vn 0.000000 1.000000 0.000000
vn 0.000000 1.000000 0.000000
vn -0.093397 0.982399 -0.161767
vn -0.499997 -0.000000 -0.866027
vn 0.000000 1.000000 -0.000000
vn 0.000000 1.000000 0.000000
vn -0.032437 0.982400 -0.183954
vn -0.173643 -0.000000 -0.984809
vn 0.000000 1.000000 -0.000000
vn 0.000000 1.000000 -0.000000
vn 0.032437 0.982400 -0.183954
vn 0.173647 -0.000000 -0.984808
vn 0.000000 1.000000 -0.000000
vn 0.000000 1.000000 0.000000
vn 0.093395 0.982400 -0.161766
vn 0.500002 -0.000000 -0.866024
vn 0.000000 1.000000 0.000000
vn 0.000000 1.000000 0.000000
vn 0.143091 0.982400 -0.120067
vn 0.766044 -0.000000 -0.642788
vn 0.000000 1.000000 0.000000
vn 0.000000 1.000000 0.000000
vn 0.175526 0.982400 -0.063886
vn 0.939693 -0.000000 -0.342020
vn 0.000000 1.000000 -0.000000
vn 0.000000 1.000000 0.000000
vn 0.186793 0.982399 -0.000000
vn 1.000000 0.000000 -0.000002
vn 0.000000 1.000000 0.000000
vn 0.000000 1.000000 0.000000
vn 0.143091 -0.982400 0.120067
vn 0.175526 -0.982400 0.063886
vn 0.000000 -1.000000 -0.000000
vn 0.000000 -1.000000 -0.000000
vn 0.000000 -1.000000 -0.000000
vn 0.000000 -1.000000 0.000000
vn 0.093395 -0.982400 0.161767
vn 0.000000 -1.000000 0.000000
vn 0.000000 -1.000000 0.000000
vn 0.032437 -0.982400 0.183954
vn 0.000000 -1.000000 0.000000
vn 0.000000 -1.000000 0.000000
vn -0.032436 -0.982400 0.183952
vn 0.000000 -1.000000 0.000000
vn 0.000000 -1.000000 -0.000000
vn -0.093399 -0.982399 0.161766
vn 0.000000 -1.000000 0.000000
vn 0.000000 -1.000000 -0.000000
vn -0.143091 -0.982399 0.120069
vn 0.000000 -1.000000 0.000000
vn 0.000000 -1.000000 0.000000
vn -0.175527 -0.982400 0.063887
vn 0.000000 -1.000000 0.000000
vn 0.000000 -1.000000 0.000000
vn -0.186793 -0.982399 0.000000
vn 0.000000 -1.000000 0.000000
vn 0.000000 -1.000000 0.000000
vn -0.175527 -0.982400 -0.063887
vn 0.000000 -1.000000 0.000000
vn 0.000000 -1.000000 -0.000000
vn -0.143091 -0.982400 -0.120068
vn 0.000000 -1.000000 0.000000
vn 0.000000 -1.000000 -0.000000
vn -0.093397 -0.982399 -0.161767
vn 0.000000 -1.000000 -0.000000
vn 0.000000 -1.000000 0.000000
vn -0.032437 -0.982400 -0.183954
vn 0.000000 -1.000000 -0.000000
vn 0.000000 -1.000000 -0.000000
vn 0.032437 -0.982400 -0.183954
vn 0.000000 -1.000000 0.000000
vn 0.000000 -1.000000 -0.000000
vn 0.093395 -0.982400 -0.161766
vn 0.000000 -1.000000 0.000000
vn 0.000000 -1.000000 0.000000
vn 0.143091 -0.982400 -0.120067
vn 0.000000 -1.000000 0.000000
vn 0.000000 -1.000000 0.000000
vn 0.175526 -0.982400 -0.063886
vn 0.000000 -1.000000 -0.000000
vn 0.000000 -1.000000 0.000000
vn 0.186793 -0.982399 -0.000000
vn 0.000000 -1.000000 -0.000000
vn 0.000000 -1.000000 0.000000
vn -0.984798 0.000000 0.173701
vn -0.984798 0.000000 0.173701
vn -0.984798 0.000000 0.173701
vn -0.984798 0.000000 0.173701
vn -0.866030 0.000000 0.499993
vn -0.866030 0.000000 0.499993
vn -0.866030 0.000000 0.499993
vn -0.866030 0.000000 0.499993
vn -0.642809 0.000000 0.766027
vn -0.642809 0.000000 0.766027
vn -0.642809 0.000000 0.766027
vn -0.642809 0.000000 0.766027
vn -0.342027 0.000000 0.939690
vn -0.342027 0.000000 0.939690
vn -0.342027 0.000000 0.939690
vn -0.342027 0.000000 0.939690
vn 0.000000 0.000000 1.000000
vn 0.000000 0.000000 1.000000
vn 0.000000 0.000000 1.000000
vn 0.000000 0.000000 1.000000
vn 0.342043 0.000000 0.939684
vn 0.342043 0.000000 0.939684
vn 0.342043 0.000000 0.939684
vn 0.342043 0.000000 0.939684
vn 0.642784 0.000000 0.766048
vn 0.642784 0.000000 0.766048
vn 0.642784 0.000000 0.766048
vn 0.642784 0.000000 0.766048
vn 0.866030 0.000000 0.499993
vn 0.866030 0.000000 0.499993
vn 0.866030 0.000000 0.499993
vn 0.866030 0.000000 0.499993
vn 0.984807 0.000000 0.173652
vn 0.984807 0.000000 0.173652
vn 0.984807 0.000000 0.173652
vn 0.984807 0.000000 0.173652
vn 0.984807 0.000000 -0.173652
vn 0.984807 0.000000 -0.173652
vn 0.984807 0.000000 -0.173652
vn 0.984807 0.000000 -0.173652
vn 0.866030 0.000000 -0.499993
vn 0.866030 0.000000 -0.499993
vn 0.866030 0.000000 -0.499993
vn 0.866030 0.000000 -0.499993
vn 0.642784 0.000000 -0.766048
vn 0.642784 0.000000 -0.766048
vn 0.642784 0.000000 -0.766048
vn 0.642784 0.000000 -0.766048
vn 0.342005 0.000000 -0.939698
vn 0.342005 0.000000 -0.939698
vn 0.342005 0.000000 -0.939698
vn 0.342005 0.000000 -0.939698
vn 0.000000 0.000000 -1.000000
vn 0.000000 0.000000 -1.000000
vn 0.000000 0.000000 -1.000000
vn 0.000000 0.000000 -1.000000
vn -0.342005 0.000000 -0.939698
vn -0.342005 0.000000 -0.939698
vn -0.342005 0.000000 -0.939698
vn -0.342005 0.000000 -0.939698
vn -0.642809 0.000000 -0.766027
vn -0.642809 0.000000 -0.766027
vn -0.642809 0.000000 -0.766027
vn -0.642809 0.000000 -0.766027
vn -0.866030 0.000000 -0.499993
vn -0.866030 0.000000 -0.499993
vn -0.866030 0.000000 -0.499993
vn -0.866030 0.000000 -0.499993
vn -0.984798 0.000000 -0.173701
vn -0.984798 0.000000 -0.173701
vn -0.984798 0.000000 -0.173701
vn -0.984798 0.000000 -0.173701
s 1
g disc
f 1/2/1 2/19/2 5/22/3 4/1/4
f 69/238/5 70/237/6 3/215/7 6/214/8
f 4/1/4 5/22/3 8/24/9 7/3/10
f 68/239/11 69/238/5 6/214/8 9/213/12
f 7/3/10 8/24/9 11/26/13 10/4/14
f 67/240/15 68/239/11 9/213/12 12/212/16
f 10/4/14 11/26/13 14/28/17 13/5/18
f 66/241/19 67/240/15 12/212/16 15/211/20
f 13/5/18 14/28/17 17/30/21 16/6/22
f 65/242/23 66/241/19 15/211/20 18/210/24
f 16/6/22 17/30/21 20/32/25 19/7/26
f 64/243/27 65/242/23 18/210/24 21/209/28
f 19/7/26 20/32/25 23/34/29 22/8/30
f 63/244/31 64/243/27 21/209/28 24/208/32
f 22/8/30 23/34/29 26/36/33 25/9/34
f 62/245/35 63/244/31 24/208/32 27/207/36
f 25/9/34 26/36/33 29/38/37 28/10/38
f 61/246/39 62/245/35 27/207/36 30/206/40
f 28/10/38 29/38/37 32/40/41 31/11/42
f 60/247/43 61/246/39 30/206/40 33/205/44
f 31/11/42 32/40/41 35/42/45 34/12/46
f 59/248/47 60/247/43 33/205/44 36/204/48
f 34/12/46 35/42/45 38/44/49 37/13/50
f 58/249/51 59/248/47 36/204/48 39/203/52
f 37/13/50 38/44/49 41/46/53 40/14/54
f 57/250/55 58/249/51 39/203/52 42/202/56
f 40/14/54 41/46/53 44/48/57 43/15/58
f 56/251/59 57/250/55 42/202/56 45/201/60
f 43/15/58 44/48/57 47/50/61 46/16/62
f 55/61/63 56/251/59 45/201/60 48/200/64
f 46/16/62 47/50/61 50/52/65 49/17/66
f 72/234/67 55/61/63 48/200/64 51/198/68
f 49/17/66 50/52/65 53/54/69 52/18/70
f 71/236/71 72/234/67 51/198/68 54/199/72
f 3/215/7 70/237/6 71/236/71 54/199/72
f 2/19/2 1/2/1 52/18/70 53/54/69
f 44/47/57 56/62/59 55/235/63 47/49/61
f 41/45/53 57/63/55 56/62/59 44/47/57
f 38/43/49 58/64/51 57/63/55 41/45/53
f 35/41/45 59/65/47 58/64/51 38/43/49
f 32/39/41 60/66/43 59/65/47 35/41/45
f 29/37/37 61/67/39 60/66/43 32/39/41
f 26/35/33 62/68/35 61/67/39 29/37/37
f 23/33/29 63/69/31 62/68/35 26/35/33
f 20/31/25 64/70/27 63/69/31 23/33/29
f 17/29/21 65/71/23 64/70/27 20/31/25
f 14/27/17 66/72/19 65/71/23 17/29/21
f 11/25/13 67/73/15 66/72/19 14/27/17
f 8/23/9 68/74/11 67/73/15 11/25/13
f 5/21/3 69/75/5 68/74/11 8/23/9
f 2/20/2 70/76/6 69/75/5 5/21/3
f 71/77/71 70/76/6 2/20/2 53/53/69
f 50/51/65 72/78/67 71/77/71 53/53/69
f 47/49/61 55/235/63 72/78/67 50/51/65
f 1/79/1 4/82/4 75/81/73 73/80/74
f 123/233/75 76/197/76 74/181/77 124/216/78
f 4/82/4 7/86/10 77/85/79 75/81/73
f 122/232/80 78/196/81 76/197/76 123/233/75
f 7/86/10 10/89/14 79/88/82 77/85/79
f 121/231/83 80/195/84 78/196/81 122/232/80
f 10/89/14 13/92/18 81/91/85 79/88/82
f 120/230/86 82/194/87 80/195/84 121/231/83
f 13/92/18 16/95/22 83/94/88 81/91/85
f 119/229/89 84/193/90 82/194/87 120/230/86
f 16/95/22 19/98/26 85/97/91 83/94/88
f 118/228/92 86/192/93 84/193/90 119/229/89
f 19/98/26 22/101/30 87/100/94 85/97/91
f 117/227/95 88/191/96 86/192/93 118/228/92
f 22/101/30 25/104/34 89/103/97 87/100/94
f 116/226/98 90/190/99 88/191/96 117/227/95
f 25/104/34 28/107/38 91/106/100 89/103/97
f 115/225/101 92/189/102 90/190/99 116/226/98
f 28/107/38 31/110/42 93/109/103 91/106/100
f 114/224/104 94/188/105 92/189/102 115/225/101
f 31/110/42 34/113/46 95/112/106 93/109/103
f 113/223/107 96/187/108 94/188/105 114/224/104
f 34/113/46 37/116/50 97/115/109 95/112/106
f 112/222/110 98/186/111 96/187/108 113/223/107
f 37/116/50 40/119/54 99/118/112 97/115/109
f 111/221/113 100/185/114 98/186/111 112/222/110
f 40/119/54 43/122/58 101/121/115 99/118/112
f 110/220/116 102/184/117 100/185/114 111/221/113
f 43/122/58 46/125/62 103/124/118 101/121/115
f 109/219/119 104/183/120 102/184/117 110/220/116
f 46/125/62 49/128/66 105/127/121 103/124/118
f 126/218/122 106/182/123 104/183/120 109/219/119
f 49/128/66 52/131/70 107/130/124 105/127/121
f 125/217/125 108/180/126 106/182/123 126/218/122
f 74/181/77 108/180/126 125/217/125 124/216/78
f 73/80/74 107/130/124 52/131/70 1/79/1
f 101/133/115 103/134/118 109/126/119 110/123/116
f 99/135/112 101/133/115 110/123/116 111/120/113
f 97/136/109 99/135/112 111/120/113 112/117/110
f 95/137/106 97/136/109 112/117/110 113/114/107
f 93/138/103 95/137/106 113/114/107 114/111/104
f 91/139/100 93/138/103 114/111/104 115/108/101
f 89/140/97 91/139/100 115/108/101 116/105/98
f 87/141/94 89/140/97 116/105/98 117/102/95
f 85/142/91 87/141/94 117/102/95 118/99/92
f 83/143/88 85/142/91 118/99/92 119/96/89
f 81/144/85 83/143/88 119/96/89 120/93/86
f 79/145/82 81/144/85 120/93/86 121/90/83
f 77/146/79 79/145/82 121/90/83 122/87/80
f 75/147/73 77/146/79 122/87/80 123/83/75
f 73/148/74 75/147/73 123/83/75 124/84/78
f 125/132/125 107/149/124 73/148/74 124/84/78
f 105/150/121 107/149/124 125/132/125 126/129/122
f 103/134/118 105/150/121 126/129/122 109/126/119
s off
f 54/55/127 51/56/128 106/57/129 108/58/130
f 106/57/131 51/56/132 48/59/133 104/60/134
f 48/59/135 45/151/136 102/152/137 104/60/138
f 45/151/139 42/153/140 100/254/141 102/152/142
f 42/153/143 39/252/144 98/253/145 100/254/146
f 39/154/147 36/156/148 96/157/149 98/155/150
f 36/156/151 33/158/152 94/159/153 96/157/154
f 33/158/155 30/160/156 92/161/157 94/159/158
f 30/160/159 27/162/160 90/163/161 92/161/162
f 27/162/163 24/164/164 88/165/165 90/163/166
f 24/164/167 21/166/168 86/167/169 88/165/170
f 21/166/171 18/168/172 84/169/173 86/167/174
f 18/168/175 15/170/176 82/171/177 84/169/178
f 15/170/179 12/172/180 80/173/181 82/171/182
f 12/172/183 9/174/184 78/175/185 80/173/186
f 9/174/187 6/176/188 76/177/189 78/175/190
f 6/176/191 3/178/192 74/179/193 76/177/194
f 3/178/195 54/55/196 108/58/197 74/179/198
