# This file uses centimeters as units for non-parametric coordinates.

mtllib moni new with screen.mtl
g default
v -0.567774 0.389268 -0.490429
v 0.566936 0.389262 -0.490802
v 0.529911 -0.219252 -0.476263
v -0.542858 -0.219258 -0.486401
vt 1.938826 0.721759
vt 1.044349 0.713964
vt 1.077713 0.234534
vt 1.923364 0.241895
vn 0.004423 -0.015297 -0.999873
vn 0.004423 -0.015297 -0.999873
vn 0.004423 -0.015297 -0.999873
vn 0.004423 -0.015297 -0.999873
s off
g polySurface5 Monitor_new
usemtl initialShadingGroup
f 1/1/1 2/2/2 3/3/3 4/4/4
g default
v -0.609529 0.429343 -0.533816
v 0.609528 0.429343 -0.533816
v -0.581334 -0.259332 -0.528548
v 0.567630 -0.259332 -0.518073
v -0.581334 -0.259332 -0.417245
v 0.567630 -0.259332 -0.427720
v -0.609529 0.429343 -0.411977
v 0.609528 0.429343 -0.411977
v -0.431026 -0.179685 -0.411977
v 0.417321 -0.179685 -0.411977
v 0.417321 0.208373 -0.411977
v -0.431026 0.208373 -0.411977
v -0.348528 -0.153302 -0.341826
v 0.334825 -0.153302 -0.341826
v 0.334825 0.116077 -0.325835
v -0.348528 0.116077 -0.325835
v -0.567774 0.389268 -0.533018
v 0.566936 0.389262 -0.533391
v 0.529911 -0.219252 -0.518853
v -0.542858 -0.219258 -0.528991
v -0.567774 0.389268 -0.490429
v 0.566936 0.389262 -0.490802
v 0.529911 -0.219252 -0.476263
v -0.542858 -0.219258 -0.486401
v -0.073727 -0.172630 -0.398900
v 0.060023 -0.172630 -0.398900
v 0.053129 -0.160357 -0.354903
v -0.066833 -0.160357 -0.354903
v -0.045537 -0.429343 -0.398900
v 0.031833 -0.429343 -0.398900
v 0.027845 -0.429343 -0.354903
v -0.041549 -0.429343 -0.354903
v -0.050537 -0.383807 -0.398900
v 0.036833 -0.383807 -0.398900
v 0.032330 -0.381630 -0.354903
v -0.046034 -0.381630 -0.354903
v 0.392584 -0.405071 -0.509798
v 0.397061 -0.402893 -0.480761
v 0.406758 -0.429343 -0.479956
v 0.401765 -0.429343 -0.508993
v -0.410766 -0.402893 -0.480761
v -0.406288 -0.405071 -0.509798
v -0.415470 -0.429343 -0.508993
v -0.420462 -0.429343 -0.479956
vt 0.728572 0.540246
vt 0.733465 0.003520
vt 0.775672 0.003520
vt 0.780566 0.540246
vt 0.067590 0.911448
vt 0.067636 0.592227
vt 0.193695 0.592245
vt 0.193649 0.911466
vt 0.664630 0.573331
vt 0.664630 0.003861
vt 0.721546 0.003861
vt 0.721546 0.573331
vt 0.874724 0.042441
vt 0.931640 0.042449
vt 0.924241 0.364750
vt 0.882033 0.364744
vt 0.003291 0.580002
vt 0.060207 0.580006
vt 0.057724 0.901982
vt 0.005730 0.901979
vt 0.003559 0.560351
vt 0.003291 0.023741
vt 0.041112 0.094109
vt 0.040856 0.490132
vt 0.325458 0.003861
vt 0.222255 0.093763
vt 0.325461 0.573729
vt 0.222233 0.490264
vt 0.900576 0.535728
vt 0.900576 0.499586
vt 0.921129 0.501449
vt 0.921129 0.533865
vt 0.435962 0.574969
vt 0.648672 0.570524
vt 0.593461 0.621758
vt 0.468414 0.623923
vt 0.649237 0.996480
vt 0.591896 0.944999
vt 0.432614 0.990502
vt 0.465541 0.941636
vt 0.333999 0.573332
vt 0.333961 0.003860
vt 0.352686 0.023757
vt 0.352721 0.553825
vt 0.655755 0.023411
vt 0.637030 0.041033
vt 0.655717 0.560161
vt 0.636995 0.542188
vt 0.790686 0.533928
vt 0.790715 0.003860
vt 0.810611 0.003868
vt 0.810582 0.533936
vt 0.863569 0.031699
vt 0.863556 0.316567
vt 0.843667 0.317041
vt 0.843680 0.032173
vt 0.839880 0.004051
vt 0.839811 0.505207
vt 0.819917 0.505016
vt 0.819986 0.003860
vt 0.204270 0.875971
vt 0.204251 0.591460
vt 0.224146 0.591590
vt 0.224165 0.876101
vt 0.440573 0.750369
vt 0.440286 0.814547
vt 0.460686 0.754396
vt 0.460318 0.810999
vt 0.687238 0.769314
vt 0.686684 0.810124
vt 0.665446 0.807500
vt 0.665937 0.771361
vt 0.899036 0.033382
vt 0.899050 0.019620
vt 0.912215 0.019487
vt 0.911163 0.033210
vt 0.819557 0.721693
vt 0.819563 0.758300
vt 0.797274 0.756208
vt 0.797269 0.723791
vt 0.877118 0.033249
vt 0.877113 0.019487
vt 0.889241 0.019667
vt 0.890282 0.033391
vt 0.786025 0.759822
vt 0.785177 0.822296
vt 0.746718 0.598623
vt 0.767611 0.593225
vt 0.767567 0.697046
vt 0.746898 0.697865
vt 0.922921 0.711961
vt 0.922930 0.768000
vt 0.711658 0.593968
vt 0.732555 0.599352
vt 0.732443 0.698594
vt 0.711774 0.697789
vt 0.530222 0.863841
vt 0.511471 0.872576
vt 0.511477 0.692063
vt 0.525011 0.689563
vt 0.796167 0.537399
vt 0.808674 0.541509
vt 0.849148 0.326776
vt 0.862712 0.324443
vt 0.673528 0.983983
vt 0.662005 0.987767
vt 0.552844 0.683091
vt 0.571634 0.691741
vt 0.567204 0.866041
vt 0.553660 0.863601
vt 0.667393 0.591066
vt 0.678809 0.595162
vt 0.862712 0.710871
vt 0.849147 0.708538
vt 0.808736 0.938488
vt 0.796230 0.942601
vn 0.000000 -1.000000 0.000000
vn 0.000000 -1.000000 0.000000
vn 0.000000 -1.000000 0.000000
vn 0.000000 -1.000000 0.000000
vn 0.000000 -0.059257 0.998243
vn 0.000000 -0.059257 0.998243
vn 0.000000 -0.059257 0.998243
vn 0.000000 -0.059257 0.998243
vn 0.000000 1.000000 0.000000
vn 0.000000 1.000000 0.000000
vn 0.000000 1.000000 0.000000
vn 0.000000 1.000000 0.000000
vn 0.998155 -0.060727 0.000000
vn 0.998155 -0.060727 0.000000
vn 0.998154 -0.060727 0.000000
vn 0.998155 -0.060727 0.000000
vn -0.999163 -0.040907 0.000000
vn -0.999163 -0.040907 0.000000
vn -0.999163 -0.040907 0.000000
vn -0.999163 -0.040907 0.000000
vn -0.011643 -0.041172 0.999084
vn 0.039703 -0.048206 0.998048
vn 0.027513 -0.077508 0.996612
vn -0.005595 -0.073446 0.997284
vn 0.012335 -0.003893 0.999916
vn 0.015662 -0.004943 0.999865
vn -0.003948 -0.001157 0.999992
vn -0.005415 -0.001587 0.999984
vn 0.000000 -1.000000 0.000000
vn 0.000000 -1.000000 0.000000
vn 0.000000 -1.000000 0.000000
vn 0.000000 -1.000000 0.000000
vn 0.691291 -0.017570 0.722363
vn 0.691291 -0.017570 0.722363
vn 0.691291 -0.017570 0.722363
vn 0.691291 -0.017570 0.722363
vn 0.000000 0.682313 0.731061
vn 0.000000 0.682313 0.731061
vn 0.000000 0.682313 0.731061
vn 0.000000 0.682313 0.731061
vn -0.691289 -0.017570 0.722365
vn -0.691289 -0.017570 0.722365
vn -0.691289 -0.017570 0.722365
vn -0.691289 -0.017570 0.722365
vn 0.001470 -0.012310 -0.999923
vn 0.001472 -0.018222 -0.999833
vn 0.001472 -0.018222 -0.999833
vn 0.001470 -0.012310 -0.999923
vn 0.007485 -0.018393 -0.999803
vn 0.007485 -0.018393 -0.999803
vn 0.007486 -0.012260 -0.999897
vn 0.007486 -0.012260 -0.999897
vn -0.000005 -1.000000 0.000000
vn -0.000005 -1.000000 0.000000
vn -0.000005 -1.000000 0.000000
vn -0.000005 -1.000000 0.000000
vn -0.998154 0.060732 0.000000
vn -0.998154 0.060732 0.000000
vn -0.998154 0.060732 0.000000
vn -0.998154 0.060732 0.000000
vn -0.000005 1.000000 0.000000
vn -0.000005 1.000000 0.000000
vn -0.000005 1.000000 0.000000
vn -0.000005 1.000000 0.000000
vn 0.999163 0.040910 0.000000
vn 0.999163 0.040910 0.000000
vn 0.999163 0.040910 0.000000
vn 0.999163 0.040910 0.000000
vn 0.000000 -0.945967 0.324264
vn 0.000000 -0.945967 0.324264
vn 0.000000 -0.923458 0.383699
vn 0.000000 -0.923458 0.383699
vn 0.000000 -0.946790 0.321852
vn 0.000000 -0.923853 0.382749
vn 0.000000 -0.946790 0.321851
vn 0.000000 -0.923853 0.382749
vn 0.000000 0.000000 -1.000000
vn 0.000000 0.000000 -1.000000
vn 0.000000 0.000000 -1.000000
vn 0.000000 0.000000 -1.000000
vn 0.926230 0.339524 -0.163774
vn 0.926230 0.339524 -0.163774
vn 0.926230 0.339524 -0.163774
vn 0.926230 0.339524 -0.163774
vn 0.000000 0.000000 1.000000
vn 0.000000 0.000000 1.000000
vn 0.000000 0.000000 1.000000
vn 0.000000 0.000000 1.000000
vn -0.926228 0.339533 -0.163766
vn -0.926228 0.339533 -0.163766
vn -0.926228 0.339533 -0.163766
vn -0.926228 0.339533 -0.163766
vn 0.000000 0.000000 -1.000000
vn 0.000000 0.000000 -1.000000
vn 0.984504 -0.100144 0.143956
vn 0.984504 -0.100144 0.143956
vn 0.984504 -0.100144 0.143956
vn 0.984504 -0.100144 0.143956
vn 0.000000 0.000000 1.000000
vn 0.000000 0.000000 1.000000
vn -0.984503 -0.100144 0.143959
vn -0.984503 -0.100144 0.143959
vn -0.984503 -0.100144 0.143959
vn -0.984503 -0.100144 0.143959
vn 0.039338 0.997456 -0.059457
vn 0.039338 0.997455 -0.059457
vn 0.039338 0.997455 -0.059457
vn 0.039338 0.997456 -0.059457
vn 0.320369 0.032782 0.946725
vn 0.320369 0.032782 0.946725
vn 0.320369 0.032782 0.946725
vn 0.320369 0.032782 0.946725
vn 0.000000 -1.000000 0.000000
vn 0.000000 -1.000000 0.000000
vn 0.000000 -1.000000 0.000000
vn 0.000000 -1.000000 0.000000
vn -0.291965 -0.028500 -0.956004
vn -0.291965 -0.028500 -0.956004
vn -0.291965 -0.028500 -0.956004
vn -0.291965 -0.028500 -0.956004
vn -0.039338 0.997456 -0.059456
vn -0.039338 0.997456 -0.059456
vn -0.039338 0.997456 -0.059456
vn -0.039338 0.997456 -0.059456
vn 0.291966 -0.028503 -0.956004
vn 0.291966 -0.028503 -0.956004
vn 0.291966 -0.028503 -0.956004
vn 0.291966 -0.028503 -0.956004
vn 0.000000 -1.000000 0.000000
vn 0.000000 -1.000000 0.000000
vn 0.000000 -1.000000 0.000000
vn 0.000000 -1.000000 0.000000
vn -0.320369 0.032781 0.946725
vn -0.320369 0.032781 0.946725
vn -0.320369 0.032781 0.946725
vn -0.320369 0.032781 0.946725
s off
g Monitor_new polySurface6
usemtl initialShadingGroup
f 7/5/5 8/6/6 10/7/7 9/8/8
f 17/9/9 18/10/10 19/11/11 20/12/12
f 11/13/13 12/14/14 6/15/15 5/16/16
f 6/17/17 12/18/18 10/19/19 8/20/20
f 11/21/21 5/22/22 7/23/23 9/24/24
s 1
f 9/25/25 10/26/26 14/27/27 13/28/28
f 10/26/26 12/29/29 15/30/30 14/27/27
f 12/29/29 11/31/31 16/32/32 15/30/30
f 11/31/31 9/25/25 13/28/28 16/32/32
s off
f 33/33/33 34/34/34 35/35/35 36/36/36
f 14/37/37 15/38/38 19/39/39 18/40/40
f 15/38/41 16/41/42 20/42/43 19/39/44
f 16/41/45 13/43/46 17/44/47 20/42/48
s 2
f 5/45/49 6/46/50 22/47/51 21/48/52
f 6/46/50 8/49/53 23/50/54 22/47/51
f 8/49/53 7/51/55 24/52/56 23/50/54
f 7/51/55 5/45/49 21/48/52 24/52/56
s off
f 21/53/57 22/54/58 26/55/59 25/56/60
f 22/57/61 23/58/62 27/59/63 26/60/64
f 23/61/65 24/62/66 28/63/67 27/64/68
f 24/65/69 21/66/70 25/67/71 28/68/72
s 3
f 13/43/73 14/37/74 30/69/75 29/70/76
f 14/37/74 18/40/77 31/71/78 30/69/75
f 18/40/77 17/44/79 32/72/80 31/71/78
f 17/44/79 13/43/73 29/70/76 32/72/80
s 4
f 37/73/81 38/74/82 34/75/83 33/76/84
s off
f 41/77/85 42/78/86 43/79/87 44/80/88
s 5
f 39/81/89 40/82/90 36/83/91 35/84/92
s off
f 45/85/93 46/86/94 47/87/95 48/88/96
s 4
f 29/89/97 30/90/98 38/74/82 37/73/81
s off
f 30/91/99 31/92/100 39/93/101 38/94/102
s 5
f 31/95/103 32/96/104 40/82/90 39/81/89
s off
f 32/97/105 29/98/106 37/99/107 40/100/108
f 38/101/109 39/102/110 42/103/111 41/104/112
f 39/81/113 35/84/114 43/105/115 42/106/116
f 35/35/117 34/34/118 44/107/119 43/108/120
f 34/75/121 38/74/122 41/109/123 44/110/124
f 40/111/125 37/112/126 46/113/127 45/114/128
f 37/73/129 33/76/130 47/115/131 46/116/132
f 33/33/133 36/36/134 48/117/135 47/118/136
f 36/83/137 40/82/138 45/119/139 48/120/140
