# This file uses centimeters as units for non-parametric coordinates.

g default
v -0.229660 -1.747770 1.747769
v 0.229660 -1.747770 1.747769
v -0.229660 1.747769 1.747769
v 0.229660 1.747769 1.747769
v -0.229660 1.747769 -1.747769
v 0.229660 1.747769 -1.747769
v -0.229660 -1.747770 -1.747769
v 0.229660 -1.747770 -1.747769
vt 0.222829 0.003336
vt 0.295738 0.228685
vt 0.005250 0.446238
vt 0.264764 0.003409
vt 0.293443 0.221884
vt 0.259043 0.445846
vt 0.230303 0.227380
vt 0.258426 0.222028
vt 0.229686 0.003562
vt 0.258393 0.003557
vt 0.223722 0.227766
vt 0.223722 0.446238
vt 0.004357 0.003336
vt 0.004357 0.221807
vt 0.229719 0.222033
vt 0.005250 0.227766
vt 0.259010 0.227375
vt 0.267031 0.228681
vt 0.230336 0.445850
vt 0.264735 0.221880
vt 0.295709 0.447156
vt 0.293472 0.003412
vt 0.267002 0.447152
vt 0.222829 0.221807
vn 0.000000 0.000000 1.000000
vn 0.000000 0.000000 1.000000
vn 0.000000 0.000000 1.000000
vn 0.000000 0.000000 1.000000
vn 0.000000 1.000000 0.000000
vn 0.000000 1.000000 0.000000
vn 0.000000 1.000000 0.000000
vn 0.000000 1.000000 0.000000
vn 0.000000 0.000000 -1.000000
vn 0.000000 0.000000 -1.000000
vn 0.000000 0.000000 -1.000000
vn 0.000000 0.000000 -1.000000
vn 0.000000 -1.000000 0.000000
vn 0.000000 -1.000000 0.000000
vn 0.000000 -1.000000 0.000000
vn 0.000000 -1.000000 0.000000
vn 1.000000 0.000000 0.000000
vn 1.000000 0.000000 0.000000
vn 1.000000 0.000000 0.000000
vn 1.000000 0.000000 0.000000
vn -1.000000 0.000000 0.000000
vn -1.000000 0.000000 0.000000
vn -1.000000 0.000000 0.000000
vn -1.000000 0.000000 0.000000
s off
g quad_sign
f 1/18/1 2/2/2 4/21/3 3/23/4
f 3/4/5 4/22/6 6/5/7 5/20/8
f 5/6/9 6/19/10 8/7/11 7/17/12
f 7/8/13 8/15/14 2/9/15 1/10/16
f 2/16/17 8/11/18 6/12/19 4/3/20
f 7/13/21 1/1/22 3/24/23 5/14/24
