# This file uses centimeters as units for non-parametric coordinates.

g default
v -0.999373 -0.996614 0.931726
v 1.016026 -1.009290 0.936897
v -0.999510 1.005433 0.918330
v 1.030401 1.033134 0.954521
v -1.041666 1.041927 -0.972509
v 1.023764 1.027047 -0.951965
v -0.987119 -0.985486 -0.906428
v 0.992873 -0.983042 -0.917769
v -0.042729 -1.039328 1.049383
v -0.042210 -1.003807 -1.003807
v -0.042210 1.046118 -1.046118
v -0.042210 1.011359 1.011359
v -1.022527 0.101569 1.021970
v -0.042426 0.085679 1.051587
v 1.024904 0.101592 1.024434
v 1.042492 0.101900 -1.042331
v -0.042090 0.121434 -1.042935
v -1.018692 0.102149 -1.017945
v 0.543112 -0.987189 0.991704
v 0.528992 0.093871 0.999527
v 0.543549 0.991630 0.991580
v 0.543743 0.991512 -0.991633
v 0.539188 0.111386 -0.999366
v 0.544258 -0.991940 -0.992120
v -0.589844 -1.019254 1.023745
v -0.589548 -1.021203 -1.021155
v -0.572311 0.111293 -0.998840
v -0.589380 1.036297 -1.036158
v -0.589791 1.011161 1.011101
v -0.574361 0.093991 0.998807
v -0.990751 0.616594 -0.988750
v -0.581381 0.611055 -0.997193
v -0.042963 0.620841 -0.999475
v 0.541622 0.586301 -0.998091
v 0.994222 0.614324 -0.988847
v 1.006871 0.614086 1.003775
v 0.536813 0.578324 0.998278
v -0.042529 0.584535 0.998647
v -0.582768 0.588911 0.997527
v -0.990781 0.615756 0.987305
v -0.992212 -0.451147 0.989575
v -0.581648 -0.438513 0.998691
v -0.043120 -0.452421 0.999987
v 0.535768 -0.423041 0.999419
v 1.014412 -0.449452 1.012160
v 1.019586 -0.449191 -1.016869
v 0.541525 -0.416213 -0.999328
v -0.042243 -0.416597 -1.018083
v -0.580469 -0.430167 -1.016168
v -0.992216 -0.450754 -0.989599
v -1.018464 1.021068 -0.553276
v -0.589579 1.057932 -0.581446
v -0.043401 0.998560 -0.590011
v 0.543676 0.998617 -0.551519
v 1.013404 1.016421 -0.528821
v 0.997582 0.614273 -0.546671
v 1.040518 0.101870 -0.583694
v 0.998929 -0.448623 -0.566620
v 1.002350 -0.993361 -0.506251
v 0.524184 -0.999281 -0.525239
v -0.023111 -0.999874 -0.507256
v -0.552125 -0.998903 -0.520362
v -0.992205 -0.990150 -0.498542
v -0.999186 -0.451022 -0.550421
v -0.998952 0.101953 -0.565254
v -0.997505 0.616312 -0.550219
v -1.011025 1.018414 -0.045111
v -0.584846 1.071181 -0.028676
v -0.040630 0.999988 -0.033644
v 0.543564 0.999297 -0.017918
v 0.989637 0.992216 -0.015521
v 0.998175 0.614187 -0.010514
v 0.999986 0.101572 -0.027634
v 0.999985 -0.448809 -0.020653
v 0.998882 -0.998764 -0.007123
v 0.511221 -0.999809 -0.002213
v -0.025193 -0.999988 0.015917
v -0.544448 -0.999282 0.015437
v -0.992206 -0.990037 -0.003940
v -0.999985 -0.451105 -0.017894
v -0.999986 0.101803 -0.016349
v -0.998144 0.616103 -0.018534
v -0.983760 0.992246 0.504877
v -0.589483 0.997754 0.563985
v -0.042889 0.998992 0.562669
v 0.543516 0.998494 0.559266
v 0.989462 0.991708 0.540123
v 0.997291 0.614136 0.569560
v 0.998807 0.101504 0.574194
v 0.998872 -0.449137 0.570057
v 0.991826 -0.987528 0.532912
v 0.506713 -0.999526 0.523633
v -0.038528 -1.042107 0.562693
v -0.589133 -0.997576 0.578366
v -0.991818 -0.989482 0.531119
v -0.999061 -0.451179 0.558149
v -0.998756 0.101632 0.577449
v -0.997428 0.615920 0.556593
vt 0.986353 0.602415
vt 0.673746 0.338836
vt 0.983793 0.923720
vt 0.342579 0.335421
vt 0.001600 0.002060
vt 0.006583 0.349632
vt 0.350768 0.345414
vt 0.337136 0.332087
vt 0.339063 0.650625
vt 0.673679 0.651688
vt 0.322647 0.997351
vt 0.314402 0.667213
vt 0.684822 0.600710
vt 0.673438 0.934979
vt 0.682947 0.162348
vt 0.498101 0.671557
vt 0.500764 0.337348
vt 0.163431 0.001600
vt 0.175981 0.673457
vt 0.998025 0.778660
vt 0.497809 0.161616
vt 0.493582 0.335121
vt 0.343249 0.154129
vt 0.300396 0.819675
vt 0.165452 0.152701
vt 0.665981 0.779256
vt 0.005833 0.157354
vt 0.672692 0.259725
vt 0.595623 0.661658
vt 0.495660 0.254693
vt 0.349899 0.256472
vt 0.084790 0.345229
vt 0.260509 0.153282
vt 0.263227 0.333008
vt 0.679148 0.071765
vt 0.407161 0.666620
vt 0.415110 0.333397
vt 0.078751 0.155210
vt 0.075051 0.004482
vt 0.265476 0.674806
vt 0.496351 0.074705
vt 0.670735 0.864056
vt 0.009639 0.072630
vt 0.076620 0.073616
vt 0.164395 0.071090
vt 0.259912 0.075625
vt 0.333966 0.069991
vt 0.308665 0.735242
vt 0.634099 0.735044
vt 0.416989 0.255609
vt 0.416313 0.161311
vt 0.415815 0.073350
vt 0.993545 0.860933
vt 0.992706 0.691223
vt 0.583483 0.073427
vt 0.585847 0.161888
vt 0.579788 0.256670
vt 0.636234 0.906720
vt 0.339622 0.244040
vt 0.305243 0.910064
vt 0.261669 0.239390
vt 0.166400 0.240492
vt 0.078382 0.243838
vt 0.670938 0.688442
vt 0.011025 0.247683
vt 0.743080 0.930880
vt 0.338840 0.419589
vt 0.268503 0.414354
vt 0.179103 0.411912
vt 0.083555 0.416876
vt 0.007156 0.419173
vt 0.384031 0.668791
vt 0.381310 0.734898
vt 0.375427 0.819129
vt 0.379267 0.909351
vt 0.668357 0.416059
vt 0.390193 0.998400
vt 0.591157 0.413643
vt 0.503102 0.416374
vt 0.417917 0.412485
vt 0.751902 0.600146
vt 0.346007 0.412805
vt 0.743043 0.688651
vt 0.740371 0.779304
vt 0.743182 0.863907
vt 0.827131 0.929321
vt 0.336846 0.502654
vt 0.266837 0.504309
vt 0.177562 0.502614
vt 0.082300 0.503997
vt 0.009461 0.503539
vt 0.468463 0.672834
vt 0.469196 0.734760
vt 0.466667 0.818557
vt 0.468543 0.908386
vt 0.668695 0.496899
vt 0.472012 0.998107
vt 0.589339 0.498311
vt 0.501898 0.501140
vt 0.416913 0.499817
vt 0.833247 0.600759
vt 0.343106 0.494556
vt 0.830203 0.689009
vt 0.830390 0.779171
vt 0.830617 0.863245
vt 0.917043 0.923193
vt 0.331308 0.592720
vt 0.266550 0.601616
vt 0.177101 0.600059
vt 0.081356 0.598371
vt 0.008684 0.594551
vt 0.559269 0.673359
vt 0.563789 0.734784
vt 0.564654 0.818037
vt 0.564688 0.907401
vt 0.668634 0.585145
vt 0.559840 0.994754
vt 0.589013 0.584449
vt 0.498983 0.591045
vt 0.407856 0.592611
vt 0.920867 0.602073
vt 0.341028 0.583691
vt 0.923750 0.689860
vt 0.926790 0.778935
vt 0.924252 0.862022
vt 0.675244 0.002680
vt 0.625228 0.997221
vt 0.338178 0.002008
vt 0.342813 0.350863
vt 0.011296 0.335700
vt 0.666133 0.349952
vt 0.582358 0.334730
vt 0.637635 0.817721
vt 0.585214 0.006073
vt 0.494792 0.001600
vt 0.411379 0.007280
vt 0.332973 0.660630
vt 0.347667 0.004198
vt 0.410811 0.331630
vt 0.001600 0.661998
vt 0.626800 0.667263
vt 0.347294 0.072048
vt 0.346827 0.161150
vt 0.268803 0.340239
vt 0.180036 0.337365
vt 0.078686 0.340270
vt 0.167741 0.336247
vt 0.594097 0.338798
vt 0.259338 0.009390
vt 0.080664 0.668724
vn 0.014346 0.032511 0.999368
vn 0.003301 0.020449 0.999785
vn -0.000625 0.000712 1.000000
vn 0.008897 0.002879 0.999956
vn 0.044286 0.998340 0.036818
vn 0.052455 0.998539 0.012991
vn -0.003662 0.999863 0.016161
vn 0.002073 0.999606 0.027994
vn 0.008016 -0.011190 -0.999905
vn 0.023136 0.025711 -0.999402
vn 0.002863 0.011464 -0.999930
vn 0.003311 0.014080 -0.999895
vn 0.008709 -0.999941 -0.006561
vn 0.005894 -0.999971 0.004792
vn 0.012809 -0.999853 0.011431
vn 0.013857 -0.999851 -0.010257
vn 0.999595 0.022075 0.017969
vn 0.999669 0.006571 0.024861
vn 0.999857 0.011389 0.012491
vn 0.999533 0.030476 0.002072
vn -0.999895 0.001411 0.014440
vn -0.999982 0.001564 0.005779
vn -0.999788 -0.018952 0.008053
vn -0.999667 -0.020565 0.015616
vn -0.010517 -0.999879 0.011473
vn -0.011081 -0.999656 0.023753
vn -0.023470 0.014082 -0.999625
vn -0.029314 -0.011661 -0.999502
vn 0.012400 0.999782 0.016815
vn 0.018092 0.999836 0.000847
vn -0.032997 0.028672 0.999044
vn -0.020810 0.001540 0.999782
vn -0.042911 -0.006536 0.999058
vn 0.006773 0.004355 0.999968
vn 0.025765 -0.021526 0.999436
vn 0.999418 -0.027919 0.019615
vn 0.998978 -0.040775 0.019520
vn 0.019160 -0.037051 -0.999130
vn 0.013853 -0.014257 -0.999802
vn -0.044526 -0.020519 -0.998797
vn -0.999825 -0.018653 0.001547
vn -0.999931 -0.011716 -0.000671
vn -0.035736 0.004525 0.999351
vn 0.002454 -0.043731 0.999040
vn -0.003723 0.042911 0.999072
vn -0.032451 0.999381 0.013588
vn -0.056295 0.998408 0.003394
vn -0.050569 0.012274 -0.998645
vn 0.003061 0.052464 -0.998618
vn -0.002082 -0.059556 -0.998223
vn 0.011969 -0.999858 -0.011892
vn 0.017984 -0.999641 -0.019881
vn -0.049564 -0.998547 0.021145
vn -0.033114 -0.999409 0.009209
vn 0.001422 0.008868 -0.999960
vn -0.091808 -0.039376 -0.994998
vn -0.033133 0.000594 -0.999451
vn -0.073501 0.997284 -0.004802
vn -0.035419 0.999372 0.000044
vn 0.016529 0.001885 0.999862
vn -0.046570 0.048859 0.997719
vn -0.053658 -0.028465 0.998154
vn -0.083749 -0.032409 -0.995960
vn -0.042521 -0.070154 -0.996629
vn 0.017230 -0.074426 -0.997078
vn 0.046143 -0.004883 -0.998923
vn 0.048841 0.050965 -0.997505
vn 0.999401 -0.031084 0.015188
vn 0.998399 -0.056077 0.007385
vn 0.021959 0.026565 0.999406
vn 0.027566 0.066047 0.997436
vn 0.008043 -0.018912 0.999789
vn -0.052902 0.009662 0.998553
vn -0.123039 0.065181 0.990259
vn -0.997960 -0.062819 0.011394
vn -0.996106 -0.086520 0.016969
vn -0.122676 -0.027215 0.992074
vn -0.063996 0.026404 0.997601
vn 0.012656 0.050019 0.998668
vn 0.044318 -0.012042 0.998945
vn 0.040318 -0.073244 0.996499
vn 0.999956 -0.006689 0.006572
vn 0.999725 -0.019704 0.012747
vn 0.040002 -0.051823 -0.997855
vn 0.058407 -0.096461 -0.993622
vn 0.020408 -0.013277 -0.999704
vn -0.063772 -0.032963 -0.997420
vn -0.172818 -0.067631 -0.982629
vn -0.999813 -0.013044 -0.014306
vn -0.999889 -0.013448 -0.006446
vn -0.091964 0.995020 0.038441
vn 0.014070 0.999372 0.032532
vn 0.044600 0.998929 0.012311
vn 0.001301 0.999988 0.004813
vn 0.001833 0.999932 0.011517
vn 0.999917 0.006008 0.011397
vn 0.999771 0.015112 0.015159
vn 0.999827 0.001305 0.018575
vn 0.999878 -0.010417 0.011663
vn 0.999984 -0.002930 0.004931
vn 0.010362 -0.999943 0.002730
vn 0.014859 -0.999851 -0.008798
vn -0.001305 -0.999796 -0.020151
vn -0.022033 -0.999692 -0.011437
vn -0.020373 -0.999792 0.000552
vn -0.999904 -0.013854 0.000258
vn -0.999979 -0.006544 0.000181
vn -0.999999 0.001637 0.000136
vn -0.999959 -0.005704 0.006991
vn -0.999683 -0.019983 0.015314
vn -0.052075 0.997711 0.043131
vn 0.002063 0.999633 0.027024
vn 0.021727 0.999708 0.010550
vn 0.000504 0.999966 -0.008286
vn -0.008746 0.999826 -0.016507
vn 0.999694 0.001285 -0.024690
vn 0.999774 0.005415 -0.020558
vn 0.999839 0.002671 -0.017739
vn 0.999830 -0.003965 -0.018037
vn 0.999874 -0.004531 -0.015218
vn 0.002144 -0.999997 0.001295
vn 0.034625 -0.999376 -0.007028
vn 0.005920 -0.999756 -0.021298
vn -0.039629 -0.998944 -0.023248
vn -0.024952 -0.999608 -0.012666
vn -0.999967 -0.008144 0.000339
vn -0.999950 -0.009340 -0.003503
vn -0.999970 0.001542 -0.007564
vn -0.999947 0.010313 -0.000783
vn -0.999929 0.003985 0.011249
vn -0.008105 0.999485 -0.031038
vn -0.003898 0.999554 -0.029621
vn 0.008043 0.999817 -0.017332
vn -0.006491 0.999782 -0.019859
vn -0.039503 0.998464 -0.038845
vn 0.998870 0.000507 -0.047527
vn 0.997983 -0.025415 -0.058172
vn 0.999041 0.004025 -0.043605
vn 0.998895 -0.004785 -0.046753
vn 0.998899 -0.000138 -0.046921
vn 0.043841 -0.999034 0.003134
vn -0.011022 -0.999889 -0.010041
vn 0.013505 -0.999902 -0.003711
vn -0.048989 -0.998474 -0.025500
vn -0.031912 -0.998901 -0.034329
vn -1.000000 -0.000009 -0.000848
vn -0.999839 -0.014278 -0.010896
vn -0.999810 0.001294 -0.019431
vn -0.999646 0.021070 -0.016243
vn -0.999930 0.004736 -0.010855
s 1
g pCube1
f 37/50/1 38/51/2 14/21/3 20/30/4
s 2
f 11/145/5 53/69/6 54/70/7 22/32/8
s 3
f 33/45/9 34/46/10 23/33/11 17/25/12
s 4
f 60/78/13 61/79/14 10/17/15 24/148/16
s 5
f 56/73/17 57/74/18 16/24/19 35/48/20
s 6
f 18/26/21 65/84/22 66/85/23 31/42/24
s 4
f 61/79/14 62/80/25 26/37/26 10/17/15
s 3
f 27/38/27 32/44/28 33/45/9 17/25/12
s 2
f 28/144/29 52/68/30 53/69/6 11/145/5
s 1
f 38/51/2 39/52/31 30/41/32 14/21/3
f 30/41/32 42/55/33 43/56/34 14/21/3
f 43/56/34 44/57/35 20/30/4 14/21/3
s 5
f 57/74/18 58/75/36 46/60/37 16/24/19
s 3
f 47/61/38 48/62/39 17/25/12 23/33/11
f 48/62/39 49/63/40 27/38/27 17/25/12
s 6
f 50/64/41 64/83/42 65/84/22 18/26/21
s 1
f 15/22/43 20/30/4 44/57/35 45/132/44
f 36/139/45 37/50/1 20/30/4 15/22/43
s 2
f 22/32/8 54/70/7 55/71/46 6/6/47
s 3
f 16/23/48 23/33/11 34/46/10 35/47/49
f 46/59/50 47/61/38 23/33/11 16/23/48
s 4
f 59/76/51 60/78/13 24/148/16 8/131/52
f 7/7/53 26/37/26 62/80/25 63/82/54
s 3
f 18/27/55 27/38/27 49/63/40 50/65/56
f 31/43/57 32/44/28 27/38/27 18/27/55
s 2
f 51/67/58 52/68/30 28/144/29 5/129/59
s 1
f 13/135/60 30/41/32 39/52/31 40/136/61
f 41/134/62 42/55/33 30/41/32 13/135/60
s 3
f 5/5/63 28/39/64 32/44/28 31/43/57
f 33/45/9 32/44/28 28/39/64 11/18/65
f 22/149/66 34/46/10 33/45/9 11/18/65
f 35/47/49 34/46/10 22/149/66 6/128/67
s 5
f 55/72/68 56/73/17 35/48/20 6/12/69
s 1
f 21/31/70 37/50/1 36/139/45 4/4/71
f 12/143/72 38/51/2 37/50/1 21/31/70
f 29/142/73 39/52/31 38/51/2 12/143/72
f 40/136/61 39/52/31 29/142/73 3/138/74
s 6
f 31/42/24 66/85/23 51/66/75 5/14/76
s 1
f 1/126/77 25/35/78 42/55/33 41/134/62
f 43/56/34 42/55/33 25/35/78 9/15/79
f 19/28/80 44/57/35 43/56/34 9/15/79
f 45/132/44 44/57/35 19/28/80 2/2/81
s 5
f 58/75/36 59/77/82 8/11/83 46/60/37
s 3
f 24/34/84 47/61/38 46/59/50 8/8/85
f 10/147/86 48/62/39 47/61/38 24/34/84
f 26/146/87 49/63/40 48/62/39 10/147/86
f 50/65/56 49/63/40 26/146/87 7/130/88
s 6
f 7/13/89 63/81/90 64/83/42 50/64/41
s 2
f 67/87/91 68/88/92 52/68/30 51/67/58
f 53/69/6 52/68/30 68/88/92 69/89/93
f 54/70/7 53/69/6 69/89/93 70/90/94
f 55/71/46 54/70/7 70/90/94 71/91/95
s 5
f 71/92/96 72/93/97 56/73/17 55/72/68
f 72/93/97 73/94/98 57/74/18 56/73/17
f 73/94/98 74/95/99 58/75/36 57/74/18
f 74/95/99 75/97/100 59/77/82 58/75/36
s 4
f 75/96/101 76/98/102 60/78/13 59/76/51
f 76/98/102 77/99/103 61/79/14 60/78/13
f 77/99/103 78/100/104 62/80/25 61/79/14
f 63/82/54 62/80/25 78/100/104 79/102/105
s 6
f 64/83/42 63/81/90 79/101/106 80/103/107
f 65/84/22 64/83/42 80/103/107 81/104/108
f 66/85/23 65/84/22 81/104/108 82/105/109
f 51/66/75 66/85/23 82/105/109 67/86/110
s 2
f 83/107/111 84/108/112 68/88/92 67/87/91
f 69/89/93 68/88/92 84/108/112 85/109/113
f 70/90/94 69/89/93 85/109/113 86/110/114
f 71/91/95 70/90/94 86/110/114 87/111/115
s 5
f 87/112/116 88/113/117 72/93/97 71/92/96
f 88/113/117 89/114/118 73/94/98 72/93/97
f 89/114/118 90/115/119 74/95/99 73/94/98
f 90/115/119 91/117/120 75/97/100 74/95/99
s 4
f 91/116/121 92/118/122 76/98/102 75/96/101
f 92/118/122 93/119/123 77/99/103 76/98/102
f 93/119/123 94/120/124 78/100/104 77/99/103
f 79/102/105 78/100/104 94/120/124 95/122/125
s 6
f 80/103/107 79/101/106 95/121/126 96/123/127
f 81/104/108 80/103/107 96/123/127 97/124/128
f 82/105/109 81/104/108 97/124/128 98/125/129
f 67/86/110 82/105/109 98/125/129 83/106/130
s 2
f 3/137/131 29/40/132 84/108/112 83/107/111
f 85/109/113 84/108/112 29/40/132 12/19/133
f 86/110/114 85/109/113 12/19/133 21/150/134
f 87/111/115 86/110/114 21/150/134 4/140/135
s 5
f 36/49/136 88/113/117 87/112/116 4/141/137
f 15/133/138 89/114/118 88/113/117 36/49/136
f 45/58/139 90/115/119 89/114/118 15/133/138
f 2/127/140 91/117/120 90/115/119 45/58/139
s 4
f 19/29/141 92/118/122 91/116/121 2/10/142
f 9/16/143 93/119/123 92/118/122 19/29/141
f 25/36/144 94/120/124 93/119/123 9/16/143
f 95/122/125 94/120/124 25/36/144 1/9/145
s 6
f 96/123/127 95/121/126 1/1/146 41/54/147
f 97/124/128 96/123/127 41/54/147 13/20/148
f 98/125/129 97/124/128 13/20/148 40/53/149
f 83/106/130 98/125/129 40/53/149 3/3/150
